<?xml version="1.0" encoding="UTF-8"?>
<svg width="16px" height="16px" viewBox="0 0 16 16" version="1.1" xmlns="http://www.w3.org/2000/svg" xmlns:xlink="http://www.w3.org/1999/xlink">
    <title>我的团队</title>
    <g id="代理模式" stroke="none" stroke-width="1" fill="none" fill-rule="evenodd">
        <g id="代理模式-主页" transform="translate(-320.000000, -474.000000)">
            <g id="编组-2" transform="translate(320.000000, 472.000000)">
                <g id="我的团队" transform="translate(0.000000, 2.000000)">
                    <polygon id="路径" points="0 0 16 0 16 16 0 16"></polygon>
                    <path d="M4.66666662,7.33333333 C3.59486989,7.33333333 2.60448881,6.76153658 2.06859042,5.83333333 C1.53269202,4.90513011 1.53269202,3.76153656 2.06859042,2.83333333 C2.60448881,1.90513008 3.59486989,1.33333333 4.66666662,1.33333333 C6.32352092,1.33333333 7.66666662,2.67647908 7.66666662,4.33333333 C7.66666662,5.99018758 6.32352092,7.33333333 4.66666662,7.33333333 L4.66666662,7.33333333 Z M11.6666667,10 C10.1939073,10 9,8.80609267 9,7.33333333 C9,5.860574 10.1939073,4.66666667 11.6666667,4.66666667 C13.139426,4.66666667 14.3333333,5.860574 14.3333333,7.33333333 C14.3333333,8.80609267 13.139426,10 11.6666667,10 Z M11.6666667,10.6666667 C13.3235209,10.6666667 14.6666667,12.0098124 14.6666667,13.6666667 L14.6666667,14 L8.66666667,14 L8.66666667,13.6666667 C8.66666667,12.0098124 10.0098124,10.6666667 11.6666667,10.6666667 L11.6666667,10.6666667 Z M4.66666667,8 C5.55072163,8 6.39856801,8.35118947 7.02368927,8.97631073 C7.64881053,9.60143199 8,10.4492784 8,11.3333333 L8,14 L1.33333333,14 L1.33333333,11.3333333 C1.33333333,9.49238417 2.8257175,8 4.66666667,8 Z" id="形状" fill="#666666" fill-rule="nonzero"></path>
                </g>
            </g>
        </g>
    </g>
</svg>