<?xml version="1.0" encoding="UTF-8"?>
<svg width="16px" height="16px" viewBox="0 0 16 16" version="1.1" xmlns="http://www.w3.org/2000/svg" xmlns:xlink="http://www.w3.org/1999/xlink">
    <title>分佣记录</title>
    <g id="代理模式" stroke="none" stroke-width="1" fill="none" fill-rule="evenodd">
        <g id="代理模式-主页" transform="translate(-320.000000, -430.000000)">
            <g id="编组-3" transform="translate(320.000000, 428.000000)">
                <g id="分佣记录" transform="translate(0.000000, 2.000000)">
                    <polygon id="路径" points="0 0 16 0 16 16 0 16"></polygon>
                    <path d="M6.22,7.66666667 L7.66666667,7.66666667 C9.32352092,7.66666667 10.6666667,9.00981242 10.6666667,10.6666667 L5.99933333,10.6666667 L6,11.3333333 L11.3333333,11.3333333 L11.3333333,10.6666667 C11.3312313,9.95730871 11.1262824,9.26335092 10.7426667,8.66666667 L12.6666667,8.66666667 C13.9528713,8.66631185 15.1245226,9.40598806 15.6773333,10.5673333 C14.1006667,12.648 11.548,14 8.66666667,14 C6.826,14 5.26666667,13.6066667 4,12.9166667 L4,6.714 C4.81107527,6.83018436 5.57698238,7.15885741 6.22,7.66666667 Z M3.33333333,12.6666667 C3.33333333,13.0348565 3.0348565,13.3333333 2.66666667,13.3333333 L1.33333333,13.3333333 C0.9651435,13.3333333 0.666666667,13.0348565 0.666666667,12.6666667 L0.666666667,6.66666667 C0.666666667,6.29847683 0.9651435,6 1.33333333,6 L2.66666667,6 C3.0348565,6 3.33333333,6.29847683 3.33333333,6.66666667 L3.33333333,12.6666667 Z M9.5,1.33333333 C10.8807119,1.33333333 12,2.45262146 12,3.83333333 C12,5.21404521 10.8807119,6.33333333 9.5,6.33333333 C8.11928813,6.33333333 7,5.21404521 7,3.83333333 C7,2.45262146 8.11928813,1.33333333 9.5,1.33333333 Z" id="形状" fill="#666666" fill-rule="nonzero"></path>
                </g>
            </g>
        </g>
    </g>
</svg>