<?xml version="1.0" encoding="UTF-8"?>
<svg width="45px" height="45px" viewBox="0 0 45 45" version="1.1" xmlns="http://www.w3.org/2000/svg" xmlns:xlink="http://www.w3.org/1999/xlink">
    <title>分类</title>
    <defs>
        <linearGradient x1="50%" y1="0%" x2="50%" y2="100%" id="linearGradient-1">
            <stop stop-color="#F9399C" offset="0%"></stop>
            <stop stop-color="#F48B73" offset="100%"></stop>
        </linearGradient>
    </defs>
    <g id="名人" stroke="none" stroke-width="1" fill="none" fill-rule="evenodd">
        <g transform="translate(-47.000000, -214.000000)" fill="url(#linearGradient-1)" fill-rule="nonzero" id="编组-11">
            <g transform="translate(21.000000, 188.000000)">
                <g id="分类-full" transform="translate(23.500000, 23.500000)">
                    <path d="M18.1933594,5.45898438 L6.89453125,5.45898438 C4.81933594,5.46386719 3.13964844,7.14355469 3.13476563,9.21875 L3.13476563,20.5224609 C3.13964844,22.5976563 4.81933594,24.2773438 6.89453125,24.2822266 L18.1982422,24.2822266 C20.2734375,24.2773438 21.953125,22.5976563 21.9580078,20.5224609 L21.9580078,9.21386719 C21.9482422,7.13867188 20.2685547,5.45898438 18.1933594,5.45898438 M45.7714844,12.2070312 L37.7783203,4.21875 C36.3085938,2.75390625 33.9355469,2.75390625 32.4658203,4.21875 L31.3623047,5.32226563 L24.4775391,12.2070312 C23.7739884,12.9100066 23.3788616,13.8638343 23.3788616,14.8583984 C23.3740234,15.859375 23.7695313,16.8164062 24.4775391,17.5244141 L25.5859375,18.6328125 L31.3623047,24.4140625 L32.4707031,25.5224609 C33.9404297,26.9873047 36.3183594,26.9873047 37.7832031,25.5224609 L44.6679687,18.6376953 L45.7763672,17.5341797 C47.2363281,16.0546875 47.2363281,13.6767578 45.7714844,12.2070313 M18.1933594,28.0371094 L6.89453125,28.0371094 C4.81933594,28.0419922 3.13964844,29.7216797 3.13476563,31.796875 L3.13476563,43.1005859 C3.13964844,45.1757812 4.81933594,46.8554688 6.89453125,46.8603516 L18.1982422,46.8603516 C20.2734375,46.8554688 21.953125,45.1757812 21.9580078,43.1005859 L21.9580078,31.7919922 C21.9482422,29.7216797 20.2685547,28.0419922 18.1933594,28.0371094 M40.7763672,28.0371094 L29.4726563,28.0371094 C27.3974609,28.0419922 25.7177734,29.7216797 25.7128906,31.796875 L25.7128906,43.1005859 C25.7177734,45.1757812 27.3974609,46.8554688 29.4726563,46.8603516 L40.7763672,46.8603516 C42.8515625,46.8554688 44.53125,45.1757812 44.5361328,43.1005859 L44.5361328,31.7919922 C44.53125,29.7216797 42.8466797,28.0419922 40.7763672,28.0371094" id="分类"></path>
                </g>
            </g>
        </g>
    </g>
</svg>