<?xml version="1.0" encoding="UTF-8"?>
<svg width="24px" height="24px" viewBox="0 0 24 24" version="1.1" xmlns="http://www.w3.org/2000/svg" xmlns:xlink="http://www.w3.org/1999/xlink">
    <title>综艺</title>
    <defs>
        <linearGradient x1="50%" y1="0%" x2="50%" y2="100%" id="linearGradient-1">
            <stop stop-color="#F68079" offset="0%"></stop>
            <stop stop-color="#F8598E" offset="100%"></stop>
        </linearGradient>
    </defs>
    <g id="首页" stroke="none" stroke-width="1" fill="none" fill-rule="evenodd">
        <g transform="translate(-252.000000, -2469.000000)" fill-rule="nonzero" id="综艺">
            <g transform="translate(252.000000, 2469.000000)">
                <rect id="矩形" fill="#000000" opacity="0" x="0" y="0" width="23.9945622" height="23.9945622"></rect>
                <path d="M14.4447264,19.6875383 C14.2767645,19.6995356 14.1088026,19.675541 13.9648352,19.6155546 L9.47785206,17.7919679 L5.42277105,20.5153507 C5.02686078,20.7792909 4.48698313,20.7313017 4.15105926,20.3953779 C3.9351082,20.1794268 3.82713267,19.8914921 3.85112723,19.59156 L4.17505382,14.7566557 C4.17505382,14.7086666 4.16305654,14.6606775 4.11506742,14.6366829 L0.383912995,11.6013708 C0.0839809677,11.3614252 -0.0599864055,10.9655149 0.0239945622,10.5816019 C0.0959782487,10.1976889 0.395910276,9.8977569 0.76782599,9.80177865 L5.39877649,8.61404783 C5.44676562,8.60205054 5.48275746,8.5660587 5.49475474,8.53006686 L7.16237681,3.98309732 C7.34233603,3.45521695 7.91820552,3.17927949 8.44608589,3.37123599 C8.66203695,3.44321967 8.85399345,3.59918433 8.97396626,3.80313811 L11.5173898,7.90620824 C11.5413844,7.94220008 11.5773763,7.96619465 11.6253654,7.97819193 L16.4002833,8.18214571 C16.7841962,8.19414299 17.1321174,8.43408861 17.2880821,8.79400704 C17.4440467,9.15392547 17.3840603,9.57383031 17.1441147,9.87376234 L14.084808,13.5929195 C14.0488162,13.6289113 14.0488162,13.6769004 14.0608134,13.7248896 L15.3445225,18.3918319 C15.4285035,18.6797667 15.3685171,18.991696 15.2005551,19.2436389 C15.0205959,19.4955818 14.7446585,19.6635437 14.4447264,19.6875383 Z" id="路径" fill="url(#linearGradient-1)"></path>
                <path d="M20.7552963,20.6833126 C20.5633398,20.6833126 20.3833806,20.6113289 20.2394132,20.4793588 L18.7757449,19.0636797 L16.7242098,19.4235981 C16.7002153,19.4235981 16.6162343,19.4355954 16.5922398,19.4355954 C16.3402968,19.4355954 16.1123485,19.3156226 15.9683811,19.0996715 C15.836411,18.8957177 15.8244138,18.6317775 15.9443866,18.4158265 L16.8921718,16.6402289 L15.9083947,14.8886258 C15.7884219,14.6726748 15.7884219,14.4087346 15.920392,14.1927835 C16.0883539,13.9528379 16.3762887,13.8208678 16.6642234,13.8568597 L18.7157585,14.168789 L20.1554322,12.7291152 C20.2993996,12.5851479 20.4793588,12.5131642 20.6833126,12.5131642 C21.043231,12.5011669 21.3431631,12.7531098 21.4031495,13.101031 L21.7150788,15.0805823 L23.5866546,15.9443866 C23.9345758,16.1003512 24.0905404,16.4962615 23.9465731,16.8441827 C23.8745894,17.0001473 23.7546166,17.1201201 23.5986519,17.1921038 L21.7510706,18.0918999 L21.4631359,20.0714513 C21.4031495,20.4193724 21.1032174,20.6833126 20.7552963,20.6833126 L20.7552963,20.6833126 Z" id="路径" fill="#FFC9CE"></path>
            </g>
        </g>
    </g>
</svg>