<?xml version="1.0" encoding="UTF-8"?>
<svg width="48px" height="48px" viewBox="0 0 48 48" version="1.1" xmlns="http://www.w3.org/2000/svg" xmlns:xlink="http://www.w3.org/1999/xlink">
    <title>收藏</title>
    <g id="播放页" stroke="none" stroke-width="1" fill="none" fill-rule="evenodd">
        <g id="播放页2" transform="translate(-174.000000, -713.000000)">
            <g id="收藏" transform="translate(174.000000, 713.000000)">
                <polygon id="路径" points="0 0 48 0 48 48 0 48"></polygon>
                <path d="M26.4767566,4.62370713 L31.8476488,12.4817825 C32.2384701,13.0535875 32.8151026,13.4725512 33.4796848,13.6675705 L42.6143125,16.348095 C44.2041299,16.8146214 45.1147371,18.4816173 44.6482108,20.0714346 C44.5432514,20.4291127 44.3725521,20.7640975 44.1448556,21.059232 L38.3302483,28.5959798 C37.9071607,29.1443753 37.6868642,29.8222753 37.7067486,30.5146231 L37.9799997,40.0288457 C38.0275654,41.685017 36.7235329,43.0661688 35.0673615,43.1137345 C34.6948227,43.1244339 34.3235517,43.0656236 33.9725569,42.9403145 L25.0086793,39.7401098 C24.356388,39.5072345 23.643612,39.5072345 22.9913207,39.7401098 L14.0274431,42.9403145 C12.4670489,43.4973927 10.7504984,42.6840444 10.1934202,41.1236503 C10.0681112,40.7726555 10.0093009,40.4013845 10.0200003,40.0288457 L10.2932514,30.5146231 C10.3131358,29.8222753 10.0928393,29.1443753 9.66975167,28.5959798 L3.85514439,21.059232 C2.84307266,19.74741 3.08606821,17.863522 4.39789016,16.8514502 C4.69302467,16.6237537 5.02800939,16.4530544 5.38568748,16.348095 L14.5203152,13.6675705 C15.1848974,13.4725512 15.7615299,13.0535875 16.1523512,12.4817825 L21.5232434,4.62370713 C22.4581681,3.25583221 24.324956,2.9048567 25.6928309,3.83978141 C26.0005723,4.05011865 26.2664194,4.31596572 26.4767566,4.62370713 Z M23.1743583,9.29624262 L18.2455283,16.5090839 C18.1152082,16.6997941 17.9228861,16.8395092 17.7012322,16.9044956 L9.3187292,19.3621495 C8.78875317,19.5175324 8.48508544,20.0731256 8.64046834,20.6031016 C8.67547264,20.7224934 8.73244953,20.8343045 8.80847326,20.9327936 L14.1456622,27.8471426 C14.2868494,28.0300511 14.3603394,28.2562085 14.3536403,28.4871727 L14.100423,37.2173779 C14.0844108,37.7694305 14.5189575,38.2299379 15.0710101,38.2459501 C15.195242,38.2495534 15.3190572,38.2299667 15.4361109,38.1881938 L23.6638578,35.251959 C23.8812375,35.1743828 24.1187598,35.1743903 24.3361345,35.2519804 L32.5621063,38.1881724 C33.0822492,38.373833 33.6544159,38.1026816 33.8400766,37.5825388 C33.8818428,37.4655275 33.9014383,37.3417576 33.8978598,37.2175672 L33.6462865,28.4869834 C33.6396346,28.2561344 33.7130899,28.0300988 33.8541784,27.8472613 L39.1898957,20.9326748 C39.5272969,20.4954347 39.4463614,19.8674639 39.0091214,19.5300628 C38.910675,19.4540956 38.7989236,19.3971559 38.6795993,19.3621645 L30.2987336,16.9045054 C30.0771007,16.8395124 29.8847984,16.6998038 29.7544887,16.5091087 L24.8256417,9.29624262 C24.5140455,8.8402533 23.8917945,8.72319954 23.4358052,9.03479573 C23.3331625,9.1049357 23.2444983,9.19359992 23.1743583,9.29624262 Z M20,24 C20,26.209139 21.790861,28 24,28 C26.209139,28 28,26.209139 28,24 L32,24 C32,28.418278 28.418278,32 24,32 C19.581722,32 16,28.418278 16,24 L20,24 Z" id="形状" fill="#444444" fill-rule="nonzero"></path>
            </g>
        </g>
    </g>
</svg>