<?xml version="1.0" encoding="UTF-8"?>
<svg width="24px" height="24px" viewBox="0 0 24 24" version="1.1" xmlns="http://www.w3.org/2000/svg" xmlns:xlink="http://www.w3.org/1999/xlink">
    <title>动漫</title>
    <defs>
        <linearGradient x1="50%" y1="0%" x2="50%" y2="100%" id="linearGradient-1">
            <stop stop-color="#F67E7B" offset="0%"></stop>
            <stop stop-color="#F75F8A" offset="100%"></stop>
        </linearGradient>
    </defs>
    <g id="首页" stroke="none" stroke-width="1" fill="none" fill-rule="evenodd">
        <g transform="translate(-252.000000, -3080.000000)" fill-rule="nonzero" id="动漫">
            <g transform="translate(252.000000, 3080.000000)">
                <rect id="矩形" fill="#000000" opacity="0" x="0" y="0" width="23.9945622" height="23.9945622"></rect>
                <path d="M22.3461358,7.5162966 C22.3461358,5.1900238 20.4601632,3.30405121 18.1338904,3.30405121 C16.4602697,3.30405121 15.015797,4.27943017 14.3355512,5.69270988 C12.8032981,5.24137547 11.1742822,5.23513403 9.63861563,5.67471396 C8.95477061,4.2722318 7.51509688,3.30525094 5.84987426,3.30525094 C3.52360146,3.30525094 1.63762887,5.19122353 1.63762887,7.51749633 C1.63762887,9.14552738 2.56141951,10.5564076 3.91231336,11.2570488 C3.65802987,12.0722519 3.52898837,12.9213369 3.5296001,13.7752782 C3.5296001,18.4290235 7.30154527,22.2009687 11.9552906,22.2009687 C16.6090359,22.2009687 20.3809811,18.4290235 20.3809811,13.7752782 C20.3809811,12.9102742 20.2502108,12.0764631 20.0078657,11.2906412 C21.3935516,10.5995978 22.3461358,9.16952194 22.3461358,7.5162966 L22.3461358,7.5162966 Z M16.5994381,15.7692263 C16.0811556,17.482438 14.1903841,18.6797667 11.9996805,18.6797667 C9.75738871,18.6797667 7.85581966,17.4476459 7.37472869,15.6828458 C7.21156567,15.0853812 7.56428573,14.468721 8.16175033,14.3067577 C8.75921493,14.1435947 9.37587517,14.4963147 9.53783847,15.0937793 C9.71539823,15.7452317 10.6379891,16.4374748 11.9984808,16.4374748 C13.3337782,16.4374748 14.2587686,15.7596284 14.4519248,15.1213731 C14.6306843,14.5287074 15.2569424,14.1927835 15.8496081,14.3727427 C16.4434735,14.5503025 16.7781976,15.1765606 16.5994381,15.7692263 L16.5994381,15.7692263 Z" id="形状" fill="url(#linearGradient-1)"></path>
            </g>
        </g>
    </g>
</svg>