<?xml version="1.0" encoding="UTF-8"?>
<svg width="24px" height="24px" viewBox="0 0 24 24" version="1.1" xmlns="http://www.w3.org/2000/svg" xmlns:xlink="http://www.w3.org/1999/xlink">
    <title>下载</title>
    <g id="播放页" stroke="none" stroke-width="1" fill="none" fill-rule="evenodd">
        <g id="播放页2" transform="translate(-1409.000000, -892.000000)">
            <g id="编组-20" transform="translate(1313.000000, 892.000000)">
                <g id="下载" transform="translate(96.000000, 0.000000)">
                    <polygon id="路径" points="0 0 24 0 24 24 0 24"></polygon>
                    <path d="M12.414,5 L21,5 C21.5522847,5 22,5.44771525 22,6 L22,20 C22,20.5522847 21.5522847,21 21,21 L3,21 C2.44771525,21 2,20.5522847 2,20 L2,4 C2,3.44771525 2.44771525,3 3,3 L10.414,3 L12.414,5 Z M13,13 L13,9 L11,9 L11,13 L8,13 L12,17 L16,13 L13,13 Z" id="形状" fill="#999999" fill-rule="nonzero"></path>
                </g>
            </g>
        </g>
    </g>
</svg>