<?xml version="1.0" encoding="UTF-8"?>
<svg width="40px" height="40px" viewBox="0 0 40 40" version="1.1" xmlns="http://www.w3.org/2000/svg" xmlns:xlink="http://www.w3.org/1999/xlink">
    <title>默认头像</title>
    <defs>
        <linearGradient x1="50%" y1="0%" x2="50%" y2="98.2298951%" id="linearGradient-1">
            <stop stop-color="#FF72A6" offset="0%"></stop>
            <stop stop-color="#FF816E" offset="100%"></stop>
        </linearGradient>
    </defs>
    <g id="搜索页" stroke="none" stroke-width="1" fill="none" fill-rule="evenodd">
        <g id="搜索影片+关键字筛选" transform="translate(-1625.000000, -16.000000)">
            <g id="默认头像" transform="translate(1625.000000, 16.000000)">
                <circle id="椭圆形" fill="#FFFFFF" cx="20" cy="20" r="20"></circle>
                <g id="编组-9" transform="translate(10.000000, 9.000000)" fill="url(#linearGradient-1)">
                    <path d="M4.5,13 L15.5,13 C17.9852814,13 20,15.0147186 20,17.5 C20,19.9852814 17.9852814,22 15.5,22 L4.5,22 C2.01471863,22 3.04359188e-16,19.9852814 0,17.5 C-3.04359188e-16,15.0147186 2.01471863,13 4.5,13 Z M10,10 C12.7614237,10 15,7.76142375 15,5 C15,2.23857625 12.7614237,0 10,0 C7.23857625,0 5,2.23857625 5,5 C5,7.76142375 7.23857625,10 10,10 Z" id="形状结合"></path>
                </g>
            </g>
        </g>
    </g>
</svg>