<?xml version="1.0" encoding="UTF-8"?>
<svg width="15px" height="15px" viewBox="0 0 15 15" version="1.1" xmlns="http://www.w3.org/2000/svg" xmlns:xlink="http://www.w3.org/1999/xlink">
    <title>热播</title>
    <g id="首页" stroke="none" stroke-width="1" fill="none" fill-rule="evenodd">
        <g transform="translate(-545.000000, -2409.000000)" fill="#F85C8C" fill-rule="nonzero" id="热播">
            <g transform="translate(545.000000, 2409.000000)">
                <rect id="矩形" opacity="0" x="0" y="0" width="15" height="15"></rect>
                <path d="M6.66681819,0.833181812 L6.68181819,0.837954551 L6.72477272,0.852954551 C7.245,1.03431819 11.0509091,2.50704546 10.1325,6.49363636 C10.1325,6.49363636 10.6247727,6.11659091 11.1177273,5.36181819 C11.1177273,5.36181819 13.3336364,7.12295455 13.3336364,9.63818181 C13.3336364,11.3993182 11.8561364,12.9088636 8.90181819,14.1668182 L8.5425,14.1668182 C9.52772728,12.7411364 9.56863636,11.5670455 8.66522728,10.6445454 C6.69681819,8.75795455 7.55863636,7.5 7.55863636,7.5 C7.55863636,7.5 5.47363636,8.51181819 5.06863636,10.3977273 C4.85045455,11.4088636 5.11772728,12.6729546 6.45068181,14.1668182 L6.25090909,14.1668182 C3.75068181,13.3336364 1.66704545,11.6822727 1.66704545,9.16636364 C1.66704545,4.46590909 6.32727272,5.25068183 6.6675,0.833181812 L6.66681819,0.833181812 Z" id="路径"></path>
            </g>
        </g>
    </g>
</svg>