<?xml version="1.0" encoding="UTF-8"?>
<svg width="18px" height="18px" viewBox="0 0 18 18" version="1.1" xmlns="http://www.w3.org/2000/svg" xmlns:xlink="http://www.w3.org/1999/xlink">
    <title>联系客服灰</title>
    <g id="首页" stroke="none" stroke-width="1" fill="none" fill-rule="evenodd">
        <g transform="translate(-1891.000000, -2436.000000)" fill="#999999" fill-rule="nonzero" id="联系客服灰">
            <g transform="translate(1891.000000, 2436.000000)">
                <rect id="矩形" opacity="0" x="0" y="0" width="18" height="18"></rect>
                <path d="M11.8773821,16.0596879 C11.8440519,16.5161987 11.5328575,16.9084643 11.0880203,17.054457 L9.70441514,17.4563514 C9.13144192,17.5944382 8.55196367,17.2529889 8.41044726,16.6937825 C8.40537326,16.6732847 8.40078838,16.6526689 8.39669654,16.6319526 C8.23078629,16.0390779 8.55711615,15.421117 9.14828413,15.2088343 L10.5318893,14.8076323 C10.8969774,14.7028667 11.2899969,14.8110664 11.5500217,15.0879279 C12.6166331,14.6124669 13.4960783,13.797637 14.0513956,12.7703369 L13.6993033,12.7703369 C12.5873955,12.7109061 11.7337886,11.7858567 11.7894516,10.7007418 L11.7894516,8.62910186 C11.7344809,7.54434126 12.5877336,6.61962993 13.6993033,6.56021527 L14.1764241,6.56021527 C14.2447751,6.56021527 14.3131261,6.56398302 14.3808009,6.57188887 C13.6100042,3.69610591 10.5957963,1.97483541 7.64890892,2.72709926 C5.71981587,3.21932327 4.21322716,4.68950639 3.70862108,6.57188887 C3.77635055,6.56404822 3.84447799,6.56014508 3.91265976,6.56019916 L4.39011867,6.56019916 C5.50065784,6.62066045 6.35289613,7.54501752 6.29792549,8.62910186 L6.29792549,10.6979885 C6.35321817,11.7831194 5.49996547,12.7081528 4.38805768,12.7675835 L3.91059877,12.7675835 C2.80039774,12.7071222 1.94819164,11.7837957 2.00245382,10.7000656 L2.00245382,8.62910186 C2.00245382,8.57551594 2.00245382,8.52193002 2.00796055,8.46903647 C2.00441358,8.43640432 2.00257549,8.40360901 2.00245382,8.37078488 C2.00245382,4.29345686 5.16128573,1 9.04384955,1 C12.9267676,1 16.085725,4.29347296 16.085725,8.37080098 C16.085725,8.40343879 16.0835385,8.43641474 16.0797547,8.46905257 C16.0797547,8.52194613 16.085725,8.57553204 16.085725,8.62911796 L16.085725,10.6980046 C16.0926752,11.3498714 15.800183,11.9689245 15.2921157,12.377395 C14.7156968,14.0069189 13.4822063,15.3362619 11.8773821,16.0576108 L11.8773821,16.0596718 L11.8773821,16.0596879 Z" id="路径"></path>
            </g>
        </g>
    </g>
</svg>