<?xml version="1.0" encoding="UTF-8"?>
<svg width="56px" height="56px" viewBox="0 0 56 56" version="1.1" xmlns="http://www.w3.org/2000/svg" xmlns:xlink="http://www.w3.org/1999/xlink">
    <title>默认头像</title>
    <defs>
        <linearGradient x1="50%" y1="0%" x2="50%" y2="100%" id="linearGradient-1">
            <stop stop-color="#F9389B" offset="0%"></stop>
            <stop stop-color="#F48A73" offset="100%"></stop>
        </linearGradient>
    </defs>
    <g id="首页" stroke="none" stroke-width="1" fill="none" fill-rule="evenodd">
        <g transform="translate(-662.000000, -66.000000)" id="默认头像">
            <g transform="translate(662.000000, 66.000000)">
                <circle id="椭圆形" fill="#F4F4F4" cx="28" cy="28" r="28"></circle>
                <g id="编组-9" transform="translate(14.000000, 12.000000)" fill="url(#linearGradient-1)">
                    <path d="M7,18.2 L21,18.2 C24.8659932,18.2 28,21.3340068 28,25.2 C28,29.0659932 24.8659932,32.2 21,32.2 L7,32.2 C3.13400675,32.2 4.73447626e-16,29.0659932 0,25.2 C-4.73447626e-16,21.3340068 3.13400675,18.2 7,18.2 Z M14,14 C17.8659932,14 21,10.8659932 21,7 C21,3.13400675 17.8659932,0 14,0 C10.1340068,0 7,3.13400675 7,7 C7,10.8659932 10.1340068,14 14,14 Z" id="形状结合"></path>
                </g>
            </g>
        </g>
    </g>
</svg>