<?xml version="1.0" encoding="UTF-8"?>
<svg width="38px" height="38px" viewBox="0 0 38 38" version="1.1" xmlns="http://www.w3.org/2000/svg" xmlns:xlink="http://www.w3.org/1999/xlink">
    <title>用户模式</title>
    <g id="代理模式" stroke="none" stroke-width="1" fill="none" fill-rule="evenodd">
        <g id="个人中心-代理模式（2选一）" transform="translate(-658.000000, -65.000000)">
            <g id="用户模式" transform="translate(658.000000, 65.000000)">
                <polygon id="路径" points="0 0 38 0 38 38 0 38"></polygon>
                <path d="M22.1666667,22.5656667 L22.1666667,34.8333333 L6.33333292,34.8333333 C6.33233744,30.9151241 8.14469812,27.2170173 11.2420097,24.8172203 C14.3393212,22.4174233 18.3728768,21.5861142 22.1666667,22.5656667 L22.1666667,22.5656667 Z M19,20.5833333 C13.75125,20.5833333 9.5,16.3320833 9.5,11.0833333 C9.5,5.83458333 13.75125,1.58333333 19,1.58333333 C24.24875,1.58333333 28.5,5.83458333 28.5,11.0833333 C28.5,16.3320833 24.24875,20.5833333 19,20.5833333 Z M31.6666667,26.9166667 L36.4166667,26.9166667 L36.4166667,30.0833333 L31.6666667,30.0833333 L31.6666667,35.625 L23.75,28.5 L31.6666667,21.375 L31.6666667,26.9166667 Z" id="形状" fill="#666666" fill-rule="nonzero"></path>
            </g>
        </g>
    </g>
</svg>