<?xml version="1.0" encoding="UTF-8"?>
<svg width="48px" height="48px" viewBox="0 0 48 48" version="1.1" xmlns="http://www.w3.org/2000/svg" xmlns:xlink="http://www.w3.org/1999/xlink">
    <title>点-更多</title>
    <g id="播放页" stroke="none" stroke-width="1" fill="none" fill-rule="evenodd">
        <g id="播放页2" transform="translate(-648.000000, -730.000000)">
            <g id="点-更多" transform="translate(648.000000, 730.000000)">
                <polygon id="路径" points="0 0 48 0 48 48 0 48"></polygon>
                <path d="M24,6 C21.8,6 20,7.8 20,10 C20,12.2 21.8,14 24,14 C26.2,14 28,12.2 28,10 C28,7.8 26.2,6 24,6 Z M24,34 C21.8,34 20,35.8 20,38 C20,40.2 21.8,42 24,42 C26.2,42 28,40.2 28,38 C28,35.8 26.2,34 24,34 Z M24,20 C21.8,20 20,21.8 20,24 C20,26.2 21.8,28 24,28 C26.2,28 28,26.2 28,24 C28,21.8 26.2,20 24,20 Z" id="形状" fill="#999999" fill-rule="nonzero"></path>
            </g>
        </g>
    </g>
</svg>