<?xml version="1.0" encoding="UTF-8"?>
<svg width="36px" height="36px" viewBox="0 0 36 36" version="1.1" xmlns="http://www.w3.org/2000/svg" xmlns:xlink="http://www.w3.org/1999/xlink">
    <title>电影</title>
    <defs>
        <linearGradient x1="50%" y1="0%" x2="50%" y2="100%" id="linearGradient-1">
            <stop stop-color="#F58E73" offset="0%"></stop>
            <stop stop-color="#F85190" offset="100%"></stop>
        </linearGradient>
    </defs>
    <g id="首页" stroke="none" stroke-width="1" fill="none" fill-rule="evenodd">
        <g id="首页全部" transform="translate(-22.000000, -1974.000000)" fill-rule="nonzero">
            <g id="电影" transform="translate(22.000000, 1974.000000)">
                <rect id="矩形" fill="#000000" opacity="0" x="0" y="0" width="36" height="36"></rect>
                <path d="M9.74999999,32.28975 C4.64477987,29.3422498 1.50000001,23.8950004 1.50000001,18 C1.50000001,8.8875 8.8875,1.50000001 18,1.50000001 C27.1125,1.50000001 34.5,8.8875 34.5,18 C34.5,23.8669229 31.3844715,29.2925375 26.3175,32.25 L31.875,32.25 C32.4963204,32.25 33,32.7536796 33,33.375 C33,33.9963203 32.4963204,34.5 31.875,34.5 L17.84475,34.49925 C15.0011131,34.4731093 12.2125721,33.7119639 9.74999999,32.28975 Z M18,23.25 C16.660254,23.25 15.4222776,23.9647459 14.7524046,25.125 C14.0825316,26.285254 14.0825316,27.714746 14.7524046,28.875 C15.4222776,30.0352541 16.660254,30.75 18,30.75 C20.0710678,30.75 21.7499999,29.0710678 21.7499999,27 C21.7499999,24.9289322 20.0710678,23.25 18,23.25 L18,23.25 Z M27,14.25 C24.9289322,14.25 23.25,15.9289322 23.25,18 C23.25,20.0710678 24.9289322,21.75 27,21.75 C29.0710678,21.75 30.75,20.0710678 30.75,18 C30.75,15.9289322 29.0710678,14.25 27,14.25 L27,14.25 Z M9,14.25 C6.92893218,14.25 5.24999999,15.9289322 5.24999999,18 C5.24999999,20.0710678 6.92893218,21.75 9,21.75 C11.0710678,21.75 12.75,20.0710678 12.75,18 C12.75,15.9289322 11.0710678,14.25 9,14.25 L9,14.25 Z M18,15.75 C17.1961524,15.75 16.4533666,16.1788475 16.0514428,16.875 C15.649519,17.5711524 15.649519,18.4288476 16.0514428,19.125 C16.4533666,19.8211525 17.1961524,20.25 18,20.25 C19.2426407,20.25 20.2499999,19.2426407 20.2499999,18 C20.2499999,16.7573593 19.2426407,15.75 18,15.75 L18,15.75 Z M18,5.24999999 C15.9289322,5.24999999 14.25,6.92893218 14.25,9 C14.25,11.0710678 15.9289322,12.75 18,12.75 C20.0710678,12.75 21.75,11.0710678 21.75,9 C21.75,6.9289322 20.0710678,5.24999999 18,5.24999999 L18,5.24999999 Z" id="形状" fill="url(#linearGradient-1)"></path>
            </g>
        </g>
    </g>
</svg>