<?xml version="1.0" encoding="UTF-8"?>
<svg width="18px" height="18px" viewBox="0 0 18 18" version="1.1" xmlns="http://www.w3.org/2000/svg" xmlns:xlink="http://www.w3.org/1999/xlink">
    <title>人气</title>
    <g id="首页" stroke="none" stroke-width="1" fill="none" fill-rule="evenodd">
        <g transform="translate(-484.000000, -2408.000000)" fill="#F48C72" fill-rule="nonzero" id="人气">
            <g transform="translate(484.000000, 2408.000000)">
                <rect id="矩形" opacity="0" x="0" y="0" width="18" height="18"></rect>
                <path d="M9.01933594,3.28710938 C3.32402344,3.28710938 1.13203125,8.91210938 1.13203125,8.91210938 C1.13203125,8.91210938 3.36445312,14.6654297 9.01933594,14.6654297 C14.6742187,14.6654297 16.9066406,8.91210938 16.9066406,8.91210938 C16.9066406,8.91210938 14.7146484,3.28710938 9.01933594,3.28710938 Z M9.01933594,12.4716797 C7.07695313,12.4716797 5.50195313,10.8966797 5.50195313,8.95429688 C5.50195313,7.01191406 7.07695313,5.43691406 9.01933594,5.43691406 C10.9617188,5.43691406 12.5367188,7.01191406 12.5367188,8.95429688 C12.5367188,10.8966797 10.9617188,12.4716797 9.01933594,12.4716797 Z M7.04355469,8.93671875 C7.04355469,9.646875 7.42148437,10.3007812 8.03671875,10.6558594 C8.65019531,11.0109375 9.4078125,11.0109375 10.0230469,10.6558594 C10.6365234,10.3007812 11.0162109,9.64511719 11.0162109,8.93671875 C11.0162109,7.83984375 10.1267578,6.95039062 9.02988281,6.95039062 C7.93300781,6.95039062 7.04355469,7.83984375 7.04355469,8.93671875 L7.04355469,8.93671875 Z" id="形状"></path>
            </g>
        </g>
    </g>
</svg>