<?xml version="1.0" encoding="UTF-8"?>
<svg width="24px" height="19px" viewBox="0 0 24 19" version="1.1" xmlns="http://www.w3.org/2000/svg" xmlns:xlink="http://www.w3.org/1999/xlink">
    <title>举报-实心</title>
    <g id="播放页" stroke="none" stroke-width="1" fill="none" fill-rule="evenodd">
        <g id="播放页2" transform="translate(-278.000000, -1946.000000)" fill="#999999">
            <g id="编组-7" transform="translate(121.000000, 1939.000000)">
                <g id="编组-6" transform="translate(153.000000, 0.000000)">
                    <g id="举报-实心" transform="translate(4.814327, 7.872554)">
                        <path d="M11.7196664,0.154640478 C11.845362,0.234027147 11.9517757,0.340440829 12.0311623,0.466136389 L22.2168357,16.5934526 C22.5117519,17.0604033 22.3722905,17.6780183 21.9053398,17.9729345 C21.7455227,18.0738717 21.5603702,18.1274456 21.3713468,18.1274456 L1,18.1274456 C0.44771525,18.1274456 -2.33257857e-13,17.6797304 -2.3336888e-13,17.1274456 C-2.3336888e-13,16.9384223 0.0535739448,16.7532698 0.154511097,16.5934526 L10.3401845,0.466136389 C10.6351007,-0.000814238062 11.2527158,-0.140275708 11.7196664,0.154640478 Z M11.1856734,13.8966764 C10.6758721,13.8966764 10.2625965,14.309952 10.2625965,14.8197533 C10.2625965,15.3295546 10.6758721,15.7428302 11.1856734,15.7428302 C11.6954747,15.7428302 12.1087503,15.3295546 12.1087503,14.8197533 C12.1087503,14.309952 11.6954747,13.8966764 11.1856734,13.8966764 Z M11.1856734,6.51206101 C10.6758721,6.51206101 10.2625965,6.92533663 10.2625965,7.43513793 L10.2625965,7.43513793 L10.2625965,11.1274456 C10.2625965,11.6372469 10.6758721,12.0505225 11.1856734,12.0505225 C11.6954747,12.0505225 12.1087503,11.6372469 12.1087503,11.1274456 L12.1087503,11.1274456 L12.1087503,7.43513793 C12.1087503,6.92533663 11.6954747,6.51206101 11.1856734,6.51206101 Z" id="形状结合"></path>
                    </g>
                </g>
            </g>
        </g>
    </g>
</svg>