<?xml version="1.0" encoding="UTF-8"?>
<svg width="13px" height="10px" viewBox="0 0 13 10" version="1.1" xmlns="http://www.w3.org/2000/svg" xmlns:xlink="http://www.w3.org/1999/xlink">
    <title>举报</title>
    <g id="播放页" stroke="none" stroke-width="1" fill="none" fill-rule="evenodd">
        <g id="播放页2" transform="translate(-358.000000, -1732.000000)">
            <g id="编组-7" transform="translate(257.000000, 1728.000000)">
                <g id="举报" transform="translate(101.000000, 4.000000)">
                    <path d="M7.33844362,1.28991326 L11.9957576,8.45501165 C12.2967463,8.91807127 12.1653619,9.53745486 11.7023023,9.83844362 C11.540092,9.94388028 11.3507799,10 11.157314,10 L1.84268604,10 C1.29040129,10 0.842686044,9.55228475 0.842686044,9 C0.842686044,8.80653409 0.898805761,8.61722191 1.00424243,8.45501165 L5.66155638,1.28991326 C5.96254514,0.826853633 6.58192873,0.695469235 7.04498835,0.99645799 C7.16225157,1.07267908 7.26222252,1.17265003 7.33844362,1.28991326 Z" id="三角形" fill="#999999"></path>
                    <g id="编组-4" transform="translate(6.000000, 4.000000)" fill="#FFFFFF">
                        <rect id="矩形" x="0" y="0" width="1" height="3" rx="0.5"></rect>
                        <rect id="矩形" x="0" y="4" width="1" height="1" rx="0.5"></rect>
                    </g>
                </g>
            </g>
        </g>
    </g>
</svg>