<?xml version="1.0" encoding="UTF-8"?>
<svg width="48px" height="48px" viewBox="0 0 48 48" version="1.1" xmlns="http://www.w3.org/2000/svg" xmlns:xlink="http://www.w3.org/1999/xlink">
    <title>举报</title>
    <g id="播放页" stroke="none" stroke-width="1" fill="none" fill-rule="evenodd">
        <g id="播放页2" transform="translate(-488.000000, -713.000000)">
            <g id="编组-2" transform="translate(80.000000, 713.000000)">
                <g id="举报" transform="translate(408.000000, 0.000000)">
                    <polygon id="路径" points="0 0 48 0 48 48 0 48"></polygon>
                    <path d="M25.732,6 L44.784,39 C45.1412611,39.6187943 45.1412659,40.3811792 44.7840127,40.999978 C44.4267595,41.6187768 43.7665221,42 43.052,42 L4.948,42 C4.2334779,42 3.57324049,41.6187768 3.2159873,40.999978 C2.85873411,40.3811792 2.85873895,39.6187943 3.216,39 L22.268,6 C22.6252789,5.38124744 23.2855051,5.000088 24,5.000088 C24.7144949,5.000088 25.3747211,5.38124744 25.732,6 Z M8.412,38 L39.588,38 L24,11 L8.412,38 Z M22,32 L26,32 L26,36 L22,36 L22,32 Z M22,18 L26,18 L26,28 L22,28 L22,18 Z" id="形状" fill="#333333" fill-rule="nonzero"></path>
                </g>
            </g>
        </g>
    </g>
</svg>