<?xml version="1.0" encoding="UTF-8"?>
<svg width="24px" height="24px" viewBox="0 0 24 24" version="1.1" xmlns="http://www.w3.org/2000/svg" xmlns:xlink="http://www.w3.org/1999/xlink">
    <title>音量</title>
    <g id="播放页" stroke="none" stroke-width="1" fill="none" fill-rule="evenodd">
        <g id="播放页2" transform="translate(-1421.000000, -814.000000)">
            <g id="编组-3" transform="translate(1349.000000, 814.000000)">
                <g id="音量" transform="translate(72.000000, 0.960000)">
                    <polygon id="路径" points="0 0 24 0 24 23.04 0 23.04"></polygon>
                    <path d="M13,6.9312 L9.603,9.6 L6,9.6 L6,13.44 L9.603,13.44 L13,16.1088 L13,6.9312 Z M8.889,15.36 L5,15.36 C4.44771525,15.36 4,14.9301934 4,14.4 L4,8.64 C4,8.10980664 4.44771525,7.68 5,7.68 L8.889,7.68 L14.183,3.52128 C14.3325193,3.40360301 14.5393109,3.37922836 14.7140433,3.45868561 C14.8887757,3.53814286 15.000129,3.70718971 15,3.8928 L15,19.1472 C15.000129,19.3328103 14.8887757,19.5018571 14.7140433,19.5813144 C14.5393109,19.6607716 14.3325193,19.636397 14.183,19.51872 L8.89,15.36 L8.889,15.36 Z M18.863,15.92736 L17.441,14.56224 C18.4249639,13.8358944 19.0011218,12.7115771 19,11.52 C19,10.1472 18.25,8.9424 17.12,8.26368 L18.559,6.88224 C20.0951941,7.96707685 21.001614,9.68922276 21.0000022,11.52 C21.0000022,13.28832 20.17,14.8704 18.863,15.92736 L18.863,15.92736 Z" id="形状" fill="#E0E0E0" fill-rule="nonzero"></path>
                </g>
            </g>
        </g>
    </g>
</svg>