<?xml version="1.0" encoding="UTF-8"?>
<svg width="48px" height="48px" viewBox="0 0 48 48" version="1.1" xmlns="http://www.w3.org/2000/svg" xmlns:xlink="http://www.w3.org/1999/xlink">
    <title>专题灰</title>
    <g id="首页" stroke="none" stroke-width="1" fill="none" fill-rule="evenodd">
        <g id="首页全部" transform="translate(-351.000000, -5173.000000)">
            <g id="编组-11" transform="translate(0.000000, 5152.000000)">
                <g id="编组-10" transform="translate(64.000000, 21.000000)">
                    <g id="专题灰" transform="translate(287.000000, 0.000000)">
                        <polygon id="路径" points="0 0 48 0 48 48 0 48"></polygon>
                        <path d="M12.3947368,4 C14.886376,4 17.275964,4.98979979 19.037819,6.75165471 C20.7996739,8.51350964 21.7894737,10.9030977 21.7894737,13.3947368 L21.7894737,22.7894737 L12.3947368,22.7894737 C7.20616696,22.7894737 3,18.5833067 3,13.3947368 C3,8.20616696 7.20616696,4 12.3947368,4 L12.3947368,4 Z M17.3684211,18.3684211 L17.3684211,13.3947368 C17.3684211,10.6478469 15.1416268,8.42105263 12.3947368,8.42105263 C9.6478469,8.42105263 7.42105263,10.6478469 7.42105263,13.3947368 C7.42105263,16.1416268 9.6478469,18.3684211 12.3947368,18.3684211 L17.3684211,18.3684211 Z M12.3947368,27.2105263 L21.7894737,27.2105263 L21.7894737,36.6052632 C21.7894737,41.793833 17.5833067,46 12.3947368,46 C7.20616696,46 3,41.793833 3,36.6052632 C3,31.4166933 7.20616696,27.2105263 12.3947368,27.2105263 Z M12.3947368,31.6315789 C9.6478469,31.6315789 7.42105263,33.8583732 7.42105263,36.6052632 C7.42105263,39.3521531 9.6478469,41.5789474 12.3947368,41.5789474 C15.1416268,41.5789474 17.3684211,39.3521531 17.3684211,36.6052632 L17.3684211,31.6315789 L12.3947368,31.6315789 Z M35.6052632,4 C40.793833,4 45,8.20616696 45,13.3947368 C45,18.5833067 40.793833,22.7894737 35.6052632,22.7894737 L26.2105263,22.7894737 L26.2105263,13.3947368 C26.2105263,8.20616696 30.4166933,4 35.6052632,4 Z M35.6052632,18.3684211 C38.3521531,18.3684211 40.5789474,16.1416268 40.5789474,13.3947368 C40.5789474,10.6478469 38.3521531,8.42105263 35.6052632,8.42105263 C32.8583732,8.42105263 30.6315789,10.6478469 30.6315789,13.3947368 L30.6315789,18.3684211 L35.6052632,18.3684211 Z M26.2105263,27.2105263 L35.6052632,27.2105263 C40.793833,27.2105263 45,31.4166933 45,36.6052632 C45,41.793833 40.793833,46 35.6052632,46 C30.4166933,46 26.2105263,41.793833 26.2105263,36.6052632 L26.2105263,27.2105263 Z M30.6315789,31.6315789 L30.6315789,36.6052632 C30.6315789,39.3521531 32.8583732,41.5789474 35.6052632,41.5789474 C38.3521531,41.5789474 40.5789474,39.3521531 40.5789474,36.6052632 C40.5789474,33.8583732 38.3521531,31.6315789 35.6052632,31.6315789 L30.6315789,31.6315789 L30.6315789,31.6315789 Z" id="形状" fill="#777777" fill-rule="nonzero"></path>
                    </g>
                </g>
            </g>
        </g>
    </g>
</svg>