<?xml version="1.0" encoding="UTF-8"?>
<svg width="24px" height="24px" viewBox="0 0 24 24" version="1.1" xmlns="http://www.w3.org/2000/svg" xmlns:xlink="http://www.w3.org/1999/xlink">
    <title>电视</title>
    <defs>
        <linearGradient x1="50%" y1="0%" x2="50%" y2="100%" id="linearGradient-1">
            <stop stop-color="#F58C73" offset="0%"></stop>
            <stop stop-color="#F85390" offset="100%"></stop>
        </linearGradient>
    </defs>
    <g id="首页" stroke="none" stroke-width="1" fill="none" fill-rule="evenodd">
        <g transform="translate(-252.000000, -1858.000000)" fill-rule="nonzero" id="电视">
            <g transform="translate(252.000000, 1858.000000)">
                <rect id="矩形" fill="#000000" opacity="0" x="0" y="0" width="24" height="24"></rect>
                <path d="M7.07919482,1.78962394 C7.33756329,1.79019368 7.57581966,1.92915544 7.70352,2.15376 L9.50832,5.28 L14.4912,5.28 L16.29648,2.15376 C16.3918807,1.98831393 16.5491046,1.86754862 16.7335561,1.8180375 C16.9180075,1.76852638 17.114573,1.79432623 17.28,1.88976 C17.6243531,2.08906827 17.7423331,2.52939818 17.54352,2.87376 L16.1544,5.28 L19.68,5.28 C21.2705801,5.28 22.56,6.56941992 22.56,8.16 L22.56,19.68 C22.56,21.2705801 21.2705801,22.56 19.68,22.56 L4.32,22.56 C2.72941992,22.56 1.44,21.2705801 1.44,19.68 L1.44,8.16 C1.44,6.56941992 2.72941992,5.28 4.32,5.28 L7.84512,5.28 L6.45648,2.87376 C6.32581125,2.6508693 6.32458802,2.37505238 6.45327466,2.15101146 C6.5819613,1.92697054 6.82082636,1.78905769 7.07919482,1.78962394 Z M10.0824,10.56 C9.55104,10.56 9.11999877,11.01888 9.11999877,11.58528 L9.11999877,11.58528 L9.11999877,16.25424 C9.11973362,16.4305906 9.16275183,16.6043116 9.24528,16.76016 C9.50736,17.25264 10.0944,17.42592 10.55664,17.14656 L10.55664,17.14656 L14.39184,14.83104 C14.5416,14.7408 14.66544,14.60928 14.75136,14.45088 C15.0168,13.96032 14.85888,13.33344 14.39808,13.05072 L14.39808,13.05072 L10.56288,10.6968 C10.41696,10.60704 10.25136,10.56 10.0824,10.56 Z" id="形状结合" fill="url(#linearGradient-1)"></path>
            </g>
        </g>
    </g>
</svg>