<?xml version="1.0" encoding="UTF-8"?>
<svg width="48px" height="48px" viewBox="0 0 48 48" version="1.1" xmlns="http://www.w3.org/2000/svg" xmlns:xlink="http://www.w3.org/1999/xlink">
    <title>点赞2</title>
    <g id="播放页" stroke="none" stroke-width="1" fill="none" fill-rule="evenodd">
        <g id="播放页2" transform="translate(-55.000000, -713.000000)">
            <g id="点赞2" transform="translate(55.000000, 713.000000)">
                <polygon id="路径" points="0 0 48 0 48 48 0 48"></polygon>
                <path d="M40.486,9.514 C45.01,14.05 45.166,21.274 40.958,25.986 L23.998,42.97 L7.042,25.986 C2.834,21.274 2.992,14.038 7.514,9.514 C12.044,4.986 19.29,4.834 24.002,9.058 C28.7,4.84 35.96,4.98 40.486,9.514 Z M10.344,12.344 C7.364,15.324 7.214,20.094 9.96,23.246 L24,37.308 L38.04,23.248 C40.788,20.094 40.638,15.33 37.654,12.34 C34.68,9.36 29.892,9.216 26.748,11.968 L18.344,20.374 L15.514,17.546 L21.164,11.892 L21,11.754 C17.85,9.224 13.246,9.44 10.344,12.344 Z" id="dz1" fill-opacity="0" fill="#000000" fill-rule="nonzero"></path>
            </g>
        </g>
    </g>
</svg>