<?xml version="1.0" encoding="UTF-8"?>
<svg width="100px" height="100px" viewBox="0 0 100 100" version="1.1" xmlns="http://www.w3.org/2000/svg" xmlns:xlink="http://www.w3.org/1999/xlink">
    <title>至尊代理备份</title>
    <defs>
        <filter x="-143.8%" y="-143.7%" width="387.5%" height="387.5%" filterUnits="objectBoundingBox" id="filter-1">
            <feOffset dx="0" dy="4" in="SourceAlpha" result="shadowOffsetOuter1"></feOffset>
            <feGaussianBlur stdDeviation="10" in="shadowOffsetOuter1" result="shadowBlurOuter1"></feGaussianBlur>
            <feColorMatrix values="0 0 0 0 0.533333333   0 0 0 0 0.690196078   0 0 0 0 0.921568627  0 0 0 0.25 0" type="matrix" in="shadowBlurOuter1" result="shadowMatrixOuter1"></feColorMatrix>
            <feMerge>
                <feMergeNode in="shadowMatrixOuter1"></feMergeNode>
                <feMergeNode in="SourceGraphic"></feMergeNode>
            </feMerge>
        </filter>
    </defs>
    <g id="会员" stroke="none" stroke-width="1" fill="none" fill-rule="evenodd">
        <g id="代理等级图标" transform="translate(-137.000000, -328.000000)">
            <g id="编组-4" transform="translate(166.000000, 358.000000)">
                <g id="至尊代理备份" filter="url(#filter-1)" transform="translate(5.000000, 4.000000)">
                    <path d="M0,16 C0,24.836556 7.163444,32 16,32 C24.836556,32 32,24.836556 32,16 C32,7.163444 24.836556,0 16,0 C7.163444,0 0,7.163444 0,16 Z" id="路径备份-9" fill="#D3E9FF" fill-rule="nonzero"></path>
                    <path d="M9.25672726,20.3636364 L14.5454545,25.6523636 L8.19781818,32 L6.8741818,28.0349091 L2.9090909,26.7112727 L9.25672726,20.3636364 Z M22.7432727,20.3636364 L29.0909091,26.7112727 L25.1258182,28.0349091 L23.8021818,32 L17.4545455,25.6523636 L22.7432727,20.3636364 Z" id="形状备份-6" fill="#88B0EB" fill-rule="nonzero"></path>
                    <path d="M17.4545455,2.29381817 L27.1418182,7.88654544 C28.0418712,8.40619128 28.5963636,9.3665265 28.5963636,10.4058182 L28.5963636,21.5927273 C28.5963636,22.6327273 28.0421818,23.5927273 27.1418182,24.112 L17.4545455,29.7061818 C16.5543893,30.225541 15.4456107,30.225541 14.5454545,29.7061818 L4.8581818,24.1134546 C3.95812881,23.5938087 3.40363637,22.6334735 3.40363637,21.5941818 L3.40363637,10.4072727 C3.40363637,9.36727272 3.95781818,8.40727272 4.8581818,7.88799999 L14.5454545,2.29381817 C15.4456107,1.77445896 16.5543893,1.77445896 17.4545455,2.29381817 Z" id="路径备份-8" fill="#E7F0FF" fill-rule="nonzero"></path>
                    <polygon id="路径备份-7" fill="#A2C3F6" fill-rule="nonzero" opacity="0.200000003" points="17.8865455 14.1803636 17.8647273 14.1527273 22.4087273 6.192 19.5665455 4.38836363 16 13.0923636 12.3927273 4.29090907 9.5869091 6.18472725 14.1352727 14.1527273 14.1134545 14.1803636 4.128 11.1825455 4.10181818 14.7083636 13.5636364 16.2545455 13.584 16.3432727 4.57599999 22.7170909 7.34981816 25.0094545 14.9309091 18.0087273 14.2123636 29.0909091 17.7861818 29.0909091 17.0661818 18.0101818 24.5803637 24.9483636 27.4225455 22.7185454 18.4145455 16.3447273 18.4349091 16.256 27.8501818 14.7170909 27.7309091 11.2261818 17.8865455 14.1803636"></polygon>
                    <path d="M16.7272727,3.55345453 C16.2773962,3.29302346 15.7226038,3.29302346 15.2727273,3.55345453 L5.58545455,9.14763635 C5.136,9.40799997 4.8581818,9.88799997 4.8581818,10.4072727 L4.8581818,21.5941818 C4.8581818,22.1134545 5.13599997,22.5934546 5.58545455,22.8538182 L15.2727273,28.4465455 C15.7226038,28.7069765 16.2773962,28.7069765 16.7272727,28.4465455 L26.4145455,22.8538182 C26.864,22.5934546 27.1418182,22.1134545 27.1418182,21.5941818 L27.1418182,10.4072727 C27.1418182,9.88800001 26.864,9.40800001 26.4145455,9.14763635 L16.7272727,3.55345453 Z M17.4545455,2.29381817 L27.1418182,7.88654544 C28.0418712,8.40619128 28.5963636,9.3665265 28.5963636,10.4058182 L28.5963636,21.5927273 C28.5963636,22.6327273 28.0421818,23.5927273 27.1418182,24.112 L17.4545455,29.7061818 C16.5543893,30.225541 15.4456107,30.225541 14.5454545,29.7061818 L4.8581818,24.1134546 C3.95812881,23.5938087 3.40363637,22.6334735 3.40363637,21.5941818 L3.40363637,10.4072727 C3.40363637,9.36727272 3.95781818,8.40727272 4.8581818,7.88799999 L14.5454545,2.29381817 C15.4456107,1.77445896 16.5543893,1.77445896 17.4545455,2.29381817 Z" id="形状备份-5" fill="#A2C3F6" fill-rule="nonzero"></path>
                    <g id="编组备份-3" transform="translate(9.922727, 10.288571)">
                        <polygon id="路径" points="2.99572778 3.31659919 12.4477655 3.31659919 12.4477655 12.8 2.99572778 12.8"></polygon>
                        <path d="M6.01728084,5.44536001 C7.67239086,5.44536001 9.01412264,6.79443471 9.01412264,8.4586027 L9.01412264,12.0744939 L3.02043904,12.0744939 L3.02043904,8.4586027 C3.02043904,6.79443471 4.36217081,5.44536001 6.01728084,5.44536001 L6.01728084,5.44536001 Z M1.98156047,7.24469636 C1.88565104,7.56901076 1.82899558,7.90371174 1.81281446,8.24158978 L1.80799314,8.44942695 L1.80799314,12.0744939 L5.58592027e-08,12.0744939 L5.58592027e-08,9.35569369 C-0.000245607685,8.27672529 0.80984043,7.37060824 1.8797102,7.25315485 L1.98216314,7.24469636 L1.98156047,7.24469636 Z M10.0523985,7.24469636 C11.1659813,7.31272195 12.0343976,8.23758261 12.0345616,9.35569369 L12.0345616,12.0744939 L10.2260187,12.0744939 L10.2260187,8.44942695 C10.2260187,8.03073171 10.1657339,7.62653674 10.0523985,7.24469636 L10.0523985,7.24469636 Z M2.10014903,3.64602366 C2.92118787,3.64602366 3.58677134,4.31381564 3.58677134,5.13757879 C3.58677134,5.96134194 2.92118787,6.62913392 2.10014903,6.62913392 C1.2791102,6.62913392 0.613526724,5.96134194 0.613526724,5.13757879 C0.613526724,4.31381564 1.2791102,3.64602366 2.10014903,3.64602366 Z M9.93441264,3.64602366 C10.7554515,3.64602366 11.4210349,4.31381564 11.4210349,5.13757879 C11.4210349,5.96134194 10.7554515,6.62913392 9.93441264,6.62913392 C9.11337381,6.62913392 8.44779033,5.96134194 8.44779033,5.13757879 C8.44779033,4.31381564 9.11337381,3.64602366 9.93441264,3.64602366 Z M6.04087802,0 C7.37017898,0 8.44779033,1.08118701 8.44779033,2.41489879 C8.44779033,3.74861056 7.37017898,4.82979757 6.04087802,4.82979757 C4.71157705,4.82979757 3.6339657,3.74861056 3.6339657,2.41489879 C3.6339657,1.08118701 4.71157705,0 6.04087802,0 Z" id="形状" fill="#88B0EB" fill-rule="nonzero"></path>
                    </g>
                </g>
            </g>
        </g>
    </g>
</svg>