<?xml version="1.0" encoding="UTF-8"?>
<svg width="24px" height="24px" viewBox="0 0 24 24" version="1.1" xmlns="http://www.w3.org/2000/svg" xmlns:xlink="http://www.w3.org/1999/xlink">
    <title>编组</title>
    <defs>
        <linearGradient x1="26.3468951%" y1="26.0201785%" x2="87.2684154%" y2="90.1749147%" id="linearGradient-1">
            <stop stop-color="#FED0AE" offset="0%"></stop>
            <stop stop-color="#EE8C6C" offset="100%"></stop>
        </linearGradient>
        <linearGradient x1="26.3468951%" y1="26.0201785%" x2="87.2684154%" y2="90.1749147%" id="linearGradient-2">
            <stop stop-color="#FFFFFF" offset="0%"></stop>
            <stop stop-color="#FFFFFF" offset="100%"></stop>
        </linearGradient>
    </defs>
    <g id="页面-1" stroke="none" stroke-width="1" fill="none" fill-rule="evenodd">
        <g id="编组">
            <polygon id="路径" points="0 0 24 0 24 24 0 24"></polygon>
            <path d="M2.55381317,6.47913513 L6.75381317,9.27913513 L10.9398132,3.41913513 C11.1274981,3.15612116 11.4307002,3 11.7538132,3 C12.0769261,3 12.3801282,3.15612116 12.5678132,3.41913513 L16.7538132,9.27913513 L20.9538132,6.47913513 C21.278375,6.26320048 21.6988358,6.25555839 22.03103,6.45955618 C22.3632243,6.66355396 22.5465907,7.04200136 22.5008132,7.42913513 L20.8578132,21.3961351 C20.7984971,21.899628 20.371788,22.2791351 19.8648132,22.2791351 L3.64281317,22.2791351 C3.13583834,22.2791351 2.70912922,21.899628 2.64981317,21.3961351 L1.00681317,7.42813513 C0.961484774,7.04117542 1.14502623,6.66311944 1.47712416,6.4593955 C1.80922209,6.25567156 2.22940591,6.26337506 2.55381317,6.47913513 Z M11.7538132,16.2791351 C12.8583827,16.2791351 13.7538132,15.3837046 13.7538132,14.2791351 C13.7538132,13.1745656 12.8583827,12.2791351 11.7538132,12.2791351 C10.6492437,12.2791351 9.75381317,13.1745656 9.75381317,14.2791351 C9.75381317,15.3837046 10.6492437,16.2791351 11.7538132,16.2791351 Z" id="形状" fill="url(#linearGradient-2)" fill-rule="nonzero"></path>
        </g>
    </g>
</svg>