<?xml version="1.0" encoding="UTF-8"?>
<svg width="24px" height="24px" viewBox="0 0 24 24" version="1.1" xmlns="http://www.w3.org/2000/svg" xmlns:xlink="http://www.w3.org/1999/xlink">
    <title>disanfang</title>
    <g id="会员中心" stroke="none" stroke-width="1" fill="none" fill-rule="evenodd">
        <g id="会员中心-点套餐充值" transform="translate(-805.000000, -634.000000)" fill="#008CFF">
            <g id="编组" transform="translate(773.000000, 278.000000)">
                <path d="M44,356 C50.627417,356 56,361.372583 56,368 C56,374.627417 50.627417,380 44,380 C37.372583,380 32,374.627417 32,368 C32,361.372583 37.372583,356 44,356 Z M43.9970703,361.458008 L43.6733398,361.693848 C43.6660156,361.699707 42.8383789,362.297363 41.5566406,362.818848 C40.3071289,363.325684 39.0957031,363.352051 39.0839844,363.352051 L38.5419922,363.36084 L38.5419922,368.859863 C38.5419922,371.621094 42.0913086,374.540527 43.9985352,374.540527 C45.9072266,374.540527 49.456543,371.621094 49.456543,368.859863 L49.4560376,365.346975 C49.456001,365.264044 49.4559643,365.18212 49.4559278,365.101538 L49.4550781,363.36084 L49.4550781,363.36084 L48.9145508,363.352051 C48.9013672,363.352051 47.6914063,363.325684 46.4404297,362.818848 C45.1572266,362.298828 44.3310547,361.701172 44.3237305,361.693848 L43.9970703,361.458008 Z M46.9487305,365.900879 C47.1303711,366.083984 47.1303711,366.381348 46.9487305,366.564453 L43.4111328,370.102051 C43.3203125,370.192871 43.2001953,370.238281 43.0786133,370.238281 C42.9584961,370.238281 42.8383789,370.192871 42.7475586,370.102051 L41.0512695,368.405762 C40.8696289,368.224121 40.8696289,367.925293 41.0512695,367.742188 C41.2329102,367.560547 41.5317383,367.560547 41.7148438,367.742188 L43.0800781,369.107422 L44.1201172,368.065918 L46.2851563,365.900879 C46.4667969,365.719238 46.765625,365.719238 46.9487305,365.900879 Z" id="disanfang"></path>
            </g>
        </g>
    </g>
</svg>