<?xml version="1.0" encoding="UTF-8"?>
<svg width="48px" height="48px" viewBox="0 0 48 48" version="1.1" xmlns="http://www.w3.org/2000/svg" xmlns:xlink="http://www.w3.org/1999/xlink">
    <title>皇冠</title>
    <defs>
        <linearGradient x1="26.3468951%" y1="26.0201785%" x2="87.2684154%" y2="90.1749147%" id="linearGradient-1">
            <stop stop-color="#FFEABE" offset="0%"></stop>
            <stop stop-color="#FFBE70" offset="100%"></stop>
        </linearGradient>
        <linearGradient x1="9.41799524%" y1="7.4411239%" x2="69.4543709%" y2="66.2159836%" id="linearGradient-2">
            <stop stop-color="#FFAC4B" offset="0%"></stop>
            <stop stop-color="#DA6215" offset="100%"></stop>
        </linearGradient>
    </defs>
    <g id="页面-1" stroke="none" stroke-width="1" fill="none" fill-rule="evenodd">
        <g id="个人中心" transform="translate(-53.000000, -356.000000)">
            <g id="皇冠" transform="translate(53.000000, 356.000000)">
                <polygon id="路径" points="0 0 48 0 48 48 0 48"></polygon>
                <path d="M23.5076263,7 C23.8307393,7 24.1339414,7.15612116 24.3219116,7.41953472 L24.3219116,7.41953472 L33.2567098,19.9273984 L42.4615451,13.790841 C42.623826,13.6828737 42.8100816,13.6269795 42.9972914,13.6235768 C43.1845011,13.6201742 43.3726648,13.6692631 43.538762,13.771262 C43.7048591,13.8732609 43.8337493,14.0188722 43.915393,14.1873755 C43.9970367,14.3558788 44.0314339,14.5472741 44.0084743,14.7414414 L44.0084743,14.7414414 L40.7224944,42.6752703 C40.6928334,42.9270424 40.5713133,43.1478151 40.393827,43.3056403 C40.2164063,43.4634071 39.9830503,43.5582703 39.7296263,43.5582703 L39.7296263,43.5582703 L7.28562634,43.5582703 C7.03220238,43.5582703 6.79884641,43.4634071 6.62142571,43.3056403 C6.44393941,43.1478151 6.32241931,42.9270424 6.29277937,42.6754496 L6.29277937,42.6754496 L3.00683528,14.7399259 C2.98417108,14.5464461 3.01872435,14.3551921 3.1004559,14.1868427 C3.18218746,14.0184932 3.3110973,13.8730483 3.47714627,13.7711863 C3.64319523,13.6693243 3.83126567,13.6203192 4.01837477,13.6237496 C4.20548388,13.62718 4.39163165,13.6830459 4.55292615,13.7903205 L4.55292615,13.7903205 L13.7585429,19.9273984 L22.6936263,7.41913513 C22.8813113,7.15612116 23.1845134,7 23.5076263,7 Z" id="形状" stroke="#D6A942" stroke-width="2" fill="url(#linearGradient-1)" fill-rule="nonzero"></path>
                <g id="V" transform="translate(15.053711, 23.251953)" fill="url(#linearGradient-2)" fill-rule="nonzero">
                    <polygon id="路径" points="0 0 5.09179688 0 8.63671875 11.3330078 12.1279297 0 17.0693359 0 11.2255859 15.7480469 5.95117188 15.7480469"></polygon>
                </g>
            </g>
        </g>
    </g>
</svg>