<?xml version="1.0" encoding="UTF-8"?>
<svg width="37px" height="40px" viewBox="0 0 37 40" version="1.1" xmlns="http://www.w3.org/2000/svg" xmlns:xlink="http://www.w3.org/1999/xlink">
    <title>邀请好友</title>
    <g id="会员中心" stroke="none" stroke-width="1" fill="none" fill-rule="evenodd">
        <g id="邀请好友" transform="translate(-722.000000, -680.000000)" fill="#FE8B65" fill-rule="nonzero">
            <g id="编组-49" transform="translate(600.000000, 229.000000)">
                <g id="邀请好友" transform="translate(122.000000, 451.000000)">
                    <path d="M19.047619,25.2419048 L19.047619,40 L0,40 C0,31.5841905 6.82232381,24.7619048 15.2380952,24.7619048 C16.5535238,24.7619048 17.8300952,24.9285714 19.047619,25.2419048 Z M15.2380952,22.8571429 C8.92380952,22.8571429 3.80952381,17.7428571 3.80952381,11.4285714 C3.80952381,5.11428571 8.92380952,0 15.2380952,0 C21.552381,0 26.6666667,5.11428571 26.6666667,11.4285714 C26.6666667,17.7428571 21.552381,22.8571429 15.2380952,22.8571429 Z M26.6666667,30.4761905 L26.6666667,24.7619048 L30.4761905,24.7619048 L30.4761905,30.4761905 L36.1904762,30.4761905 L36.1904762,34.2857143 L30.4761905,34.2857143 L30.4761905,40 L26.6666667,40 L26.6666667,34.2857143 L20.952381,34.2857143 L20.952381,30.4761905 L26.6666667,30.4761905 Z" id="形状"></path>
                </g>
            </g>
        </g>
    </g>
</svg>