<?xml version="1.0" standalone="no"?><!DOCTYPE svg PUBLIC "-//W3C//DTD SVG 1.1//EN" "http://www.w3.org/Graphics/SVG/1.1/DTD/svg11.dtd"><svg class="icon" width="200px" height="153.87px" viewBox="0 0 1331 1024" version="1.1" xmlns="http://www.w3.org/2000/svg"><path fill="currentColor" d="M1228.8 870.4L747.52 133.12c0-10.24-10.24-20.48-30.72-30.72-40.96-30.72-102.4-20.48-133.12 30.72L102.4 870.4c-10.24 10.24-20.48 30.72-20.48 51.2 0 51.2 40.96 102.4 102.4 102.4h952.32c20.48 0 40.96-10.24 51.2-20.48 61.44-30.72 71.68-92.16 40.96-133.12zM665.6 921.6c-30.72 0-51.2-20.48-51.2-51.2s20.48-51.2 51.2-51.2 51.2 20.48 51.2 51.2-20.48 51.2-51.2 51.2zM716.8 665.6c0 30.72-20.48 51.2-51.2 51.2S614.4 696.32 614.4 665.6v-204.8c0-30.72 20.48-51.2 51.2-51.2s51.2 20.48 51.2 51.2v204.8z" /></svg>