<?xml version="1.0" standalone="no"?><!DOCTYPE svg PUBLIC "-//W3C//DTD SVG 1.1//EN" "http://www.w3.org/Graphics/SVG/1.1/DTD/svg11.dtd"><svg t="1709804980060" class="icon" viewBox="0 0 1024 1024" version="1.1" xmlns="http://www.w3.org/2000/svg" p-id="5869" xmlns:xlink="http://www.w3.org/1999/xlink" width="200" height="200"><path d="M482.88 0l446.464 84.992c21.312 4.736 36.48 23.68 36.48 45.44V595.2c0 93.376-46.72 180.544-124.352 232.32L482.88 1024l-358.528-196.352A279.296 279.296 0 0 1 0 595.2V130.432c0-21.76 15.168-40.704 36.48-45.44L482.88 0z m0 95.36l-389.76 72.384v427.52c0 62.272 31.104 120.384 82.88 154.88l306.88 161.92 306.944-161.92a186.24 186.24 0 0 0 82.88-154.88v-427.52L482.944 95.36z m0 183.936a93.12 93.12 0 0 1 46.656 173.696l-0.064 198.656H436.352V452.992a93.056 93.056 0 0 1 46.528-173.696z" p-id="5870" fill="#2c2c2c"></path></svg>