<?xml version="1.0" encoding="UTF-8"?>
<svg width="84px" height="14px" viewBox="0 0 84 14" version="1.1" xmlns="http://www.w3.org/2000/svg" xmlns:xlink="http://www.w3.org/1999/xlink">
    <title>箭头</title>
    <g id="会员" stroke="none" stroke-width="1" fill="none" fill-rule="evenodd">
        <g id="箭头" fill="#FE875C">
            <path d="M42.7525767,3.86008765 L47.5488085,9.34149539 C47.9124905,9.75713202 47.870373,10.3888946 47.4547364,10.7525767 C47.2724449,10.9120818 47.0384549,11 46.7962318,11 L37.2037682,11 C36.6514835,11 36.2037682,10.5522847 36.2037682,10 C36.2037682,9.75777685 36.2916865,9.52378689 36.4511915,9.34149539 L41.2474233,3.86008765 C41.6111054,3.44445102 42.242868,3.40233351 42.6585046,3.76601556 C42.6919154,3.79524999 42.7233423,3.82667688 42.7525767,3.86008765 Z" id="三角形" transform="translate(42.000000, 7.000000) rotate(-270.000000) translate(-42.000000, -7.000000) "></path>
            <path d="M0,5 L6,5 L6,9 L0,9 L0,5 Z M10,5 L16,5 L16,9 L10,9 L10,5 Z M20,5 L26,5 L26,9 L20,9 L20,5 Z" id="形状结合"></path>
            <path d="M58,5 L64,5 L64,9 L58,9 L58,5 Z M68,5 L74,5 L74,9 L68,9 L68,5 Z M78,5 L84,5 L84,9 L78,9 L78,5 Z" id="形状结合"></path>
        </g>
    </g>
</svg>