<?xml version="1.0" encoding="UTF-8"?>
<svg width="16px" height="16px" viewBox="0 0 16 16" version="1.1" xmlns="http://www.w3.org/2000/svg" xmlns:xlink="http://www.w3.org/1999/xlink">
    <title>链接</title>
    <g id="会员中心" stroke="none" stroke-width="1" fill="none" fill-rule="evenodd">
        <g id="邀请好友" transform="translate(-754.000000, -381.000000)" fill="#FFFFFF" fill-rule="nonzero">
            <g id="编组-49" transform="translate(600.000000, 229.000000)">
                <g id="编组-48" transform="translate(142.000000, 144.000000)">
                    <g id="链接" transform="translate(12.000000, 8.000000)">
                        <path d="M13.1260616,10.5629963 L11.8445652,9.28149984 L13.1260616,8 C14.5415797,6.58448538 14.5415797,4.2894813 13.1260616,2.87396327 C11.7105436,1.45845431 9.4155033,1.45845431 7.99998527,2.87396327 L6.71848884,4.15547784 L5.43698334,2.87396327 L6.71848884,1.59245777 C8.84172056,-0.530819258 12.2842357,-0.530819258 14.4075581,1.59245777 C16.5307898,3.71573481 16.5307898,7.15826811 14.4075581,9.28149984 L13.1260616,10.5629963 Z M10.5629782,13.1260798 L9.28148171,14.4075762 C7.15824999,16.5308079 3.71572575,16.5308079 1.59245777,14.4075762 C-0.530819258,12.2842539 -0.530819258,8.84173868 1.59245777,6.71850696 L2.87396327,5.43698334 L4.15546877,6.71850696 L2.87396327,8.0000034 C1.45844525,9.41552142 1.45844525,11.7105617 2.87396327,13.1260798 C4.2894813,14.5415072 6.58446725,14.5415072 7.99998527,13.1260798 L9.28148171,11.8444927 L10.5629782,13.1260798 Z M10.5629782,4.15547784 L11.8445652,5.43698334 L5.43698334,11.8444927 L4.15546877,10.5629963 L10.5629782,4.15547784 Z" id="形状"></path>
                    </g>
                </g>
            </g>
        </g>
    </g>
</svg>