<?xml version="1.0" encoding="UTF-8"?>
<svg width="120px" height="125px" viewBox="0 0 120 125" version="1.1" xmlns="http://www.w3.org/2000/svg" xmlns:xlink="http://www.w3.org/1999/xlink">
    <title>加载</title>
    <g id="个人中心" stroke="none" stroke-width="1" fill="none" fill-rule="evenodd">
        <g id="充值后提示-充值中" transform="translate(-315.000000, -167.000000)" fill="#5295FF" fill-rule="nonzero">
            <g id="加载" transform="translate(315.000000, 167.000000)">
                <rect id="矩形" opacity="0" x="0" y="2" width="120" height="120"></rect>
                <path d="M91.2472894,27.1054938 C91.2472894,30.7760987 94.2229026,33.751712 97.8935076,33.751712 C101.564113,33.751712 104.539726,30.7760987 104.539726,27.1054938 C104.539726,23.4348888 101.564113,20.4592756 97.8935076,20.4592756 C94.2229026,20.4592756 91.2472894,23.4348888 91.2472894,27.1054938 Z M103.592764,63.0229037 C103.592764,67.5536367 107.265649,71.2265216 111.796382,71.2265216 C116.327115,71.2265216 120,67.5536367 120,63.0229037 C120,58.4921706 116.327115,54.8192857 111.796382,54.8192857 C107.265649,54.8192857 103.592764,58.4921706 103.592764,63.0229037 Z M88.5472747,99.1203145 C88.5472747,104.453906 92.8710048,108.777636 98.2045962,108.777636 C103.538188,108.777636 107.861918,104.453906 107.861918,99.1203145 C107.861918,95.6700858 106.021243,92.4819428 103.033257,90.7568284 C100.045271,89.031714 96.3639211,89.031714 93.3759353,90.7568284 C90.3879496,92.4819428 88.5472747,95.6700858 88.5472747,99.1203145 L88.5472747,99.1203145 Z M50.9530552,113.555366 C50.9398734,117.561003 53.0692537,121.268043 56.5360466,123.274694 C60.0028395,125.281345 64.2779311,125.281345 67.744724,123.274694 C71.2115168,121.268043 73.3408972,117.561003 73.3277154,113.555366 C73.3408972,109.549729 71.2115168,105.842689 67.744724,103.836038 C64.2779311,101.829386 60.0028395,101.829386 56.5360466,103.836038 C53.0692537,105.842689 50.9398734,109.549729 50.9530552,113.555366 L50.9530552,113.555366 Z M14.088745,98.5529201 C14.088745,103.004796 16.4637927,107.1185 20.3192306,109.344438 C24.1746686,111.570376 28.924764,111.570376 32.780202,109.344438 C36.6356399,107.1185 39.0106876,103.004796 39.0106876,98.5529201 C39.0106876,94.1010438 36.6356399,89.9873405 32.780202,87.7614023 C28.924764,85.5354641 24.1746686,85.5354641 20.3192306,87.7614023 C16.4637927,89.9873405 14.088745,94.1010438 14.088745,98.5529201 Z M49.1707156,13.1888013 C49.1707156,20.4727751 55.0755431,26.3776026 62.3595169,26.3776026 C69.6434907,26.3776026 75.5483182,20.4727751 75.5483182,13.1888013 C75.5483182,5.90482747 69.6434907,0 62.3595169,0 C55.0755431,0 49.1707156,5.90482747 49.1707156,13.1888013 L49.1707156,13.1888013 Z M13.3607927,27.4164601 C13.3607927,32.1283651 15.8746862,36.4823448 19.9553156,38.8382973 C24.0359449,41.1942498 29.0634877,41.1942498 33.144117,38.8382973 C37.2247464,36.4823448 39.7385176,32.1283651 39.7385176,27.4164601 C39.7385176,20.1324526 33.8336628,14.2275977 26.5496552,14.2275977 C19.2656476,14.2275977 13.3607927,20.1324526 13.3607927,27.4164601 L13.3607927,27.4164601 Z M0,62.6081188 C0,69.5484398 5.62624184,75.1746817 12.5665629,75.1746817 C19.5068839,75.1746817 25.1331257,69.5484398 25.1331257,62.6081188 C25.1331257,55.6677978 19.5068839,50.0415559 12.5665629,50.0415559 C5.62624184,50.0415559 0,55.6677978 0,62.6081188 L0,62.6081188 Z" id="形状"></path>
            </g>
        </g>
    </g>
</svg>