<?xml version="1.0" encoding="UTF-8"?>
<svg width="32px" height="32px" viewBox="0 0 32 32" version="1.1" xmlns="http://www.w3.org/2000/svg" xmlns:xlink="http://www.w3.org/1999/xlink">
    <title>加载</title>
    <g id="个人中心" stroke="none" stroke-width="1" fill="none" fill-rule="evenodd">
        <g id="充值后提示-充值中" transform="translate(-351.000000, -459.000000)" fill="#5295FF">
            <path d="M367,459 C375.836556,459 383,466.163444 383,475 C383,483.836556 375.836556,491 367,491 C358.163444,491 351,483.836556 351,475 C351,466.163444 358.163444,459 367,459 Z M366.63875,482.040059 C366.244833,482.033146 365.865683,482.189876 365.591621,482.47291 C365.304473,482.765762 365.15877,483.110039 365.15877,483.52002 C365.150816,483.914133 365.30771,484.293683 365.591621,484.567148 C365.884473,484.854297 366.22875,485 366.63875,485 C367.033146,485.007299 367.412873,484.850539 367.687266,484.567148 C367.974414,484.275723 368.118711,483.93002 368.118711,483.52002 C368.12599,483.126322 367.969791,482.747212 367.687285,482.47291 C367.395879,482.185762 367.04875,482.040059 366.63875,482.040059 Z M372.401484,479.660098 C372.007567,479.653185 371.628417,479.809915 371.354355,480.092949 C371.067207,480.385781 370.921504,480.730078 370.921504,481.140078 C370.914597,481.533988 371.071326,481.91313 371.354355,482.187188 C371.647207,482.474336 371.991484,482.620039 372.401484,482.620039 C372.794914,482.623557 373.172308,482.464331 373.444316,482.180059 C373.728313,481.907851 373.887492,481.530579 373.884316,481.137207 C373.890724,480.743657 373.732834,480.365239 373.448613,480.092949 C373.157188,479.805801 372.811484,479.660098 372.401484,479.660098 Z M360.875996,479.655801 C360.4818,479.648119 360.102088,479.80435 359.827441,480.087227 C359.540313,480.380078 359.396016,480.724355 359.396016,481.134355 C359.392131,481.527575 359.550835,481.904937 359.83459,482.177188 C360.106793,482.46118 360.484057,482.620358 360.877422,482.617188 C361.271605,482.624858 361.6513,482.468628 361.925938,482.185762 C362.213086,481.89291 362.357383,481.547207 362.357383,481.137207 C362.364662,480.7435 362.208455,480.364381 361.925938,480.090078 C361.635977,479.800098 361.285977,479.655801 360.875996,479.655801 Z M374.791445,473.890195 C374.397528,473.883283 374.018378,474.040012 373.744316,474.323047 C373.455742,474.614473 373.311465,474.960176 373.311465,475.370176 C373.304553,475.764093 373.461282,476.143243 373.744316,476.417305 C374.037168,476.704434 374.384297,476.850137 374.791445,476.850137 C375.18473,476.858166 375.56342,476.701204 375.835703,476.417305 C376.124277,476.125879 376.268555,475.780156 376.268555,475.370176 C376.275467,474.976259 376.118738,474.597109 375.835703,474.323047 C375.548574,474.035898 375.197148,473.890195 374.791445,473.890195 Z M358.491758,473.891621 C358.097841,473.884709 357.718691,474.041438 357.444629,474.324473 C357.15748,474.615898 357.011777,474.961602 357.011777,475.371602 C357.003697,475.765322 357.160643,476.14448 357.444629,476.417305 C357.736055,476.704434 358.081758,476.850137 358.491758,476.850137 C358.885961,476.858618 359.265705,476.701647 359.538867,476.417305 C359.826016,476.125879 359.971719,475.780156 359.971719,475.370176 C359.978631,474.976259 359.821902,474.597109 359.538867,474.323047 C359.248887,474.037324 358.901738,473.891621 358.491758,473.891621 Z M372.404336,467.01748 C371.713058,467.007292 371.048458,467.283987 370.568652,467.781738 C370.067246,468.290293 369.814395,468.900293 369.814395,469.610273 C369.801989,470.299567 370.074942,470.963355 370.568652,471.444531 C371.074355,471.947383 371.687207,472.200234 372.40291,472.200234 C373.090384,472.210345 373.75171,471.937033 374.231465,471.444531 C374.741426,470.940254 374.995723,470.327402 374.995723,469.610273 C374.995723,468.897422 374.741445,468.287441 374.231445,467.783164 C373.724316,467.273164 373.114336,467.01748 372.404336,467.01748 Z M360.87457,467.757461 C360.367441,467.757461 359.933145,467.937441 359.567441,468.303164 C359.203164,468.667441 359.023164,469.103145 359.023164,469.610273 C359.016029,470.102501 359.213067,470.575704 359.567441,470.917402 C359.931719,471.283105 360.367422,471.463105 360.87457,471.463105 C361.383125,471.463105 361.820254,471.280254 362.183105,470.915957 C362.545957,470.550254 362.727383,470.115977 362.727383,469.607422 C362.727383,469.100293 362.545957,468.663145 362.183105,468.300293 C361.817402,467.937441 361.383125,467.757461 360.87457,467.757461 Z M366.640156,465.000352 C366.049085,464.990016 365.479969,465.224164 365.067305,465.647461 C364.637305,466.083184 364.41875,466.603164 364.41875,467.223164 C364.407373,467.81513 364.64225,468.385255 365.067305,468.797422 C365.501582,469.227402 366.021582,469.444551 366.641563,469.444551 C367.233219,469.455784 367.803114,469.221518 368.21582,468.797422 C368.647246,468.363125 368.864375,467.843145 368.864375,467.223164 C368.864375,466.603164 368.647246,466.080313 368.21582,465.647461 C367.780137,465.2175 367.257285,465.000352 366.640156,465.000352 Z" id="加载"></path>
        </g>
    </g>
</svg>