<?xml version="1.0" encoding="UTF-8"?>
<svg width="80px" height="80px" viewBox="0 0 80 80" version="1.1" xmlns="http://www.w3.org/2000/svg" xmlns:xlink="http://www.w3.org/1999/xlink">
    <title>赚金币</title>
    <defs>
        <linearGradient x1="50%" y1="0%" x2="50%" y2="100%" id="linearGradient-1">
            <stop stop-color="#F8D3C3" offset="0%"></stop>
            <stop stop-color="#FA7B4D" offset="100%"></stop>
        </linearGradient>
        <circle id="path-2" cx="40" cy="40" r="40"></circle>
        <path d="M0,21.8115942 C0,32.9613428 9.03865715,42 20.1884058,42 C31.3381544,42 40.3768116,32.9613428 40.3768116,21.8115942 C40.3768116,10.6618456 31.3381544,1.62318841 20.1884058,1.62318841 C9.03865715,1.62318841 0,10.6618456 0,21.8115942 Z" id="path-4"></path>
        <filter x="-3.7%" y="-3.7%" width="107.4%" height="107.4%" filterUnits="objectBoundingBox" id="filter-5">
            <feGaussianBlur stdDeviation="1.5" in="SourceAlpha" result="shadowBlurInner1"></feGaussianBlur>
            <feOffset dx="0" dy="0" in="shadowBlurInner1" result="shadowOffsetInner1"></feOffset>
            <feComposite in="shadowOffsetInner1" in2="SourceAlpha" operator="arithmetic" k2="-1" k3="1" result="shadowInnerInner1"></feComposite>
            <feColorMatrix values="0 0 0 0 1   0 0 0 0 1   0 0 0 0 1  0 0 0 0.5 0" type="matrix" in="shadowInnerInner1"></feColorMatrix>
        </filter>
        <linearGradient x1="-3.88578059e-14%" y1="-1.56819002e-13%" x2="100%" y2="100%" id="linearGradient-6">
            <stop stop-color="#FFE7DF" offset="0%"></stop>
            <stop stop-color="#FFB69C" offset="100%"></stop>
        </linearGradient>
        <path d="M0,20.1884058 C0,31.3381544 9.03865715,40.3768116 20.1884058,40.3768116 C31.3381544,40.3768116 40.3768116,31.3381544 40.3768116,20.1884058 C40.3768116,9.03865715 31.3381544,0 20.1884058,0 C9.03865715,0 0,9.03865715 0,20.1884058 Z" id="path-7"></path>
        <filter x="-3.7%" y="-3.7%" width="107.4%" height="107.4%" filterUnits="objectBoundingBox" id="filter-8">
            <feGaussianBlur stdDeviation="1.5" in="SourceAlpha" result="shadowBlurInner1"></feGaussianBlur>
            <feOffset dx="0" dy="0" in="shadowBlurInner1" result="shadowOffsetInner1"></feOffset>
            <feComposite in="shadowOffsetInner1" in2="SourceAlpha" operator="arithmetic" k2="-1" k3="1" result="shadowInnerInner1"></feComposite>
            <feColorMatrix values="0 0 0 0 1   0 0 0 0 1   0 0 0 0 1  0 0 0 0.5 0" type="matrix" in="shadowInnerInner1"></feColorMatrix>
        </filter>
        <linearGradient x1="2.65142989e-13%" y1="-2.09477354e-13%" x2="100%" y2="100%" id="linearGradient-9">
            <stop stop-color="#FED7C0" offset="0%"></stop>
            <stop stop-color="#FFEFE6" offset="100%"></stop>
        </linearGradient>
        <path d="M19.2808406,30.7983768 L22.0885507,30.7983768 L22.0885507,28.3802319 C24.9441449,27.8518841 26.359971,26.1043188 26.359971,23.8689855 C26.359971,19.499971 19.1607246,19.6014203 19.1607246,17.5491014 C19.1607246,16.5329855 19.8327246,16.1468696 21.1044928,16.1468696 C22.2084638,16.1468696 23.0724058,16.5329855 24.0562609,17.2849275 L26.168029,15.2121159 C25.1121449,14.2367826 23.8403768,13.5256232 22.0885507,13.302029 L22.0885507,10.9447536 L19.2808406,10.9447536 L19.2808406,13.3426087 C16.6650725,13.7897971 15.1051884,15.3951304 15.1051884,17.7116232 C15.1051884,21.8570435 22.2804928,21.9181159 22.2804928,24.1331594 C22.2804928,25.1287826 21.6324348,25.6165507 20.1447826,25.6165507 C18.8967536,25.6165507 17.6970145,25.1898551 16.2811884,24.2753913 L14.4092464,26.7138261 C15.7532464,27.729942 17.6728696,28.3394493 19.2808406,28.5021739 L19.2808406,30.7983768 L19.2808406,30.7983768 Z" id="path-10"></path>
        <filter x="-29.3%" y="-12.6%" width="158.6%" height="135.3%" filterUnits="objectBoundingBox" id="filter-11">
            <feOffset dx="0" dy="1" in="SourceAlpha" result="shadowOffsetOuter1"></feOffset>
            <feGaussianBlur stdDeviation="1" in="shadowOffsetOuter1" result="shadowBlurOuter1"></feGaussianBlur>
            <feColorMatrix values="0 0 0 0 1   0 0 0 0 0.498039216   0 0 0 0 0.176470588  0 0 0 0.5 0" type="matrix" in="shadowBlurOuter1"></feColorMatrix>
        </filter>
    </defs>
    <g id="会员" stroke="none" stroke-width="1" fill="none" fill-rule="evenodd">
        <g id="会员中心" transform="translate(-426.000000, -705.000000)">
            <g id="赚金币" transform="translate(426.000000, 705.000000)">
                <g id="编组-15">
                    <mask id="mask-3" fill="white">
                        <use xlink:href="#path-2"></use>
                    </mask>
                    <use id="椭圆形" fill="url(#linearGradient-1)" xlink:href="#path-2"></use>
                </g>
                <g id="编组-27" transform="translate(20.000000, 19.000000)" fill-rule="nonzero">
                    <g id="路径">
                        <use fill="#FF9E73" xlink:href="#path-4"></use>
                        <use fill="black" fill-opacity="1" filter="url(#filter-5)" xlink:href="#path-4"></use>
                    </g>
                    <g id="路径">
                        <use fill="url(#linearGradient-6)" xlink:href="#path-7"></use>
                        <use fill="black" fill-opacity="1" filter="url(#filter-8)" xlink:href="#path-7"></use>
                    </g>
                    <path d="M20.1884058,34.4927536 C28.088479,34.4927536 34.4927536,28.088479 34.4927536,20.1884058 C34.4927536,12.2883326 28.088479,5.88405797 20.1884058,5.88405797 C12.2883326,5.88405797 5.88405797,12.2883326 5.88405797,20.1884058 C5.88405797,28.088479 12.2883326,34.4927536 20.1884058,34.4927536 Z" id="路径" fill="url(#linearGradient-9)"></path>
                    <path d="M20.1884058,4.19330435 C29.0163188,4.19330435 36.1835072,11.3604928 36.1835072,20.1884058 C36.1835072,29.0163188 29.0163188,36.1835072 20.1884058,36.1835072 C11.3604928,36.1835072 4.19330435,29.0163188 4.19330435,20.1884058 C4.19330435,11.3604928 11.3604928,4.19330435 20.1884058,4.19330435 Z M20.1884058,5.88405797 C12.2936232,5.88405797 5.88405797,12.2936232 5.88405797,20.1884058 C5.88405797,28.0831884 12.2936232,34.4927536 20.1884058,34.4927536 C28.0831884,34.4927536 34.4927536,28.0831884 34.4927536,20.1884058 C34.4927536,12.2936232 28.0831884,5.88405797 20.1884058,5.88405797 Z" id="形状" fill="#FA7B4D"></path>
                    <path d="M20.1884058,4.19330435 C29.0163188,4.19330435 36.1835072,11.3604928 36.1835072,20.1884058 C36.1835072,29.0163188 29.0163188,36.1835072 20.1884058,36.1835072 C11.3604928,36.1835072 4.19330435,29.0163188 4.19330435,20.1884058 C4.19330435,11.3604928 11.3604928,4.19330435 20.1884058,4.19330435 Z M20.1884058,5.88405797 C12.2936232,5.88405797 5.88405797,12.2936232 5.88405797,20.1884058 C5.88405797,28.0831884 12.2936232,34.4927536 20.1884058,34.4927536 C28.0831884,34.4927536 34.4927536,28.0831884 34.4927536,20.1884058 C34.4927536,12.2936232 28.0831884,5.88405797 20.1884058,5.88405797 Z" id="形状" fill="#FFA382"></path>
                    <g id="路径">
                        <use fill="black" fill-opacity="1" filter="url(#filter-11)" xlink:href="#path-10"></use>
                        <use fill="#F97950" xlink:href="#path-10"></use>
                    </g>
                    <path d="M19.2808406,29.7838841 L22.0885507,29.7838841 L22.0885507,27.3657391 C24.9441449,26.8373913 26.359971,25.0898261 26.359971,22.8544928 C26.359971,18.4854783 19.1607246,18.5869275 19.1607246,16.5346087 C19.1607246,15.5184928 19.8327246,15.1323768 21.1044928,15.1323768 C22.2084638,15.1323768 23.0724058,15.5184928 24.0562609,16.2704348 L26.168029,14.1976232 C25.1121449,13.2222899 23.8403768,12.5111304 22.0885507,12.2875362 L22.0885507,9.93026087 L19.2808406,9.93026087 L19.2808406,12.3281159 C16.6650725,12.7753043 15.1051884,14.3806377 15.1051884,16.6971304 C15.1051884,20.8425507 22.2804928,20.9036232 22.2804928,23.1186667 C22.2804928,24.1142899 21.6324348,24.602058 20.1447826,24.602058 C18.8967536,24.602058 17.6970145,24.1753623 16.2811884,23.2608986 L14.4092464,25.6993333 C15.7532464,26.7154493 17.6728696,27.3249565 19.2808406,27.4876812 L19.2808406,29.7838841 L19.2808406,29.7838841 Z" id="路径" fill="#FF9A75"></path>
                    <path d="M30.5512464,10.332 C29.9882234,9.74573619 29.9831395,8.82117364 30.5396812,8.22875362 C30.6025797,8.15327536 30.6376812,8.11594203 30.6376812,8.11594203 L30.6376812,8.10863768 C30.635333,8.10458251 30.6362791,8.09942223 30.639913,8.09646377 C30.6434783,8.09342289 30.6487246,8.09342289 30.6522899,8.09646377 C34.0398841,11.0291594 36.1835072,15.3604348 36.1835072,20.1884058 C36.1835072,29.0163188 29.0163188,36.1835072 20.1884058,36.1835072 C16.4976812,36.1835072 13.0971014,34.9308116 10.3894203,32.8277681 C10.081662,32.5837997 10.0109001,32.1453221 10.2262899,31.8169275 L10.2244638,31.815913 C10.3650237,31.6017276 10.5883816,31.4557015 10.8409625,31.4128605 C11.0935435,31.3700195 11.3525599,31.4342287 11.5558841,31.590087 C13.9549565,33.411913 16.9464928,34.4927536 20.1884058,34.4927536 C28.0831884,34.4927536 34.4927536,28.0831884 34.4927536,20.1884058 C34.4927536,16.3696522 32.9931304,12.8984638 30.5512464,10.332 Z" id="路径" fill="#FA7B4D"></path>
                    <path d="M34.1563478,23.2834203 C34.2076403,23.0427098 34.3575923,22.8345715 34.5696784,22.7097038 C34.7817645,22.5848361 35.0365173,22.5547006 35.2718841,22.6266377 C35.2909565,22.6329275 35.310029,22.6386087 35.3288986,22.6446957 C35.6946754,22.7599867 35.9140744,23.1331578 35.8369565,23.5088406 C34.9026087,27.9318261 32.1373043,31.6826087 28.3729275,33.9309275 C28.0109213,34.1440054 27.5461271,34.045394 27.3018261,33.7036812 L27.3026377,33.7028696 C27.1603733,33.5037287 27.1080678,33.254085 27.1584279,33.0145853 C27.208788,32.7750856 27.3572049,32.5676483 27.5676232,32.4426667 C30.867971,30.4493913 33.2997101,27.1608116 34.1563478,23.2834203 L34.1563478,23.2834203 Z" id="路径" fill="#FF9A75"></path>
                </g>
            </g>
        </g>
    </g>
</svg>