<?xml version="1.0" encoding="UTF-8"?>
<svg width="43px" height="40px" viewBox="0 0 43 40" version="1.1" xmlns="http://www.w3.org/2000/svg" xmlns:xlink="http://www.w3.org/1999/xlink">
    <title>获得奖励</title>
    <g id="会员中心" stroke="none" stroke-width="1" fill="none" fill-rule="evenodd">
        <g id="邀请好友" transform="translate(-1159.000000, -680.000000)" fill="#FE8B65" fill-rule="nonzero">
            <g id="编组-49" transform="translate(600.000000, 229.000000)">
                <g id="获得奖励" transform="translate(559.000000, 451.000000)">
                    <path d="M37.8947989,23.1578859 L37.8947989,37.8947357 C37.8947989,39.0574732 36.9522721,40 35.7895346,40 L6.3157928,40 C5.15309745,40 4.21052853,39.0574732 4.21052853,37.8947357 L4.21052853,23.1578859 L37.8947989,23.1578859 Z M26.3158454,0 C30.3853213,0 33.6842704,3.2989491 33.6842704,7.36842493 C33.6842704,8.49937289 33.4295334,9.57082609 32.9741647,10.5285108 L40.0000632,10.5263213 C41.1628006,10.5263213 42.1053274,11.4688692 42.1053274,12.6315856 L42.1053274,18.9473573 C42.1053274,20.1100948 41.1628006,21.0526216 40.0000632,21.0526216 L2.10526427,21.0526216 C0.942568917,21.0526216 0,20.1100948 0,18.9473573 L0,12.6315856 C0,11.4688692 0.942568917,10.5263213 2.10526427,10.5263213 L9.13118375,10.5285108 C8.6758572,9.57082609 8.42105706,8.49937289 8.42105706,7.36842493 C8.42105706,3.2989491 11.7200272,0 15.789482,0 C17.8526831,0 19.7177367,0.847916236 21.0552111,2.21427485 C22.3876328,0.847916236 24.2526864,0 26.3158454,0 Z M15.789482,4.21052853 C14.045439,4.21052853 12.6315856,5.62436085 12.6315856,7.36842493 C12.6315856,9.00987843 13.8839863,10.3588476 15.4853555,10.5118582 L15.789482,10.5263213 L18.9474205,10.5263213 L18.9474205,7.36842493 C18.9474205,5.72695038 17.6949988,4.3780023 16.0936085,4.22497064 L15.789482,4.21052853 Z M26.3158454,4.21052853 L26.0116347,4.22497064 C24.5103708,4.3684444 23.3158439,5.56301345 23.1722648,7.06429845 L23.157949,7.36842493 L23.157949,10.5263213 L26.3158454,10.5263213 L26.6198456,10.5118582 C28.2213201,10.3588476 29.4737418,9.00987843 29.4737418,7.36842493 C29.4737418,5.72695038 28.2213201,4.3780023 26.6198456,4.22497064 L26.3158454,4.21052853 Z" id="形状"></path>
                </g>
            </g>
        </g>
    </g>
</svg>