<?xml version="1.0" encoding="UTF-8"?>
<svg width="120px" height="120px" viewBox="0 0 120 120" version="1.1" xmlns="http://www.w3.org/2000/svg" xmlns:xlink="http://www.w3.org/1999/xlink">
    <title>失败</title>
    <g id="个人中心" stroke="none" stroke-width="1" fill="none" fill-rule="evenodd">
        <g id="充值后提示-充值失败" transform="translate(-319.000000, -167.000000)">
            <g id="失败" transform="translate(319.000000, 167.000000)">
                <circle id="椭圆形" fill="#FFE5E5" cx="60" cy="60" r="60"></circle>
                <g id="编组-3" transform="translate(53.000000, 25.000000)" fill="#FF5252">
                    <path d="M7,0 C10.7201596,-6.83382233e-16 13.7359448,3.01578523 13.7359448,6.73594483 C13.7359448,6.82226321 13.7342856,6.90857362 13.7309681,6.99482822 L12.1921656,47.0036941 C12.0848613,49.7936059 9.7919746,52 7,52 C4.2080254,52 1.91513869,49.7936059 1.80783439,47.0036941 L0.269031855,6.99482822 C0.126054506,3.27741716 3.02370555,0.147954035 6.74111661,0.00497668692 C6.82737122,0.00165920211 6.91368162,1.58564291e-17 7,0 Z" id="矩形"></path>
                    <rect id="矩形" x="1" y="59" width="12" height="12" rx="6"></rect>
                </g>
            </g>
        </g>
    </g>
</svg>