<?xml version="1.0" encoding="UTF-8"?>
<svg width="120px" height="120px" viewBox="0 0 120 120" version="1.1" xmlns="http://www.w3.org/2000/svg" xmlns:xlink="http://www.w3.org/1999/xlink">
    <title>成功</title>
    <g id="个人中心" stroke="none" stroke-width="1" fill="none" fill-rule="evenodd">
        <g id="充值后提示-充值成功" transform="translate(-319.000000, -167.000000)">
            <g id="成功" transform="translate(319.000000, 167.000000)">
                <g id="编组-2" fill="#C6F9D0">
                    <circle id="椭圆形" cx="60" cy="60" r="60"></circle>
                </g>
                <path d="M94.1372673,36.6384049 C96.4564559,38.8780193 96.5209635,42.5736594 94.2813491,44.892848 L57.7847233,82.6862104 C57.554387,82.9247306 57.3086498,83.1394022 57.0505929,83.3301713 C56.8695382,83.594069 56.6634674,83.8473049 56.4329964,84.0859645 C54.193382,86.4051532 50.4977419,86.4696608 48.1785533,84.2300464 L25.7824867,62.6024163 C23.4632981,60.3628019 23.3987905,56.6671618 25.6384049,54.3479732 C27.8780193,52.0287845 31.5736594,51.9642769 33.892848,54.2038913 L52.089,71.776 L85.8828241,36.7824867 C88.1224386,34.4632981 91.8180786,34.3987905 94.1372673,36.6384049 Z" id="形状结合" fill="#36CE53"></path>
            </g>
        </g>
    </g>
</svg>