<?xml version="1.0" encoding="UTF-8"?>
<svg width="12px" height="12px" viewBox="0 0 12 12" version="1.1" xmlns="http://www.w3.org/2000/svg" xmlns:xlink="http://www.w3.org/1999/xlink">
    <title>说明</title>
    <g id="会员中心" stroke="none" stroke-width="1" fill="none" fill-rule="evenodd">
        <g id="说明" fill="#666666" fill-rule="nonzero">
            <path d="M6,12 C2.68629,12 0,9.31368 0,6 C0,2.68629 2.68629,0 6,0 C9.31368,0 12,2.68629 12,6 C12,9.31368 9.31368,12 6,12 Z M6,10.8 C8.65098,10.8 10.8,8.65098 10.8,6 C10.8,3.349032 8.65098,1.2 6,1.2 C3.349032,1.2 1.2,3.349032 1.2,6 C1.2,8.65098 3.349032,10.8 6,10.8 Z M6.6,5.1 L6.6,7.8 L7.2,7.8 L7.2,9 L4.8,9 L4.8,7.8 L5.4,7.8 L5.4,6.3 L4.8,6.3 L4.8,5.1 L6.6,5.1 Z M6.9,3.6 C6.9,4.097058 6.49704,4.5 6,4.5 C5.50296,4.5 5.1,4.097058 5.1,3.6 C5.1,3.102942 5.50296,2.7 6,2.7 C6.49704,2.7 6.9,3.102942 6.9,3.6 Z" id="形状"></path>
        </g>
    </g>
</svg>