<?xml version="1.0" standalone="no"?><!DOCTYPE svg PUBLIC "-//W3C//DTD SVG 1.1//EN" "http://www.w3.org/Graphics/SVG/1.1/DTD/svg11.dtd"><svg class="icon" width="200px" height="200.00px" viewBox="0 0 1024 1024" version="1.1" xmlns="http://www.w3.org/2000/svg"><path fill="#999999" d="M759.3984 29.7984H246.272c-48.2304 0-87.3472 39.1168-87.3472 87.3472v791.552c0 48.2304 39.1168 87.3472 87.3472 87.3472h513.1264c48.2304 0 87.3472-39.1168 87.3472-87.3472V117.1456c0-48.2304-39.1168-87.3472-87.3472-87.3472zM418.304 92.0576h169.0624a15.3088 15.3088 0 0 1 0 30.5152H418.304a15.3088 15.3088 0 0 1 0-30.5152z m84.5824 802.6112a61.5424 61.5424 0 1 1 0-123.0848 61.5424 61.5424 0 0 1 0 123.0848z m279.9616-227.6352c0 12.0832-9.728 21.8112-21.8112 21.8112H244.6336a21.76 21.76 0 0 1-21.8112-21.8112v-464.896c0-12.0832 9.728-21.8112 21.8112-21.8112h516.3008c12.0832 0 21.8112 9.728 21.8112 21.8112v464.896h0.1024z"  /></svg>