<?xml version="1.0" encoding="UTF-8"?>
<svg width="336px" height="120px" viewBox="0 0 336 120" version="1.1" xmlns="http://www.w3.org/2000/svg" xmlns:xlink="http://www.w3.org/1999/xlink">
    <title>编组 10</title>
    <defs>
        <linearGradient x1="100%" y1="55.8706915%" x2="3.90312782e-15%" y2="43.622449%" id="linearGradient-1">
            <stop stop-color="#FF7E4E" offset="0%"></stop>
            <stop stop-color="#FFB183" offset="100%"></stop>
        </linearGradient>
        <rect id="path-2" x="0" y="0" width="336" height="120" rx="8"></rect>
    </defs>
    <g id="会员中心弃用" stroke="none" stroke-width="1" fill="none" fill-rule="evenodd">
        <g id="账号设置2" transform="translate(-251.000000, -348.000000)">
            <g id="编组-10" transform="translate(251.000000, 348.000000)">
                <mask id="mask-3" fill="white">
                    <use xlink:href="#path-2"></use>
                </mask>
                <use id="矩形" fill="url(#linearGradient-1)" xlink:href="#path-2"></use>
                <g id="编组" mask="url(#mask-3)" opacity="0.100000001">
                    <g transform="translate(256.000000, 0.000000)" id="会员">
                        <rect id="矩形" fill="#FFFFFF" fill-rule="nonzero" opacity="0" x="0" y="0" width="120" height="120"></rect>
                        <path d="M59.9998685,30.0845071 C65.5117279,30.0845071 69.9799727,25.6199663 69.9799727,20.1126761 C69.9799727,14.6053859 65.5117279,10.1408451 59.9998685,10.1408451 C54.4880092,10.1408451 50.0197644,14.6053859 50.0197644,20.1126761 C50.0197644,25.6199663 54.4880092,30.0845071 59.9998685,30.0845071 Z M59.9998685,25.0985916 C58.2169127,25.0988643 56.5692768,24.1486138 55.67772,22.6058542 C54.7861633,21.0630946 54.7861633,19.1622576 55.67772,17.619498 C56.5692768,16.0767383 58.2169127,15.1264879 59.9998685,15.1267605 C62.7554999,15.1271821 64.9891567,17.359329 64.9891567,20.1126761 C64.9891567,22.8660231 62.7554999,25.09817 59.9998685,25.0985916 L59.9998685,25.0985916 Z M36.3495167,62.1888169 C37.3639663,62.7414849 38.6254774,62.5259061 39.3984386,61.6677887 L59.9998685,38.7973944 L80.6012985,61.6677887 C81.3742597,62.5259061 82.6357708,62.7414849 83.6502204,62.1888169 L106.6344,49.6617043 L97.7920279,104.873239 L22.2176893,104.873239 L20.5659821,94.1260986 L86.4720948,94.1260986 C87.8500597,94.1260986 88.9671209,93.0099634 88.9671209,91.6331408 C88.9671209,90.2563182 87.8500597,89.140183 86.4720948,89.140183 L17.6592767,89.140183 C16.9314973,89.1404597 16.2401158,89.4582262 15.7663253,90.0102042 C15.2925348,90.5621821 15.0835685,91.2933436 15.194191,92.0120704 L17.6143662,107.745127 C17.8015036,108.96098 18.8482844,109.859155 20.079452,109.859155 L99.9202851,109.859155 C101.145658,109.859155 102.189267,108.969062 102.382876,107.760084 L112.36298,45.4361409 C112.513243,44.4974716 112.116161,43.5551167 111.339201,43.0065056 C110.56224,42.4578945 109.540648,42.3985253 108.705272,42.8534366 L82.9915335,56.868845 L61.8536729,33.4026339 C61.3805347,32.8778246 60.7067927,32.5781913 59.9998685,32.5781913 C59.2929444,32.5781913 58.6192024,32.8778246 58.1460642,33.4026339 L37.0082036,56.868845 L11.2969603,42.8534366 C10.4594505,42.3962584 9.43430351,42.4564782 8.65617885,43.008563 C7.87805419,43.5606478 7.48328496,44.5078683 7.63925221,45.4486056 L13.0384885,78.0141127 C13.3041276,79.3303439 14.5653792,80.1999005 15.891224,79.980901 C17.2170687,79.7619014 18.1311324,78.533032 17.9586798,77.2014084 L13.3977723,49.6791549 L36.3520118,62.1888169 L36.3495167,62.1888169 Z" id="形状" fill="#FFFFFF" fill-rule="nonzero"></path>
                    </g>
                </g>
            </g>
        </g>
    </g>
</svg>