<?xml version="1.0" encoding="UTF-8"?>
<svg width="336px" height="120px" viewBox="0 0 336 120" version="1.1" xmlns="http://www.w3.org/2000/svg" xmlns:xlink="http://www.w3.org/1999/xlink">
    <title>赚金币</title>
    <defs>
        <linearGradient x1="2.77772597e-13%" y1="43.622449%" x2="100%" y2="56.377551%" id="linearGradient-1">
            <stop stop-color="#BFD9FF" offset="0%"></stop>
            <stop stop-color="#88B0EB" offset="100%"></stop>
        </linearGradient>
        <rect id="path-2" x="0" y="0" width="336" height="120" rx="8"></rect>
    </defs>
    <g id="会员中心弃用" stroke="none" stroke-width="1" fill="none" fill-rule="evenodd">
        <g id="账号设置2" transform="translate(-1333.000000, -348.000000)">
            <g id="路径-+-矩形-蒙版" transform="translate(1333.000000, 348.000000)">
                <g id="蒙版">
                    <mask id="mask-3" fill="white">
                        <use xlink:href="#path-2"></use>
                    </mask>
                    <use id="矩形" fill="url(#linearGradient-1)" xlink:href="#path-2"></use>
                </g>
                <path d="M316,2.5 C331.878194,2.5 346.253194,8.93590283 356.658646,19.3413545 C367.064097,29.7468061 373.5,44.1218063 373.5,60 C373.5,75.8781937 367.064097,90.2531939 356.658646,100.658646 C346.253194,111.064097 331.878194,117.5 316,117.5 C300.121806,117.5 285.746806,111.064097 275.341354,100.658646 C264.935903,90.2531939 258.5,75.8781937 258.5,60 C258.5,44.1218063 264.935903,29.7468061 275.341354,19.3413545 C285.746806,8.93590283 300.121806,2.5 316,2.5 Z" id="路径" stroke="#FFFFFF" stroke-width="5" opacity="0.100000001"></path>
                <path d="M328.5,47.4993034 L328.5,72.4993034 L303.5,72.4993034 L303.5,47.4993034 L328.5,47.4993034 Z" id="矩形" stroke="#FFFFFF" stroke-width="5" opacity="0.100000001" transform="translate(316.000000, 59.999303) rotate(45.000000) translate(-316.000000, -59.999303) "></path>
            </g>
        </g>
    </g>
</svg>