<?xml version="1.0" encoding="UTF-8"?>
<svg width="336px" height="120px" viewBox="0 0 336 120" version="1.1" xmlns="http://www.w3.org/2000/svg" xmlns:xlink="http://www.w3.org/1999/xlink">
    <title>邀请好友 9</title>
    <defs>
        <linearGradient x1="1.30104261e-16%" y1="43.622449%" x2="100%" y2="56.377551%" id="linearGradient-1">
            <stop stop-color="#FF8897" offset="0%"></stop>
            <stop stop-color="#F8364D" offset="100%"></stop>
        </linearGradient>
        <rect id="path-2" x="0" y="0" width="336" height="120" rx="8"></rect>
    </defs>
    <g id="会员中心弃用" stroke="none" stroke-width="1" fill="none" fill-rule="evenodd">
        <g id="账号设置2" transform="translate(-611.000000, -348.000000)">
            <g id="邀请好友-9" transform="translate(611.000000, 348.000000)">
                <mask id="mask-3" fill="white">
                    <use xlink:href="#path-2"></use>
                </mask>
                <use id="矩形" fill="url(#linearGradient-1)" xlink:href="#path-2"></use>
                <g id="编组" opacity="0.100000001" mask="url(#mask-3)" fill="#FFFFFF" fill-rule="nonzero">
                    <g transform="translate(255.000000, 0.000000)" id="形状">
                        <path d="M84.3005051,68.3798882 C85.979798,69.7206704 88.3308081,69.0502793 89.6742424,67.0391061 C90.3459596,66.0335195 90.3459596,65.3631285 90.3459596,64.3575419 C90.0101011,63.3519554 89.3383839,62.6815643 88.6666666,62.0111732 C86.651515,60.6703911 84.300505,59.3296089 81.9494949,58.3240224 C84.9722221,55.3072626 92.0252524,45.5865922 91.6893939,32.849162 C91.0176767,14.0782123 76.239899,0 57.0959596,0 C37.9520203,0 23.5101011,14.4134078 23.510101,33.5195531 C23.510101,44.5810057 28.5479798,52.9608939 35.2651515,59.3296089 C10.7474747,71.0614525 0,94.5251397 0,116.312849 C0,118.324022 1.6792929,120 3.69444446,120 C5.70959601,120 6.71717173,119.329609 6.71717173,116.98324 C6.71717173,96.5363129 16.7929293,74.0782123 40.3030302,63.3519553 C45.6767676,66.0335195 49.0353535,66.368715 57.0959596,66.7039106 C64.1489899,67.0391061 71.8737375,64.3575419 75.2323233,62.6815643 C78.5909091,64.3575419 81.6136363,66.7039106 84.3005051,68.3798882 Z M57.0959596,60.3351955 C42.3181818,60.3351955 30.2272727,48.2681564 30.2272727,33.5195531 C30.2272727,18.7709498 42.3181818,6.70391062 57.0959596,6.70391062 C71.8737375,6.70391062 83.9646464,18.7709497 83.9646464,33.5195531 C83.9646464,37.206704 83.6287879,41.8994414 81.9494949,45.2513966 C80.6060605,48.2681564 78.5909091,50.9497207 75.9040403,53.631285 C71.2020202,58.3240224 64.1489898,60.3351955 57.0959596,60.3351955 Z M107.474747,93.8547486 L97.3989899,93.8547486 L97.3989899,83.7988827 C97.3989899,81.452514 96.0555555,80.1117319 93.7045454,80.1117319 C91.3535353,80.1117319 90.6818181,81.7877095 90.6818181,83.7988827 L90.6818181,93.8547486 L80.6060606,93.8547486 C78.2550505,93.8547486 76.9116162,94.8603351 76.9116162,96.8715084 C76.9116162,99.2178771 78.5909091,100.558659 80.6060606,100.558659 L90.6818181,100.558659 L90.6818181,110.614525 C90.6818181,111.955307 90.3459596,112.625698 91.6893939,113.296089 C93.0328282,113.96648 94.3762626,113.96648 95.719697,113.296089 C97.0631313,112.625698 97.3989899,111.955307 97.3989899,110.614525 L97.3989899,100.558659 L107.474747,100.558659 C109.825757,100.558659 110.833333,99.2178771 110.833333,96.8715084 C110.833333,94.5251397 109.825758,93.8547486 107.474747,93.8547486 L107.474747,93.8547486 Z"></path>
                    </g>
                </g>
            </g>
        </g>
    </g>
</svg>