<?xml version="1.0" encoding="UTF-8"?>
<svg width="336px" height="120px" viewBox="0 0 336 120" version="1.1" xmlns="http://www.w3.org/2000/svg" xmlns:xlink="http://www.w3.org/1999/xlink">
    <title>推广赚钱</title>
    <defs>
        <linearGradient x1="1.30104261e-16%" y1="43.622449%" x2="100%" y2="56.377551%" id="linearGradient-1">
            <stop stop-color="#C5BDF9" offset="0%"></stop>
            <stop stop-color="#988BEC" offset="100%"></stop>
        </linearGradient>
        <rect id="path-2" x="0" y="0" width="336" height="120" rx="8"></rect>
    </defs>
    <g id="会员中心弃用" stroke="none" stroke-width="1" fill="none" fill-rule="evenodd">
        <g id="账号设置2" transform="translate(-971.000000, -348.000000)">
            <g id="推广赚钱" transform="translate(971.000000, 348.000000)">
                <mask id="mask-3" fill="white">
                    <use xlink:href="#path-2"></use>
                </mask>
                <use id="矩形备份-2" fill="url(#linearGradient-1)" xlink:href="#path-2"></use>
                <g id="编组" opacity="0.100000001" mask="url(#mask-3)" fill="#FFFFFF" fill-rule="nonzero">
                    <g transform="translate(236.000000, 0.000000)" id="路径">
                        <path d="M103.641209,120 C102.122434,120 99.3831161,119.263624 90.5705389,113.842058 C85.4379998,110.681165 80.1489807,107.10606 77.3157749,105.189642 L76.7174696,104.784635 C74.3242483,103.16645 72.0617337,101.791268 69.6685124,100.336926 C67.827573,99.2213165 66.1707275,98.2032769 64.3905391,97.0637354 C63.1939284,96.2960637 62.4188929,95.7640322 61.8003372,95.2872289 C60.7021087,94.3931857 60.516995,92.7865586 61.3831247,91.6661844 C62.2492544,90.5458102 63.8507156,90.3203338 64.9925263,91.1580017 C65.4785343,91.5261896 66.1615228,92.0011519 67.2016536,92.6730948 C68.9284548,93.7776585 70.5668909,94.7791296 72.3746934,95.8781704 C74.7145275,97.3012166 77.1335219,98.7721272 79.6335177,100.46211 L80.231823,100.867116 C82.9821865,102.726465 88.0999982,106.187431 93.0631709,109.252596 C100.393792,113.779466 102.82015,114.609729 103.495775,114.758845 C103.535839,114.703936 103.572718,114.646773 103.606231,114.587638 C103.830826,114.193677 104.158513,113.411278 104.405199,111.927481 L104.423608,111.82807 L123.519673,10.613219 L123.519673,10.6021733 L123.567538,10.3462828 C123.68904,9.73509086 123.816064,9.19017278 123.935725,8.70600571 L123.970703,8.55873055 C124.47328,6.43244549 124.489848,5.97221063 124.084842,5.4714751 C123.311647,4.5197094 119.430947,6.27780658 116.597741,7.56094137 L116.343691,7.67507962 C115.607315,8.00644872 114.859894,8.34702252 114.180587,8.63973189 C109.471464,10.6647653 104.635316,12.6732302 99.9611711,14.6080576 C95.4840063,16.4600427 90.8558845,18.3764606 85.8650977,20.5303598 L85.6957313,20.6003155 L14.6354686,50.1805305 L14.5949679,50.1897352 C14.016913,50.4161708 13.4351761,50.6297197 12.7963701,50.8616781 C11.0014541,51.5152116 8.76839459,52.3344297 7.13364036,53.2935591 C6.0106673,53.9581383 5.46206734,54.5214657 5.29270091,54.8896536 C5.6516841,55.3425247 6.78754374,56.5023166 10.2227368,58.7169667 C13.072511,60.5579062 16.4543168,62.4522329 19.1697025,63.9765307 L19.2856817,64.0409636 C20.5743393,64.7773394 21.7009942,65.397736 22.6564418,65.9647453 L22.6730102,65.975791 L44.1715011,78.9433684 L45.4307037,79.7055174 L45.4307037,111.57402 C45.4307037,112.078438 45.4307037,112.584696 45.4122943,113.072545 C45.390203,114.399862 45.3681117,115.64986 45.513546,116.828061 C45.6914724,118.258082 44.6764496,119.561581 43.246429,119.739507 C41.8164084,119.917433 40.5129098,118.902411 40.3349833,117.47239 C40.1508893,115.931524 40.1692987,114.431158 40.1950719,112.982339 C40.2042766,112.49449 40.2116403,112.034255 40.2116403,111.575861 L40.2116403,82.6491796 L19.9797158,70.4474329 C19.0794964,69.9135605 17.9878193,69.3005276 16.7230939,68.589925 L16.6163195,68.529174 C4.89689893,61.9533383 0,58.6396473 0,55.1344986 C0,52.689731 1.50772941,50.5579231 4.48084661,48.8016669 C6.52981222,47.5903287 9.01508047,46.6845865 11.0124998,45.9574154 C11.7083749,45.7052067 12.2845889,45.4934987 12.8534392,45.2652222 L12.9712593,45.2191987 L83.8989744,15.6923709 C88.8842384,13.5421536 93.4957917,11.6330994 97.9582289,9.78663716 C102.615806,7.85917356 107.431703,5.86543614 112.10769,3.84776651 C112.744655,3.57162559 113.477348,3.24209743 114.18611,2.92729678 L114.438319,2.81315854 C116.83154,1.72700426 119.095896,0.701600991 121.192726,0.246888947 C124.215548,-0.410326435 126.5517,0.246888947 128.131226,2.190921 C130.222534,4.76823623 129.603978,7.42287091 129.051696,9.75902307 L129.018559,9.90077541 C128.909413,10.3543095 128.808146,10.8097038 128.714804,11.2667525 L128.700077,11.3459129 L109.535897,112.851632 C109.224778,114.644707 108.766384,116.058549 108.13126,117.172317 C106.722942,119.633653 104.712636,120 103.641209,120 L103.641209,120 Z"></path>
                        <path d="M98.5585072,34.3864635 L98.5585072,34.3864635 C99.7297366,35.8067732 99.6051964,37.1025428 98.1848867,38.2737723 L45.6334265,81.6092599 C44.2131168,82.7804893 42.9173472,82.6559491 41.7461177,81.2356394 L41.7461177,81.2356394 C40.5748883,79.8153297 40.6994285,78.5195601 42.1197382,77.3483306 L94.6711986,34.012843 C96.0915083,32.8416137 97.3872778,32.9661538 98.5585072,34.3864635 Z"></path>
                    </g>
                </g>
            </g>
        </g>
    </g>
</svg>