<?xml version="1.0" encoding="UTF-8"?>
<svg width="32px" height="29px" viewBox="0 0 32 29" version="1.1" xmlns="http://www.w3.org/2000/svg" xmlns:xlink="http://www.w3.org/1999/xlink">
    <title>VIP</title>
    <g id="会员" stroke="none" stroke-width="1" fill="none" fill-rule="evenodd">
        <g id="充值会员" transform="translate(-41.000000, -335.000000)" fill="#79411D" fill-rule="nonzero">
            <g id="VIP" transform="translate(41.000000, 335.000000)">
                <path d="M3.34180352,9.43968596 L5.25581742,25.7088339 L26.7443973,25.7088339 L28.658322,9.43968596 L22.6924832,13.4169564 L16.0001446,4.04765261 L9.30771669,13.4169564 L3.34180352,9.43968596 Z M2.31324756,5.17772216 L8.56099744,9.34288874 L14.7893611,0.623149866 C15.2669496,-0.0454888705 16.1962385,-0.200355487 16.8648624,0.277247862 C16.9984681,0.372676287 17.1152616,0.489558998 17.2107793,0.623149866 L23.4392173,9.34288874 L29.6868482,5.17772216 C30.3706477,4.72193017 31.294283,4.9066721 31.7501494,5.59036752 C31.9460946,5.88438943 32.0310488,6.23856368 31.9898363,6.5894945 L29.5450595,27.370574 C29.4568321,28.1198374 28.8218328,28.684463 28.067362,28.684463 L3.93277833,28.684463 C3.17833733,28.684463 2.54330833,28.1198374 2.45515531,27.370574 L0.0103338121,6.5894945 C-0.0856748607,5.77342822 0.4980543,5.0340439 1.31412058,4.93803523 C1.66506628,4.89674838 2.01924053,4.98171747 2.31324756,5.17772216 Z M16.0001446,19.7575757 C14.3567046,19.7575757 13.0245155,18.4253866 13.0245155,16.7819466 C13.0245155,15.1385067 14.3567046,13.8063175 16.0001446,13.8063175 C17.6434357,13.8063175 18.9757737,15.1385067 18.9757737,16.7819466 C18.9757737,18.4253866 17.6434357,19.7575757 16.0001446,19.7575757 Z" id="形状"></path>
            </g>
        </g>
    </g>
</svg>