<?xml version="1.0" encoding="UTF-8"?>
<svg width="24px" height="24px" viewBox="0 0 24 24" version="1.1" xmlns="http://www.w3.org/2000/svg" xmlns:xlink="http://www.w3.org/1999/xlink">
    <title>微信</title>
    <g id="会员中心" stroke="none" stroke-width="1" fill="none" fill-rule="evenodd">
        <g id="会员中心-点套餐充值" transform="translate(-805.000000, -580.000000)" fill-rule="nonzero">
            <g id="编组" transform="translate(773.000000, 278.000000)">
                <g id="微信" transform="translate(32.000000, 302.000000)">
                    <rect id="矩形" fill="#000000" opacity="0" x="0" y="0" width="24" height="24"></rect>
                    <path d="M7.90751445,8.0115607 C7.49132948,8.0115607 7.0751445,8.28901734 7.0751445,8.7052023 C7.0751445,9.12138727 7.49132946,9.39884393 7.90751445,9.39884393 C8.32369943,9.39884393 8.60115607,9.12138729 8.60115607,8.7052023 C8.60115607,8.27167629 8.32369943,8.0115607 7.90751445,8.0115607 Z M13.5433526,12.0346821 C13.265896,12.0346821 13.0057804,12.3294798 13.0057804,12.5895954 C13.0057804,12.8843931 13.283237,13.1445087 13.5433526,13.1445087 C13.9595376,13.1445087 14.2369942,12.867052 14.2369942,12.5895954 C14.2369942,12.3121387 13.9595376,12.0346821 13.5433526,12.0346821 Z M11.7572254,9.39884393 C12.1734104,9.39884393 12.450867,9.10404623 12.450867,8.7052023 C12.450867,8.28901734 12.1734104,8.0115607 11.7572254,8.0115607 C11.3410404,8.0115607 10.9248555,8.28901734 10.9248555,8.7052023 C10.9248555,9.12138727 11.3410405,9.39884393 11.7572254,9.39884393 Z M16.5606936,12.0346821 C16.283237,12.0346821 16.0231214,12.3294798 16.0231214,12.5895954 C16.0231214,12.8843931 16.300578,13.1445087 16.5606936,13.1445087 C16.9768786,13.1445087 17.2543353,12.867052 17.2543353,12.5895954 C17.2543353,12.3121387 16.9768786,12.0346821 16.5606936,12.0346821 Z" id="形状" fill="#28C445"></path>
                    <path d="M11.9653179,0.0693641719 C5.35838149,0.0693641719 0,5.42774566 0,12.0346821 C0,18.6416185 5.35838149,24 11.9653179,24 C18.5722543,24 23.9306358,18.6416185 23.9306358,12.0346821 C23.9306358,5.42774566 18.5722543,0.0693641719 11.9653179,0.0693641719 Z M9.69364162,15.1040462 C9,15.1040462 8.44508672,14.9653179 7.78612716,14.8092486 L5.87861271,15.7803468 L6.41618496,14.0982659 C5.04624277,13.1271676 4.21387284,11.8612717 4.21387284,10.3526012 C4.21387284,7.69942198 6.69364162,5.6184971 9.69364162,5.6184971 C12.3815029,5.6184971 14.7572254,7.28323699 15.2254335,9.52023122 C15.0520231,9.50289019 14.8786127,9.48554913 14.7052023,9.48554913 C12.1040462,9.52023122 10.0578035,11.4797688 10.0578035,13.9075144 C10.0578035,14.3063584 10.1271676,14.6878613 10.2312139,15.0693642 C10.0578035,15.0867052 9.86705203,15.1040463 9.69364162,15.1040462 L9.69364162,15.1040462 Z M17.8092486,17.0462428 L18.2254335,18.433526 L16.734104,17.6011561 C16.1965318,17.7398844 15.6416185,17.8786127 15.0867052,17.8786127 C12.4682081,17.8786127 10.4046243,16.0751445 10.4046243,13.8381503 C10.3872833,11.6184971 12.450867,9.81502889 15.0520231,9.81502889 C17.5317919,9.81502889 19.716763,11.6358381 19.716763,13.8554913 C19.716763,15.1040462 18.9017341,16.2138728 17.8092486,17.0462428 L17.8092486,17.0462428 Z" id="形状" fill="#28C445"></path>
                </g>
            </g>
        </g>
    </g>
</svg>