<?xml version="1.0" encoding="UTF-8"?>
<svg width="16px" height="16px" viewBox="0 0 16 16" version="1.1" xmlns="http://www.w3.org/2000/svg" xmlns:xlink="http://www.w3.org/1999/xlink">
    <title>支付宝</title>
    <g id="会员中心" stroke="none" stroke-width="1" fill="none" fill-rule="evenodd">
        <g id="提现" transform="translate(-714.000000, -310.000000)" fill="#009FE8" fill-rule="nonzero">
            <g id="编组-50" transform="translate(658.000000, 229.000000)">
                <g id="支付宝" transform="translate(56.000000, 81.000000)">
                    <path d="M16,10.9536 L16,3.076 C15.9991169,1.37722566 14.6220434,0.000441354695 12.9233538,0 L3.07584621,0 C1.37746903,0.000882776737 0.0008827326,1.3775379 0,3.076 L0,12.924 C0.000441585882,14.6226449 1.3772862,15.9995584 3.07584621,16 L12.9233538,16 C14.4124141,15.9989354 15.6874528,14.9326452 15.9520024,13.4672 C15.1360432,13.1136 11.60022,11.5872 9.7579121,10.7072 C8.35638218,12.4056 6.88765562,13.4248 4.67496625,13.4248 C2.46227689,13.4248 0.984750762,12.0616 1.16234188,10.3928 C1.27913604,9.2984 2.03029849,7.5088 5.29173541,7.8152 C7.01164942,7.9768 7.7980101,8.2976 9.20033998,8.7608 C9.56272186,8.0952 9.86430678,7.3632 10.0930953,6.5848 L3.87580621,6.5848 L3.87580621,5.9688 L6.95245238,5.9688 L6.95245238,4.8616 L3.19984001,4.8616 L3.19984001,4.184 L6.95165242,4.184 L6.95165242,2.588 C6.95165242,2.588 6.98525074,2.3384 7.26123694,2.3384 L8.79956002,2.3384 L8.79956002,4.184 L12.79936,4.184 L12.79936,4.8624 L8.79956002,4.8624 L8.79956002,5.968 L12.0625969,5.968 C11.781151,7.13317509 11.3348031,8.25219858 10.7370631,9.2912 C11.6850157,9.6352 15.9992,10.9536 15.9992,10.9536 L16,10.9536 Z M4.43017849,12.3688 C2.09189541,12.3688 1.72231388,10.8928 1.84630768,10.276 C1.96870156,9.6616 2.64626769,8.86 3.94620269,8.86 C5.43972801,8.86 6.7780611,9.2424 8.38438078,10.0248 C7.25643718,11.4936 5.87010649,12.3688 4.43017849,12.3688 L4.43017849,12.3688 Z" id="形状"></path>
                </g>
            </g>
        </g>
    </g>
</svg>