<?xml version="1.0" encoding="UTF-8"?>
<svg width="16px" height="12px" viewBox="0 0 16 12" version="1.1" xmlns="http://www.w3.org/2000/svg" xmlns:xlink="http://www.w3.org/1999/xlink">
    <title>银行卡</title>
    <g id="会员中心" stroke="none" stroke-width="1" fill="none" fill-rule="evenodd">
        <g id="提现" transform="translate(-986.000000, -312.000000)" fill-rule="nonzero">
            <g id="编组-50" transform="translate(658.000000, 229.000000)">
                <g id="银行卡" transform="translate(328.000000, 83.000000)">
                    <path d="M14.8683058,12 L1.13169417,12 C0.508364208,12 0,11.494718 0,10.8751674 L0,1.12483261 C0,0.507067401 0.510160548,0 1.13169417,0 L14.8665095,0 C15.4898395,0 15.9982084,0.507067401 15.9982084,1.12483261 L15.9982084,10.8769528 C16,11.494718 15.4898395,12 14.8683058,12 Z" id="路径" fill="#FF8A32"></path>
                    <polygon id="路径" fill="#FFD301" points="0 2.54962059 15.9982037 2.54962059 15.9982037 4.34935277 0 4.34935277"></polygon>
                    <path d="M10.4061974,6.93825324 L9.28707758,9.76640381 L16,9.76640381 L16,6.93825324 L10.4061974,6.93825324 Z M7.00033681,9.76640381 L8.01706523,9.76640381 L9.13438868,6.93825324 L8.11766027,6.93825324 L7.00033681,9.76640381 Z" id="形状" fill="#FFFFFF"></path>
                </g>
            </g>
        </g>
    </g>
</svg>