<?xml version="1.0" encoding="UTF-8"?>
<svg width="16px" height="16px" viewBox="0 0 16 16" version="1.1" xmlns="http://www.w3.org/2000/svg" xmlns:xlink="http://www.w3.org/1999/xlink">
    <title>微信</title>
    <g id="会员中心" stroke="none" stroke-width="1" fill="none" fill-rule="evenodd">
        <g id="提现" transform="translate(-858.000000, -310.000000)" fill-rule="nonzero">
            <g id="编组-50" transform="translate(658.000000, 229.000000)">
                <g id="微信" transform="translate(200.000000, 81.000000)">
                    <path d="M7.85333333,6.17635556 C8.14657778,6.17635556 8.33333333,5.988 8.33333333,5.70533333 C8.33333333,5.40924444 8.14657778,5.23431111 7.85333333,5.23431111 C7.57333333,5.23431111 7.30666667,5.40924444 7.30666667,5.70533333 C7.30666667,5.98808889 7.57333333,6.17635556 7.85333333,6.17635556 Z M5.21324444,5.23431111 C4.93333333,5.23431111 4.63991111,5.40924444 4.63991111,5.70533333 C4.63991111,5.988 4.93324444,6.17644444 5.21324444,6.17644444 C5.47991111,6.17644444 5.69324447,5.988 5.69324447,5.70533333 C5.69333333,5.40924444 5.48,5.23431111 5.21324444,5.23431111 Z M9.07991111,7.99333333 C8.89324444,7.99333333 8.70657778,8.16817778 8.70657778,8.38364444 C8.70657778,8.55848889 8.89324444,8.73342222 9.07991111,8.73342222 C9.35991111,8.73342222 9.55991114,8.55848889 9.55991114,8.38364444 C9.56,8.16826667 9.36,7.99333333 9.07991111,7.99333333 L9.07991111,7.99333333 Z M11.1732444,7.99333333 C10.9733333,7.99333333 10.7999111,8.16817778 10.7999111,8.38364444 C10.7999111,8.55848889 10.9732444,8.73342222 11.1732444,8.73342222 C11.4399111,8.73342222 11.64,8.55848889 11.64,8.38364444 C11.64,8.16826667 11.4399111,7.99333333 11.1732444,7.99333333 L11.1732444,7.99333333 Z" id="形状" fill="#2AAE67"></path>
                    <path d="M13.8666667,0 L2.13333333,0 C0.955111111,0 0,0.955111111 0,2.13333333 L0,13.8666667 C0,15.0448889 0.955111111,16 2.13333333,16 L13.8666667,16 C15.0448889,16 16,15.0448889 16,13.8666667 L16,2.13333333 C16,0.955111111 15.0448889,0 13.8666667,0 Z M6.45333333,10.0927111 C5.96,10.0927111 5.59991111,10.012 5.13324444,9.87733333 L3.78657778,10.5638222 L4.17333333,9.4064 C3.22675556,8.7336 2.66666667,7.8856 2.66666667,6.84933333 C2.66666667,5.01902222 4.37333333,3.61946667 6.45333333,3.61946667 C8.29333333,3.61946667 9.93342222,4.72302222 10.2533333,6.28426667 C10.12,6.25724444 10,6.24382222 9.89333333,6.24382222 C8.08008889,6.24382222 6.68008889,7.61653333 6.68008889,9.27182222 C6.68008889,9.5544 6.72008889,9.81013333 6.78675556,10.0793778 C6.68008889,10.0927111 6.56,10.0927111 6.45333333,10.0927111 Z M12.0132444,11.4115556 L12.2799111,12.3805333 L11.2665778,11.8018667 C10.88,11.8825778 10.5065778,12.0037333 10.12,12.0037333 C8.33333333,12.0037333 6.92,10.7656 6.92,9.23146667 C6.92,7.69733333 8.33333333,6.45911111 10.12,6.45911111 C11.8133333,6.45911111 13.3333333,7.69724444 13.3333333,9.23146667 C13.3333333,10.0927111 12.76,10.8597333 12.0132444,11.4115556 L12.0132444,11.4115556 Z" id="形状" fill="#01DB6B"></path>
                </g>
            </g>
        </g>
    </g>
</svg>