<?xml version="1.0" standalone="no"?><!DOCTYPE svg PUBLIC "-//W3C//DTD SVG 1.1//EN" "http://www.w3.org/Graphics/SVG/1.1/DTD/svg11.dtd"><svg class="icon" width="200px" height="164.50px" viewBox="0 0 1245 1024" version="1.1" xmlns="http://www.w3.org/2000/svg"><path fill="currentColor" d="M874.666667 28.444444a170.666667 170.666667 0 0 1 170.666666 170.666667V711.111111a170.666667 170.666667 0 0 1-170.666666 170.666667H192A170.666667 170.666667 0 0 1 21.333333 711.111111V199.111111a170.666667 170.666667 0 0 1 170.666667-170.666667h682.666667z m0 73.955556H192a96.711111 96.711111 0 0 0-96.355556 88.355556l-0.355555 8.355555V711.111111a96.711111 96.711111 0 0 0 88.355555 96.355556l8.355556 0.355555h682.666667a96.711111 96.711111 0 0 0 96.355555-88.355555l0.355556-8.355556V199.111111a96.711111 96.711111 0 0 0-88.355556-96.355555l-8.355555-0.355556z m-21.12 111.893333a42.666667 42.666667 0 0 1-7.502223 55.182223l-4.977777 3.804444-284.586667 184.853333a42.666667 42.666667 0 0 1-40.96 2.986667l-5.511111-2.986667-284.373333-184.853333A42.666667 42.666667 0 0 1 266.595556 198.755556l5.546666 3.022222 261.12 169.742222 261.226667-169.742222a42.666667 42.666667 0 0 1 59.057778 12.515555v0.035556zM874.666667 28.444444a170.666667 170.666667 0 0 1 170.666666 170.666667V711.111111a170.666667 170.666667 0 0 1-170.666666 170.666667H192A170.666667 170.666667 0 0 1 21.333333 711.111111V199.111111a170.666667 170.666667 0 0 1 170.666667-170.666667h682.666667z m0 91.022223H192a79.644444 79.644444 0 0 0-79.288889 71.964444l-0.355555 7.68V711.111111a79.644444 79.644444 0 0 0 71.964444 79.288889l7.68 0.355556h682.666667a79.644444 79.644444 0 0 0 79.288889-71.964445l0.355555-7.68V199.111111a79.644444 79.644444 0 0 0-71.964444-79.288889l-7.68-0.355555zM232.888889 173.297778l5.333333 3.057778 295.111111 195.626666 295.111111-195.697778a45.511111 45.511111 0 0 1 55.217778 72.177778l-4.906666 3.733334-320.213334 212.408888a45.511111 45.511111 0 0 1-44.373333 3.306667l-5.937778-3.306667-320.284444-212.408888a45.511111 45.511111 0 0 1 44.942222-78.933334z" /></svg>