<?xml version="1.0" encoding="UTF-8"?>
<svg width="80px" height="80px" viewBox="0 0 80 80" version="1.1" xmlns="http://www.w3.org/2000/svg" xmlns:xlink="http://www.w3.org/1999/xlink">
    <title>上传头像</title>
    <g id="页面-1" stroke="none" stroke-width="1" fill="none" fill-rule="evenodd">
        <g id="会员列表-新增会员" transform="translate(-632.000000, -378.000000)">
            <g id="编组-31" transform="translate(524.000000, 303.000000)">
                <g id="上传头像" transform="translate(108.000000, 75.000000)">
                    <rect id="矩形" stroke="#E1E6E8" fill="#CCCCCC" x="0.5" y="0.5" width="79" height="79" rx="4"></rect>
                    <path d="M39.7440006,14.016 C44.0502419,14.016 48.029373,16.3133523 50.1824936,20.0426666 C52.3356143,23.771981 52.3356143,28.3666857 50.1824936,32.0960001 C48.029373,35.8253144 44.0502419,38.1226667 39.7440006,38.1226667 C33.0871284,38.1226667 27.6906673,32.7262055 27.6906673,26.0693333 C27.6906673,19.4124611 33.0871284,14.016 39.7440006,14.016 Z" id="路径" fill="#FFFFFF" fill-rule="nonzero"></path>
                    <path d="M18.6666673,61.8453333 C18.5440006,49.4933333 24.5813339,41.824 32.1493339,38.8106667 L39.9200006,51.776 L48.1066673,39.1093333 C55.4080006,42.3093333 61.2106673,49.888 61.3280006,61.856 C47.9040006,67.1786667 33.7546673,67.5626667 18.6666673,61.8453333 L18.6666673,61.8453333 Z" id="路径" fill="#FFFFFF" fill-rule="nonzero"></path>
                </g>
            </g>
        </g>
    </g>
</svg>