<?xml version="1.0" encoding="UTF-8"?>
<svg width="24px" height="24px" viewBox="0 0 24 24" version="1.1" xmlns="http://www.w3.org/2000/svg" xmlns:xlink="http://www.w3.org/1999/xlink">
    <title>头像</title>
    <g id="页面-1" stroke="none" stroke-width="1" fill="none" fill-rule="evenodd">
        <g id="会员列表-列表设置" transform="translate(-436.000000, -152.000000)" fill="#CCCCCC" fill-rule="nonzero">
            <g id="头像" transform="translate(436.000000, 152.000000)">
                <path d="M12,0 C7.71281306,0 3.75128876,2.287187 1.60769518,6 C-0.535898395,9.7128129 -0.535898395,14.2871871 1.60769518,18 C3.75128876,21.712813 7.71281306,24 12,24 C18.6274172,24 24,18.627417 24,12 C24,5.372583 18.6274172,0 12,0 Z M11.9232002,4.2048 C13.2150726,4.2048 14.4088119,4.89400568 15.0547481,6.01279998 C15.7006843,7.13159429 15.7006843,8.51000571 15.0547481,9.62880002 C14.4088119,10.7475943 13.2150726,11.4368 11.9232002,11.4368 C9.92613852,11.4368 8.30720018,9.81786166 8.30720018,7.8208 C8.30720018,5.82373834 9.92613852,4.2048 11.9232002,4.2048 Z M5.60000018,18.5536 C5.56320018,14.848 7.37440018,12.5472 9.64480018,11.6432 L11.9760002,15.5328 L14.4320002,11.7328 C16.6224002,12.6928 18.3632002,14.9664 18.3984002,18.5568 C14.3712002,20.1536 10.1264002,20.2688 5.60000018,18.5536 L5.60000018,18.5536 Z" id="形状"></path>
            </g>
        </g>
    </g>
</svg>