<?xml version="1.0" standalone="no"?><!DOCTYPE svg PUBLIC "-//W3C//DTD SVG 1.1//EN" "http://www.w3.org/Graphics/SVG/1.1/DTD/svg11.dtd"><svg t="1712556680161" class="icon" viewBox="0 0 1024 1024" version="1.1" xmlns="http://www.w3.org/2000/svg" p-id="2396" xmlns:xlink="http://www.w3.org/1999/xlink" width="200" height="200"><path d="M272.597333 273.493333a36.266667 36.266667 0 0 1 51.285334-0.896l166.016 160.341334a36.266667 36.266667 0 0 1-50.346667 52.181333L273.493333 324.693333a36.266667 36.266667 0 0 1-0.896-51.242666z" fill="#ffffff" p-id="2397"></path><path d="M518.997333 477.781333a36.266667 36.266667 0 0 1-33.578666 34.816l-145.749334 10.794667a36.266667 36.266667 0 0 1-5.333333-72.362667l113.408-8.362666 4.266667-113.493334a36.266667 36.266667 0 1 1 72.533333 2.730667l-5.546667 145.92z" fill="#ffffff" p-id="2398"></path><path d="M475.733333 665.6a104.533333 104.533333 0 0 1 104.533334-104.533333h204.8a104.533333 104.533333 0 0 1 104.533333 104.533333v119.466667a104.533333 104.533333 0 0 1-104.533333 104.533333h-204.8a104.533333 104.533333 0 0 1-104.533334-104.533333v-119.466667z m104.533334-32a32 32 0 0 0-32 32v119.466667c0 17.664 14.336 32 32 32h204.8a32 32 0 0 0 32-32v-119.466667a32 32 0 0 0-32-32h-204.8z" fill="#ffffff" opacity=".92" p-id="2399"></path><path d="M226.901333 206.933333c-33.877333 0-62.634667 28.288-62.634666 64.768v437.930667c0 36.48 28.757333 64.768 62.634666 64.768h104.362667a36.266667 36.266667 0 0 1 0 72.533333H226.901333c-75.392 0-135.168-62.208-135.168-137.301333V271.701333c0-75.093333 59.776-137.301333 135.168-137.301333h527.530667c75.392 0 135.168 62.208 135.168 137.301333V371.2a36.266667 36.266667 0 1 1-72.533333 0V271.701333c0-36.48-28.757333-64.768-62.634667-64.768H226.901333z" fill="#ffffff" p-id="2400"></path></svg>