<?xml version="1.0" encoding="UTF-8"?>
<svg width="64px" height="24px" viewBox="0 0 64 24" version="1.1" xmlns="http://www.w3.org/2000/svg" xmlns:xlink="http://www.w3.org/1999/xlink">
    <title>cms</title>
    <g id="创建站点" stroke="none" stroke-width="1" fill="none" fill-rule="evenodd">
        <g id="安装4" transform="translate(-226.000000, -923.000000)" fill-rule="nonzero">
            <g id="编组-4" transform="translate(146.000000, 867.000000)">
                <g id="cms" transform="translate(80.000000, 56.000000)">
                    <path d="M7.181,17.7648556 L6.67564259,20.8274174 L15.5324357,20.8274174 L17.1187271,19.5716034 L16.4908201,24 L0,24 L0.99,17.7648556 L7.181,17.7648556 Z M18.4075887,10.0538556 L18.0771114,13.2264382 L7.93145655,13.2264382 L7.363,16.6628556 L1.165,16.6628556 L2.21419829,10.0538556 L18.4075887,10.0538556 Z" id="形状结合" fill="#5E5E5E"></path>
                    <path d="M39.6569522,0 L44.0461294,4.40929868 L42.5104039,23.8678091 L36.7931457,23.8678091 L38.0122399,9.10161439 L35.4675643,9.10161439 L34.24847,23.8678091 L29.1921665,23.8678091 L30.8115055,5.42964377 L28.2998776,5.42964377 L26.6474908,23.8678091 L20.9302326,23.8678091 L22.8470012,1.5836461 L21.8188494,0 L39.6569522,0 Z M39.2897551,0.734394125 L38.9411494,5.15049355 L43.6789324,5.1436928 L39.2897551,0.734394125 Z" id="形状" fill="#4C83FF"></path>
                    <path d="M56.4169985,20.6878825 L56.7144281,18.4736842 L47.1966802,18.4736842 L48.4855419,9.91432069 L63.6875003,9.91432069 L63.0595933,14.0122399 L57.5736692,14.0122399 L57.6728124,13.0869033 L53.8723228,13.0869033 L53.5418455,15.3011016 L62.7621637,15.3011016 L62.101209,21.6462668 C61.9469862,22.2851897 61.594477,22.8139535 61.0436814,23.2325581 C60.4928859,23.6511628 59.8980266,23.8604651 59.2591037,23.8604651 L46.5687732,23.8604651 L47.1966802,19.4320685 L48.1550646,20.6878825 L56.4169985,20.6878825 Z" id="路径" fill="#5E5E5E"></path>
                </g>
            </g>
        </g>
    </g>
</svg>