<?xml version="1.0" encoding="UTF-8"?>
<svg width="14px" height="14px" viewBox="0 0 14 14" version="1.1" xmlns="http://www.w3.org/2000/svg" xmlns:xlink="http://www.w3.org/1999/xlink">
    <title>编辑</title>
    <g id="创建站点" stroke="none" stroke-width="1" fill="none" fill-rule="evenodd">
        <g id="安装-状态修改" transform="translate(-1198.000000, -622.000000)" fill="#4B82FA" fill-rule="nonzero">
            <g id="编组-2" transform="translate(600.000000, 254.000000)">
                <g id="编辑" transform="translate(598.000000, 368.000000)">
                    <rect id="矩形" opacity="0" x="0" y="0" width="14" height="14"></rect>
                    <path d="M1.63890234,9.77839844 L1.63890234,11.8151797 L3.67608008,11.8151797 L9.57392188,5.86429102 L7.5360332,3.82757812 L1.63890234,9.77839844 Z M11.1281406,4.3097168 C11.3432676,4.09535547 11.3432676,3.77335547 11.1281406,3.55973242 L9.89597656,2.32600977 C9.68072656,2.11197656 9.35960156,2.11197656 9.14433789,2.32600977 L8.17921289,3.29118945 L10.2171016,5.32870898 L11.128127,4.3097168 L11.1281406,4.3097168 Z M6.46402148,10.7431816 L5.39200977,11.8151934 L12.3610703,11.8151934 L12.3610703,10.7431816 L6.46403516,10.7431816 L6.46402148,10.7431816 Z" id="形状"></path>
                </g>
            </g>
        </g>
    </g>
</svg>