<?xml version="1.0" encoding="UTF-8"?>
<svg width="12px" height="12px" viewBox="0 0 12 12" version="1.1" xmlns="http://www.w3.org/2000/svg" xmlns:xlink="http://www.w3.org/1999/xlink">
    <title>形状结合</title>
    <g id="创建站点" stroke="none" stroke-width="1" fill="none" fill-rule="evenodd">
        <g id="安装2" transform="translate(-1495.000000, -1256.000000)" fill="#FF4D4F">
            <g id="编组-12" transform="translate(1495.000000, 1253.000000)">
                <path d="M6,3 C9.3137085,3 12,5.6862915 12,9 C12,12.3137085 9.3137085,15 6,15 C2.6862915,15 4.05812251e-16,12.3137085 0,9 C-4.05812251e-16,5.6862915 2.6862915,3 6,3 Z M5.664,11.924 C5.4,11.924 5.184,12.008 5.004,12.176 C4.824,12.344 4.74,12.56 4.74,12.824 C4.74,13.088 4.824,13.304 5.004,13.472 C5.184,13.64 5.4,13.736 5.664,13.736 C5.928,13.736 6.144,13.652 6.324,13.484 C6.504,13.316 6.6,13.088 6.6,12.824 C6.6,12.56 6.504,12.344 6.336,12.176 C6.156,12.008 5.928,11.924 5.664,11.924 Z M5.88,5 C4.992,5 4.296,5.252 3.78,5.756 C3.252,6.26 3,6.956 3,7.844 L4.368,7.844 C4.368,7.34 4.464,6.944 4.668,6.668 C4.896,6.332 5.268,6.176 5.796,6.176 C6.204,6.176 6.528,6.284 6.756,6.512 C6.972,6.74 7.092,7.052 7.092,7.448 C7.092,7.748 6.984,8.036 6.768,8.3 L6.624,8.468 C5.844,9.164 5.376,9.668 5.22,9.992 C5.052,10.316 4.98,10.712 4.98,11.168 L4.98,11.336 L6.36,11.336 L6.36,11.168 C6.36,10.88 6.42,10.628 6.54,10.388 C6.648,10.172 6.804,9.968 7.02,9.788 C7.596,9.284 7.944,8.96 8.052,8.84 C8.34,8.456 8.496,7.964 8.496,7.364 C8.496,6.632 8.256,6.056 7.776,5.636 C7.296,5.204 6.66,5 5.88,5 Z" id="形状结合"></path>
            </g>
        </g>
    </g>
</svg>