<?xml version="1.0" encoding="UTF-8"?>
<svg width="14px" height="14px" viewBox="0 0 14 14" version="1.1" xmlns="http://www.w3.org/2000/svg" xmlns:xlink="http://www.w3.org/1999/xlink">
    <title>提示</title>
    <g id="创建站点" stroke="none" stroke-width="1" fill="none" fill-rule="evenodd">
        <g id="安装-状态修改" transform="translate(-1464.000000, -760.000000)" fill="#FAAD14" fill-rule="nonzero">
            <g id="编组-3" transform="translate(1440.000000, 736.000000)">
                <g id="提示" transform="translate(24.000000, 24.000000)">
                    <rect id="矩形" opacity="0" x="0" y="0" width="14" height="14"></rect>
                    <path d="M7,0 C3.10645497,0 0,3.10645497 0,7 C0,10.893545 3.10645497,14 7,14 C10.893545,14 14,10.893545 14,7 C14,3.10645497 10.893545,0 7,0 Z M6.46798542,3.63118168 C6.61374284,3.48542426 6.73763665,3.38885997 6.97267048,3.38885997 C7.23503384,3.36881832 7.47735554,3.49271213 7.57391983,3.67855284 C7.68505986,3.80973451 7.74700677,4.10124935 7.71967725,4.27251432 C7.71967725,4.32170744 7.68505986,4.6460177 7.67048412,4.73529412 L7.47735554,7.19130661 C7.47735554,7.43362832 7.42816242,7.67595003 7.33159813,7.86179073 C7.282405,8.00754815 7.13846955,8.10411244 6.943519,8.10411244 C6.79776158,8.10411244 6.65382613,8.00754815 6.604633,7.86179073 C6.50806871,7.61946903 6.45887559,7.42634045 6.45887559,7.19130661 L6.32769391,4.78448725 C6.27850078,4.34903696 6.27850078,4.49479438 6.27850078,4.25247267 C6.28032275,4.0192608 6.32951588,3.82431026 6.46798542,3.63118168 L6.46798542,3.63118168 Z M7.53201458,10.4161895 C7.38625716,10.5619469 7.19312858,10.6093181 7.04737116,10.6093181 C6.85424258,10.6093181 6.65929204,10.5601249 6.51535659,10.4161895 C6.36959917,10.2704321 6.27303488,10.0773035 6.27303488,9.84226965 C6.27303488,9.64914107 6.32222801,9.45419053 6.46616346,9.31025508 C6.61192087,9.16449766 6.80504945,9.06793337 6.99817803,9.06793337 C7.19130661,9.06793337 7.38625716,9.16449766 7.53019261,9.31025508 C7.67595003,9.45601249 7.72332119,9.64914107 7.72332119,9.84226965 C7.71967725,10.0773035 7.67048412,10.2704321 7.53201458,10.4161895 Z" id="形状"></path>
                </g>
            </g>
        </g>
    </g>
</svg>