<?xml version="1.0" encoding="UTF-8"?>
<svg width="46px" height="46px" viewBox="0 0 46 46" version="1.1" xmlns="http://www.w3.org/2000/svg" xmlns:xlink="http://www.w3.org/1999/xlink">
    <title>本地</title>
    <g id="创建站点" stroke="none" stroke-width="1" fill="none" fill-rule="evenodd">
        <g id="安装2" transform="translate(-357.000000, -476.000000)" fill="#FFD972" fill-rule="nonzero">
            <g id="本地" transform="translate(357.000000, 476.000000)">
                <path d="M26.631579,0 L19.368421,0 C16.6931579,0 14.5263158,2.16684213 14.5263158,4.84210525 L14.5263158,41.1578948 C14.5263158,43.8331579 16.6931579,46 19.368421,46 L26.631579,46 C29.3068421,46 31.4736842,43.8331579 31.4736842,41.1578948 L31.4736842,4.84210525 C31.4736842,2.16684207 29.3068421,0 26.631579,0 Z M26.0263158,38.7368421 L19.9736842,38.7368421 C18.9689474,38.7368421 18.1578948,37.9257895 18.1578948,36.9210526 C18.1578948,35.9163158 18.9689474,35.1052631 19.9736842,35.1052631 L26.0263158,35.1052631 C27.0310526,35.1052631 27.8421052,35.9163158 27.8421052,36.9210526 C27.8421052,37.9257895 27.0310526,38.7368421 26.0263158,38.7368421 Z M26.0263158,31.4736842 L19.9736842,31.4736842 C18.9689474,31.4736842 18.1578948,30.6626316 18.1578948,29.6578947 C18.1578948,28.6531579 18.9689474,27.8421052 19.9736842,27.8421052 L26.0263158,27.8421052 C27.0310526,27.8421052 27.8421052,28.6531579 27.8421052,29.6578947 C27.8421052,30.6626316 27.0310526,31.4736842 26.0263158,31.4736842 Z M26.0263158,24.2105263 L19.9736842,24.2105263 C18.9689474,24.2105263 18.1578948,23.3994737 18.1578948,22.3947368 C18.1578948,21.39 18.9689474,20.5789473 19.9736842,20.5789473 L26.0263158,20.5789473 C27.0310526,20.5789473 27.8421052,21.39 27.8421052,22.3947368 C27.8421052,23.3994737 27.0310526,24.2105263 26.0263158,24.2105263 Z M25.4210527,12.1052631 L20.5789473,12.1052631 C19.2473684,12.1052631 18.1578948,11.0157895 18.1578948,9.6842105 C18.1578948,8.35263153 19.2473684,7.2631579 20.5789473,7.2631579 L25.4210527,7.2631579 C26.7526316,7.2631579 27.8421052,8.35263159 27.8421052,9.6842105 C27.8421052,11.0157894 26.7526316,12.1052631 25.4210527,12.1052631 Z M6.05263155,12.1052631 L4.84210525,12.1052631 C2.16684207,12.1052631 0,14.2721053 0,16.9473684 L0,41.1578948 C0,43.8331579 2.16684213,46 4.84210525,46 L6.05263155,46 C8.72789473,46 10.8947369,43.8331579 10.8947369,41.1578948 L10.8947369,16.9473684 C10.8947369,14.2721052 8.72789473,12.1052631 6.05263155,12.1052631 L6.05263155,12.1052631 Z M6.65789472,38.7368421 L4.23684207,38.7368421 C3.23210521,38.7368421 2.4210526,37.9257895 2.4210526,36.9210526 C2.4210526,35.9163158 3.23210527,35.1052631 4.23684207,35.1052631 L6.65789472,35.1052631 C7.66263159,35.1052631 8.4736842,35.9163158 8.4736842,36.9210526 C8.4736842,37.9257895 7.66263159,38.7368421 6.65789472,38.7368421 L6.65789472,38.7368421 Z M6.65789472,31.4736842 L4.23684207,31.4736842 C3.23210521,31.4736842 2.4210526,30.6626316 2.4210526,29.6578947 C2.4210526,28.6531579 3.23210527,27.8421052 4.23684207,27.8421052 L6.65789472,27.8421052 C7.66263159,27.8421052 8.4736842,28.6531579 8.4736842,29.6578947 C8.4736842,30.6626316 7.66263159,31.4736842 6.65789472,31.4736842 L6.65789472,31.4736842 Z" id="形状"></path>
                <path d="M41.1578948,12.1052631 C43.8331579,12.1052631 46,14.2721052 46,16.9473684 L46,16.9473684 L46,41.1578948 C46,43.8331579 43.8331579,46 41.1578948,46 L41.1578948,46 L39.9473685,46 C37.2721053,46 35.1052631,43.8331579 35.1052631,41.1578948 L35.1052631,41.1578948 L35.1052631,16.9473684 C35.1052631,14.2721053 37.2721053,12.1052631 39.9473685,12.1052631 L39.9473685,12.1052631 Z M41.7631579,35.1052631 L39.3421053,35.1052631 C38.3373684,35.1052631 37.5263158,35.9163158 37.5263158,36.9210526 C37.5263158,37.9257895 38.3373684,38.7368421 39.3421053,38.7368421 L39.3421053,38.7368421 L41.7631579,38.7368421 C42.7678948,38.7368421 43.5789474,37.9257895 43.5789474,36.9210526 C43.5789474,35.9163158 42.7678948,35.1052631 41.7631579,35.1052631 L41.7631579,35.1052631 Z M41.7631579,27.8421052 L39.3421053,27.8421052 C38.3373684,27.8421052 37.5263158,28.6531579 37.5263158,29.6578947 C37.5263158,30.6626316 38.3373684,31.4736842 39.3421053,31.4736842 L39.3421053,31.4736842 L41.7631579,31.4736842 C42.7678948,31.4736842 43.5789474,30.6626316 43.5789474,29.6578947 C43.5789474,28.6531579 42.7678948,27.8421052 41.7631579,27.8421052 L41.7631579,27.8421052 Z" id="形状结合"></path>
            </g>
        </g>
    </g>
</svg>