<?xml version="1.0" encoding="UTF-8"?>
<svg width="62px" height="24px" viewBox="0 0 62 24" version="1.1" xmlns="http://www.w3.org/2000/svg" xmlns:xlink="http://www.w3.org/1999/xlink">
    <title>cms</title>
    <g id="创建站点" stroke="none" stroke-width="1" fill="none" fill-rule="evenodd">
        <g id="安装1" transform="translate(-640.000000, -285.000000)" fill="#FFFFFF" fill-rule="nonzero">
            <g id="cms" transform="translate(640.000000, 285.000000)">
                <path d="M6.956,17.2061309 L6.46600511,20.1733669 L15.0446654,20.1733669 L16.5811418,18.9569897 L15.9729532,23.2463198 L0,23.2463198 L0.959,17.2061309 L6.956,17.2061309 Z M17.829529,9.73813091 L17.5094297,12.8110838 L7.68238231,12.8110838 L7.132,16.1391309 L1.128,16.1391309 L2.14466506,9.73813091 L17.829529,9.73813091 Z" id="形状结合"></path>
                <path d="M38.4115914,0 L42.6629338,4.27083196 L41.1754352,23.1182801 L35.637718,23.1182801 L36.8185286,8.81579329 L34.3537642,8.81579329 L33.1729536,23.1182801 L28.2754349,23.1182801 L29.8439213,5.25913481 L27.4111669,5.25913481 L25.8106706,23.1182801 L20.2729533,23.1182801 L22.1295291,1.53391432 L21.1336647,0 L38.4115914,0 Z M38.0559255,0.711331696 L37.7182672,4.98875084 L42.307268,4.98216366 L38.0559255,0.711331696 Z" id="形状"></path>
                <path d="M54.6453162,20.0382139 L54.9334056,17.8935488 L45.7145468,17.8935488 L46.9629339,9.60297789 L61.6875,9.60297789 L61.0793114,13.5722088 L55.7656636,13.5722088 L55.8616934,12.6759308 L52.1805519,12.6759308 L51.8604526,14.8205959 L60.7912221,14.8205959 L60.1510235,20.9665017 C60.0016439,21.5853603 59.6602047,22.0975191 59.1267059,22.5029782 C58.5932071,22.9084373 58.0170285,23.1111668 57.3981699,23.1111668 L45.1063582,23.1111668 L45.7145468,18.8218367 L46.6428346,20.0382139 L54.6453162,20.0382139 Z" id="路径"></path>
            </g>
        </g>
    </g>
</svg>