<?xml version="1.0" encoding="UTF-8"?>
<svg width="46px" height="46px" viewBox="0 0 46 46" version="1.1" xmlns="http://www.w3.org/2000/svg" xmlns:xlink="http://www.w3.org/1999/xlink">
    <title>重启</title>
    <g id="创建站点" stroke="none" stroke-width="1" fill="none" fill-rule="evenodd">
        <g id="安装4" transform="translate(-576.000000, -1079.000000)">
            <g id="编组-4" transform="translate(146.000000, 867.000000)">
                <g id="重启" transform="translate(430.000000, 212.000000)">
                    <polygon id="路径" points="0 0 46 0 46 46 0 46"></polygon>
                    <path d="M23,42.1666667 C12.41425,42.1666667 3.83333333,33.58575 3.83333333,23 C3.83333333,12.41425 12.41425,3.83333333 23,3.83333333 C33.58575,3.83333333 42.1666667,12.41425 42.1666667,23 C42.1666667,33.58575 33.58575,42.1666667 23,42.1666667 Z M32.2383333,32.729 C37.3034372,27.9094826 37.8183342,20.0081266 33.4215447,14.5720189 C29.0247552,9.13591114 21.1903531,7.98756883 15.4184209,11.9331769 C9.64648866,15.878785 7.87213239,23.5955334 11.3410254,29.6659375 C14.8099184,35.7363417 22.3590748,38.1252293 28.6886667,35.1555 L26.8199167,31.79175 C22.9347145,33.4803329 18.4018019,32.4176753 15.6718694,29.1782963 C12.9419368,25.9389172 12.6627688,21.2914875 14.9852958,17.7486106 C17.3078227,14.2057336 21.6809331,12.6080971 25.7403327,13.8194531 C29.7997324,15.0308091 32.5821679,18.7637154 32.5833333,23 L26.8333333,23 L32.2383333,32.729 L32.2383333,32.729 Z" id="形状" fill="#78A2FF" fill-rule="nonzero"></path>
                </g>
            </g>
        </g>
    </g>
</svg>