<?xml version="1.0" encoding="UTF-8"?>
<svg width="48px" height="48px" viewBox="0 0 48 48" version="1.1" xmlns="http://www.w3.org/2000/svg" xmlns:xlink="http://www.w3.org/1999/xlink">
    <title>启动</title>
    <g id="创建站点" stroke="none" stroke-width="1" fill="none" fill-rule="evenodd">
        <g id="安装4" transform="translate(-255.000000, -1079.000000)">
            <g id="编组-4" transform="translate(146.000000, 867.000000)">
                <g id="启动" transform="translate(109.000000, 212.000000)">
                    <polygon id="路径" points="0 0 48 0 48 48 0 48"></polygon>
                    <path d="M6,6 L42,6 C43.1045695,6 44,6.8954305 44,8 L44,40 C44,41.1045695 43.1045695,42 42,42 L6,42 C4.8954305,42 4,41.1045695 4,40 L4,8 C4,6.8954305 4.8954305,6 6,6 Z M24,30 L24,34 L36,34 L36,30 L24,30 Z M16.828,24 L11.172,29.656 L14,32.486 L22.486,24 L14,15.514 L11.172,18.344 L16.828,24 Z" id="形状" fill="#FFD972" fill-rule="nonzero"></path>
                </g>
            </g>
        </g>
    </g>
</svg>