<?xml version="1.0" encoding="UTF-8"?>
<svg width="60px" height="43px" viewBox="0 0 60 43" version="1.1" xmlns="http://www.w3.org/2000/svg" xmlns:xlink="http://www.w3.org/1999/xlink">
    <title>远程</title>
    <g id="创建站点" stroke="none" stroke-width="1" fill="none" fill-rule="evenodd">
        <g id="安装2" transform="translate(-672.000000, -481.000000)" fill="#78A2FF" fill-rule="nonzero">
            <g id="远程" transform="translate(672.000000, 481.000000)">
                <path d="M48.240625,12.765625 C47.3,5.50937496 41.11875,0 33.59375,0 C27.278125,0 21.903125,3.89687502 19.753125,9.40624999 L18.8125,9.40624999 C14.378125,9.40624999 10.615625,12.496875 9.67500001,16.6625 C4.03125,18.275 0,23.515625 0,29.5625 C0,36.953125 6.04687501,43 13.4375,43 L44.34375,43 C52.540625,42.596875 59.125,35.878125 59.125,27.546875 C59.125,20.559375 54.55625,14.78125 48.240625,12.765625 L48.240625,12.765625 Z M22.84375,34.9375 C22.84375,36.415625 21.634375,37.625 20.15625,37.625 L16.125,37.625 C14.646875,37.625 13.4375,36.415625 13.4375,34.9375 L13.4375,20.15625 C13.4375,18.678125 14.646875,17.46875 16.125,17.46875 L20.15625,17.46875 C21.634375,17.46875 22.84375,18.678125 22.84375,20.15625 L22.84375,34.9375 Z M31.578125,36.28125 L27.546875,36.28125 C26.471875,36.28125 25.53125,35.3406251 25.53125,34.265625 C25.53125,33.190625 26.471875,32.25 27.546875,32.25 L31.578125,32.25 C32.653125,32.25 33.59375,33.190625 33.59375,34.265625 C33.59375,35.3406251 32.653125,36.28125 31.578125,36.28125 Z M31.578125,29.5625 L27.546875,29.5625 C26.471875,29.5625 25.53125,28.621875 25.53125,27.546875 C25.53125,26.471875 26.471875,25.53125 27.546875,25.53125 L31.578125,25.53125 C32.653125,25.53125 33.59375,26.471875 33.59375,27.546875 C33.59375,28.621875 32.653125,29.5625 31.578125,29.5625 Z M31.578125,22.84375 L27.546875,22.84375 C26.471875,22.84375 25.53125,21.903125 25.53125,20.828125 C25.53125,19.753125 26.471875,18.8125 27.546875,18.8125 L31.578125,18.8125 C32.653125,18.8125 33.59375,19.753125 33.59375,20.828125 C33.59375,21.903125 32.653125,22.84375 31.578125,22.84375 Z M45.6875,34.9375 C45.6875,36.415625 44.478125,37.625 43,37.625 L38.96875,37.625 C37.490625,37.625 36.28125,36.415625 36.28125,34.9375 L36.28125,20.15625 C36.28125,18.678125 37.490625,17.46875 38.96875,17.46875 L43,17.46875 C44.478125,17.46875 45.6875,18.678125 45.6875,20.15625 L45.6875,34.9375 Z M40.984375,25.53125 C39.909375,25.53125 38.96875,26.471875 38.96875,27.546875 C38.96875,28.621875 39.909375,29.5625 40.984375,29.5625 C42.059375,29.5625 43,28.621875 43,27.546875 C43,26.471875 42.059375,25.53125 40.984375,25.53125 Z M18.140625,25.53125 C17.065625,25.53125 16.125,26.471875 16.125,27.546875 C16.125,28.621875 17.065625,29.5625 18.140625,29.5625 C19.215625,29.5625 20.15625,28.621875 20.15625,27.546875 C20.15625,26.471875 19.215625,25.53125 18.140625,25.53125 Z" id="形状"></path>
            </g>
        </g>
    </g>
</svg>