<?xml version="1.0" standalone="no"?><!DOCTYPE svg PUBLIC "-//W3C//DTD SVG 1.1//EN" "http://www.w3.org/Graphics/SVG/1.1/DTD/svg11.dtd"><svg t="1711003353010" class="icon" viewBox="0 0 1152 1024" version="1.1" xmlns="http://www.w3.org/2000/svg" p-id="36589" xmlns:xlink="http://www.w3.org/1999/xlink" width="225" height="200"><path d="M1071.36 521.18L896 642.1V894l175.32 120.78c34 23.36 80.64-0.46 80.64-41.26V562.44c0.04-40.64-46.5-64.64-80.6-41.26zM736.4 576H32a32 32 0 0 0-32 32v64a32 32 0 0 0 32 32h96v224.4a95.62 95.62 0 0 0 95.6 95.6h512.8a95.62 95.62 0 0 0 95.6-95.6V671.6a95.62 95.62 0 0 0-95.6-95.6zM704 0c-97.14 0-180.62 54.74-224 134.46C436.62 54.74 353.14 0 256 0a256 256 0 0 0 0 512h448a256 256 0 0 0 0-512zM256 384a128 128 0 1 1 128-128 128.14 128.14 0 0 1-128 128z m448 0a128 128 0 1 1 128-128 128.14 128.14 0 0 1-128 128z" p-id="36590"></path></svg>