<?xml version="1.0" encoding="UTF-8"?>
<svg width="80px" height="80px" viewBox="0 0 80 80" version="1.1" xmlns="http://www.w3.org/2000/svg" xmlns:xlink="http://www.w3.org/1999/xlink">
    <title>网络加速</title>
    <defs>
        <linearGradient x1="50%" y1="0%" x2="50%" y2="99.2597247%" id="linearGradient-1">
            <stop stop-color="#FFD37F" offset="0%"></stop>
            <stop stop-color="#FF9A27" offset="100%"></stop>
        </linearGradient>
        <rect id="path-2" x="0" y="0" width="80" height="80" rx="6"></rect>
    </defs>
    <g id="网站工具" stroke="none" stroke-width="1" fill="none" fill-rule="evenodd">
        <g id="网络加速管理" transform="translate(-296.000000, -109.000000)">
            <g id="网络加速" transform="translate(296.000000, 109.000000)">
                <g id="矩形-2">
                    <mask id="mask-3" fill="white">
                        <use xlink:href="#path-2"></use>
                    </mask>
                    <use id="矩形" fill="url(#linearGradient-1)" xlink:href="#path-2"></use>
                    <polygon id="矩形" fill="#FFFFFF" opacity="0.171340216" mask="url(#mask-3)" transform="translate(39.137039, -4.252250) rotate(-30.000000) translate(-39.137039, 4.252250) " points="-60.9625832 -47.0031426 138.215988 -44.5906433 139.236661 38.4986424 -59.9419104 36.0861431"></polygon>
                </g>
                <g id="编组" transform="translate(15.000000, 15.000000)" fill="#FFFFFF" fill-rule="nonzero">
                    <path d="M1.60269586,16.3741285 C1.60269586,16.3741285 5.97901469,2.82662268 21.0897005,0.250103173 C21.0897005,0.250103173 18.777683,3.57464447 16.5482375,8.89391055 C16.5482375,8.89391055 11.9242025,8.39522936 10.8507658,13.1327007 C10.8507658,13.1327007 5.89644264,14.0469496 1.60269586,16.3741285 Z M10.9333379,15.8754473 C10.9333379,15.8754473 4.57528978,17.2052638 0.446687107,20.2804645 C0.446687107,20.2804645 -1.70018628,29.256726 3.41928103,37.7343063 C3.41928103,37.7343063 8.70389245,38.8978958 13.9885039,38.316101 C13.9885039,38.316101 13.9885039,34.9915597 16.1353773,33.3292891 C16.1353773,33.3292891 13.4930716,26.5139794 14.153648,19.2831021 C14.23622,19.2831021 11.5939143,18.6181938 10.9333379,15.8754473 L10.9333379,15.8754473 Z M5.64872648,40.809507 C5.64872648,40.809507 12.4196349,51.2818121 28.025753,49.8688821 C28.025753,49.8688821 22.4934254,44.549616 21.3374166,42.8042318 C21.3374166,42.8042318 16.9610978,43.8847077 15.4748008,40.809507 C15.4748008,40.809507 9.8599012,41.6406423 5.64872648,40.809507 Z M23.5668621,41.2250747 C23.5668621,41.2250747 24.6402988,40.7263935 25.053159,38.149874 C25.053159,38.149874 33.7232247,35.0746733 39.0904081,26.8464336 C39.0904081,26.8464336 40.8244213,26.9295471 41.98043,26.0152982 C41.98043,26.0152982 46.0264606,29.8385207 47.9256179,34.8253327 C47.9256179,34.8253327 44.1273034,45.7132054 31.9066395,49.2039738 C31.9066395,49.1208603 26.3743119,45.4638648 23.5668621,41.2250747 L23.5668621,41.2250747 Z M45.7787445,11.304203 C45.7787445,11.304203 52.1367926,18.6181938 49.2467707,31.0021102 C49.2467707,31.0021102 45.6961724,25.2672764 43.9621593,24.0205735 C43.9621593,24.0205735 45.5310283,20.9453728 43.7144431,18.7013074 C43.7970152,18.7013074 45.4484562,15.3767661 45.7787445,11.304203 L45.7787445,11.304203 Z M19.1079712,9.72504588 C19.1079712,9.72504588 20.9245564,11.2210895 21.0071284,12.6340195 C21.0071284,12.6340195 28.8514735,13.1327007 35.6223819,17.4546044 C35.6223819,17.4546044 38.6775479,14.9611984 41.5675697,16.7896961 C41.5675697,16.7896961 43.2190108,13.797609 43.549299,8.31211582 C43.549299,8.31211582 37.5215391,0.250103173 24.8054429,0.000762575754 C24.8880149,-0.0823509567 19.9336917,6.64984517 19.1079712,9.72504588 Z M16.9610978,19.4493292 C16.9610978,19.4493292 20.5942682,19.6986698 21.2548446,15.2936526 C21.2548446,15.2936526 28.4386132,15.9585608 34.218657,19.4493292 C34.218657,19.4493292 32.8149321,23.8543464 36.3655304,26.0152982 C36.3655304,26.0152982 32.73236,31.5007914 24.5577267,35.4071274 C24.5577267,35.4071274 22.9062857,31.6670184 18.6951109,32.3319267 C18.777683,32.2488132 17.0436699,28.9242719 16.9610978,19.4493292 Z" id="形状"></path>
                </g>
            </g>
        </g>
    </g>
</svg>