<?xml version="1.0" encoding="UTF-8"?>
<svg width="13px" height="13px" viewBox="0 0 13 13" version="1.1" xmlns="http://www.w3.org/2000/svg" xmlns:xlink="http://www.w3.org/1999/xlink">
    <title>返回</title>
    <g id="数据库管理" stroke="none" stroke-width="1" fill="none" fill-rule="evenodd">
        <g id="资源库管理-采集备份-2" transform="translate(-222.000000, -90.000000)" fill="#4B82FA" fill-rule="nonzero">
            <g id="返回" transform="translate(222.000000, 90.000000)">
                <rect id="矩形" opacity="0" x="0" y="0" width="13" height="13"></rect>
                <path d="M12.0275391,10.96875 C11.3394531,8.85751953 9.34628906,7.34931641 6.99511719,7.30615234 C6.70185547,7.30107422 6.42509766,7.30742188 6.16230469,7.32519531 L6.16230469,9.41103516 C6.16357422,9.41738281 6.16484375,9.42373047 6.16484375,9.43007812 C6.16484375,9.48085937 6.12294922,9.52275391 6.07216797,9.52275391 C6.03789063,9.52275391 6.00869141,9.50498047 5.99345703,9.47832031 L5.99345703,9.48720703 L0.8734375,5.90839844 L0.900097656,5.90839844 C0.849316406,5.90839844 0.807421875,5.86650391 0.807421875,5.81572266 C0.807421875,5.77890625 0.829003906,5.74716797 0.859472656,5.73193359 L5.9921875,2.14550781 L5.9921875,2.15439453 C6.00869141,2.12773438 6.03789063,2.10996094 6.07089844,2.10996094 C6.12167969,2.10996094 6.16357422,2.15185547 6.16357422,2.20263672 C6.16357422,2.20898438 6.16230469,2.21533203 6.16103516,2.22167969 L6.16103516,4.2453125 C6.39589844,4.23388672 6.6421875,4.23007813 6.90117188,4.23515625 C9.82236328,4.28466797 12.1913289,6.73486328 12.1913289,9.65732422 C12.1925781,10.1080078 12.1341797,10.5485352 12.0275391,10.96875 Z M6.2292513,2.06442708 L6.2292513,2.08609375 L6.18591797,2.08609375 L6.2292513,2.06442708 Z M6.2244694,9.66138672 L6.1919694,9.63972005 L6.2244694,9.63972005 L6.2244694,9.66138672 Z" id="形状"></path>
            </g>
        </g>
    </g>
</svg>