<?xml version="1.0" encoding="UTF-8"?>
<svg width="29px" height="29px" viewBox="0 0 29 29" version="1.1" xmlns="http://www.w3.org/2000/svg" xmlns:xlink="http://www.w3.org/1999/xlink">
    <title>关闭小</title>
    <g id="更新说明" stroke="none" stroke-width="1" fill="none" fill-rule="evenodd">
        <g id="重启提示" transform="translate(-945.000000, -768.000000)" fill="#FFFFFF" fill-rule="nonzero">
            <g id="关闭小" transform="translate(945.000000, 768.000000)">
                <rect id="矩形" opacity="0" x="0" y="0" width="29" height="29"></rect>
                <path d="M14.5,29 C6.492375,29 0,22.507625 0,14.5 C0,6.492375 6.492375,0 14.5,0 C22.507625,0 29,6.492375 29,14.5 C29,22.507625 22.507625,29 14.5,29 Z M14.5,12.7914355 L8.51393555,6.80287891 C8.28720355,6.57774563 7.98032231,6.45190488 7.66080533,6.45304146 C7.34128836,6.45417804 7.03531015,6.58219885 6.81018555,6.80893945 C6.5825472,7.0335824 6.45390397,7.33973766 6.45275872,7.65955383 C6.45162869,7.97936999 6.57809058,8.28643271 6.804125,8.51268945 L12.7914072,14.5 L6.80290723,20.4860645 C6.57777395,20.7127965 6.4519332,21.0196777 6.45306978,21.3391947 C6.45420636,21.6587116 6.58222717,21.9646898 6.80896777,22.1898145 C7.03361072,22.4174528 7.33976599,22.546096 7.65958215,22.5472413 C7.97939831,22.5483713 8.28646103,22.4219094 8.51271777,22.195875 L14.5,16.2085928 L20.4860645,22.195875 C20.7127927,22.421012 21.0196718,22.5468578 21.3391888,22.5457266 C21.6587058,22.5445953 21.9646861,22.4165796 22.1898145,22.1898428 C22.4174528,21.9651998 22.546096,21.6590446 22.5472413,21.3392284 C22.5483713,21.0194122 22.4219094,20.7123495 22.195875,20.4860928 L16.2085928,14.5 L22.195875,8.51393555 C22.421012,8.28720729 22.5468578,7.98032817 22.5457266,7.6608112 C22.5445953,7.34129423 22.4165796,7.03531392 22.1898428,6.81018555 C21.9651998,6.5825472 21.6590446,6.45390397 21.3392284,6.45275872 C21.0194122,6.45162869 20.7123495,6.57809058 20.4860928,6.804125 L14.5,12.7914072 L14.5,12.7914355 Z" id="形状"></path>
            </g>
        </g>
    </g>
</svg>