<?xml version="1.0" encoding="UTF-8"?>
<svg width="80px" height="80px" viewBox="0 0 80 80" version="1.1" xmlns="http://www.w3.org/2000/svg" xmlns:xlink="http://www.w3.org/1999/xlink">
    <title>编组 47</title>
    <defs>
        <linearGradient x1="50%" y1="0%" x2="50%" y2="99.2597247%" id="linearGradient-1">
            <stop stop-color="#B2C5FF" offset="0%"></stop>
            <stop stop-color="#6383FF" offset="100%"></stop>
        </linearGradient>
        <rect id="path-2" x="0" y="0" width="80" height="80" rx="6"></rect>
    </defs>
    <g id="网站工具" stroke="none" stroke-width="1" fill="none" fill-rule="evenodd">
        <g id="数据转换" transform="translate(-296.000000, -109.000000)">
            <g id="编组-47" transform="translate(296.000000, 109.000000)">
                <g id="矩形-2">
                    <mask id="mask-3" fill="white">
                        <use xlink:href="#path-2"></use>
                    </mask>
                    <use id="矩形" fill="url(#linearGradient-1)" xlink:href="#path-2"></use>
                    <polygon id="矩形" fill="#FFFFFF" opacity="0.171340216" mask="url(#mask-3)" transform="translate(39.137039, -4.252250) rotate(-30.000000) translate(-39.137039, 4.252250) " points="-60.9625832 -47.0031426 138.215988 -44.5906433 139.236661 38.4986424 -59.9419104 36.0861431"></polygon>
                </g>
                <g id="编组" transform="translate(15.000000, 15.000000)" fill="#FFFFFF" fill-rule="nonzero">
                    <path d="M50,20.8955224 L50,3.23383087 C50,1.74129355 48.75,0.497512477 47.25,0.497512477 L28.75,0.497512477 C27.25,0.497512477 26,1.74129355 26,3.23383087 L26,20.8955224 C26,22.3880597 27.25,23.6318408 28.75,23.6318408 L47.25,23.6318408 C48.75,23.6318408 50,22.3880598 50,20.8955224 Z M2.75000004,26.3681592 C1.25000004,26.3681592 0,27.6119403 0,29.1044776 L0,46.7661692 C0,48.2587065 1.24999998,49.5024876 2.75000004,49.5024876 L21.25,49.5024876 C22.75,49.5024876 24,48.2587065 24,46.7661692 L24,29.1044776 C24,27.6119403 22.75,26.3681592 21.25,26.3681592 L2.75000004,26.3681592 L2.75000004,26.3681592 Z M13,14.4278607 L10.25,14.4278607 C10.25,9.70149254 14.25,5.72139307 19,5.72139307 L20,5.72139307 C20.75,5.72139307 21.25,5.22388066 21.25,4.47761194 L21.25,1.24378113 C21.25,0.497512477 20.75,0 20,0 L19,0 C11,0 4.50000004,6.46766173 4.50000004,14.4278607 L1.25000004,14.4278607 C0.750000058,14.4278607 0.500000039,14.9253731 0.500000039,15.4228856 C0.500000039,15.6716418 0.500000039,15.6716418 0.749999999,15.920398 L6.25000001,22.1393035 C6.74999999,22.6368159 7.50000004,22.6368159 8.00000004,22.1393035 L13.5,15.920398 C13.75,15.6716418 13.75,15.1741294 13.5,14.9253731 C13.25,14.6766169 13.25,14.4278607 13,14.4278607 Z M37,35.3233831 L39.75,35.3233831 C39.75,40.0497513 35.75,44.0298507 31,44.0298507 L30,44.0298507 C29.25,44.0298507 28.75,44.5273632 28.75,45.2736319 L28.75,48.7562189 C28.75,49.5024876 29.25,50 30,50 L31,50 C39,50 45.5,43.5323383 45.5,35.5721393 L48.75,35.5721393 C49.25,35.5721393 49.5,35.3233831 49.5,34.8258707 C49.5,34.5771144 49.5,34.5771144 49.25,34.3283582 L43.75,28.1094528 C43.25,27.6119404 42.5,27.6119404 42,28.1094528 L36.5,34.3283582 C36.25,34.5771144 36.25,35.0746269 36.5,35.3233831 C36.5,35.0746269 36.75,35.3233831 37,35.3233831 L37,35.3233831 Z" id="形状"></path>
                </g>
            </g>
        </g>
    </g>
</svg>