<?xml version="1.0" standalone="no"?><!DOCTYPE svg PUBLIC "-//W3C//DTD SVG 1.1//EN" "http://www.w3.org/Graphics/SVG/1.1/DTD/svg11.dtd"><svg t="1682066595272" class="icon" viewBox="0 0 1024 1024" version="1.1" xmlns="http://www.w3.org/2000/svg" p-id="4749" xmlns:xlink="http://www.w3.org/1999/xlink" width="30px" height="30px"><path d="M122.8 276.5v470.4c0 27.9 27.9 55.8 55.8 55.8h669.1c33.5 0 55.8-22.3 55.8-55.8V276.5c0-27.9-27.9-55.8-55.8-55.8H178.5c-33.4 0-55.7 22.3-55.7 55.8z m-55.8 0C67 215.2 117.2 165 178.5 165h669.1c61.3 0 111.5 50.2 111.5 111.5v470.4c0 61.3-50.2 111.5-111.5 111.5H178.5C117.2 858.4 67 808.2 67 746.8V276.5zM94.9 719l217.5-262.1c22.3-22.3 50.2-22.3 66.9 0L541 663.2l156.1-156.1c22.3-22.3 55.8-22.3 72.5 5.6L931.3 719l-27.9 94.8-752.7 16.7L94.9 719z m474-365.4c0 46.2 37.4 83.6 83.6 83.6 46.2 0 83.6-37.4 83.6-83.6 0-46.2-37.5-83.6-83.6-83.6-46.2-0.1-83.6 37.4-83.6 83.6z m0 0" fill="#707070" p-id="4750"></path></svg>