<?xml version="1.0" encoding="UTF-8"?>
<svg width="17px" height="17px" viewBox="0 0 17 17" version="1.1" xmlns="http://www.w3.org/2000/svg" xmlns:xlink="http://www.w3.org/1999/xlink">
    <title>下载</title>
    <g id="插件管理" stroke="none" stroke-width="1" fill="none" fill-rule="evenodd">
        <g id="高级设置-客服系统" transform="translate(-812.000000, -308.000000)" fill="#5A93FE" fill-rule="nonzero">
            <g id="编组-8" transform="translate(189.000000, 232.000000)">
                <g id="下载" transform="translate(623.000000, 76.000000)">
                    <rect id="矩形" opacity="0" x="0" y="0" width="17" height="17"></rect>
                    <path d="M13.8208008,8.63115234 L13.8208008,12.5175781 C13.8208008,13.2331055 13.2414063,13.8125 12.5258789,13.8125 L4.23505859,13.8125 C3.51953125,13.8125 2.94013672,13.2331055 2.94013672,12.5175781 L2.94013672,8.63115234 C2.94013672,7.915625 3.51953125,7.33623047 4.23505859,7.33623047 L5.37060547,7.33623047 C5.71591797,7.33623047 6.03466797,7.56201172 6.11767578,7.89736328 C6.36835938,8.91337891 7.28642578,9.66708984 8.38212891,9.66708984 C9.47783203,9.66708984 10.3925781,8.91337891 10.6449219,7.89736328 C10.7279297,7.56201172 11.0450195,7.33623047 11.3919922,7.33623047 L12.3416016,7.33623047 C13.2414063,7.33623047 13.8208008,7.915625 13.8208008,8.63115234 L13.8208008,8.63115234 Z" id="路径"></path>
                    <path d="M8.01523438,8.22109375 L6.07451172,6.28369141 C5.74746094,5.95664062 5.97822266,5.39716797 6.43974609,5.39716797 L7.34453125,5.39716797 L7.34453125,3.44980469 C7.34453125,3.16425781 7.57695313,2.93183594 7.8625,2.93183594 L8.8984375,2.93183594 C9.18398438,2.93183594 9.41640625,3.16425781 9.41640625,3.44980469 L9.41640625,5.39716797 L10.3211914,5.39716797 C10.7827148,5.39716797 11.0134766,5.95664062 10.6864258,6.28369141 L8.74570313,8.22109375 C8.54316406,8.42197266 8.21777344,8.42197266 8.01523438,8.22109375 L8.01523438,8.22109375 Z" id="路径"></path>
                </g>
            </g>
        </g>
    </g>
</svg>