<?xml version="1.0" encoding="UTF-8"?>
<svg width="40px" height="40px" viewBox="0 0 40 40" version="1.1" xmlns="http://www.w3.org/2000/svg" xmlns:xlink="http://www.w3.org/1999/xlink">
    <title>未开启</title>
    <g id="系统守护" stroke="none" stroke-width="1" fill="none" fill-rule="evenodd">
        <g transform="translate(-593.000000, -278.000000)" fill="#FF5252" fill-rule="nonzero" id="未开启">
            <g transform="translate(593.000000, 278.000000)">
                <rect id="矩形" opacity="0" x="0" y="0" width="40" height="40"></rect>
                <g id="关闭2-fill">
                    <rect id="矩形" opacity="0" x="0" y="0" width="40.0044633" height="40.0044633"></rect>
                    <path d="M20,0 C8.9728125,0 0,8.97142857 0,20 C0,31.0285714 8.97142857,40 20,40 C31.0271875,40 40,31.0285714 40,20 C40,8.97142857 31.0285714,0 20,0 Z M28.1585714,26.16 C28.7157143,26.72 28.7142857,27.6228571 28.1557589,28.18 C27.8882033,28.4473157 27.5253986,28.5973709 27.1471875,28.5971431 C26.7800446,28.5971431 26.4143304,28.4571429 26.1357143,28.1771429 L19.9928571,22.0157143 L13.83,28.1129018 C13.5514732,28.3871875 13.1885714,28.5257143 12.8257143,28.5257143 C12.4439459,28.5262118 12.0779777,28.373339 11.81,28.1014286 C11.2557143,27.54 11.26,26.6371429 11.8214732,26.0814286 L17.9771429,19.9928571 L11.8442411,13.84 C11.2870982,13.2813839 11.2885714,12.3771429 11.8470982,11.82 C12.4057143,11.2613839 13.3084821,11.2642857 13.8670982,11.8228125 L20.0085268,17.9828571 L26.1713839,11.8857143 C26.7313393,11.3300446 27.6370536,11.3357143 28.1913839,11.8971875 C28.7470536,12.4586161 28.7413839,13.3628571 28.1799107,13.9171875 L22.0242857,20.0056696 L28.1585714,26.16 L28.1585714,26.16 Z" id="形状"></path>
                </g>
            </g>
        </g>
    </g>
</svg>