<?xml version="1.0" encoding="UTF-8"?>
<svg width="40px" height="40px" viewBox="0 0 40 40" version="1.1" xmlns="http://www.w3.org/2000/svg" xmlns:xlink="http://www.w3.org/1999/xlink">
    <title>未启动</title>
    <g id="系统守护" stroke="none" stroke-width="1" fill="none" fill-rule="evenodd">
        <g transform="translate(-811.000000, -278.000000)" fill="#FFB82B" fill-rule="nonzero" id="未启动">
            <g transform="translate(811.000000, 278.000000)">
                <rect id="矩形" opacity="0" x="0" y="0" width="40" height="40"></rect>
                <path d="M20.0022316,40.0044633 C8.95537415,40.0044633 0,31.0490891 0,20.0022316 C0,8.95537415 8.95537415,0 20.0022316,0 C31.0490891,0 40.0044633,8.95537415 40.0044633,20.0022316 C40.0044633,31.0490891 31.0490891,40.0044633 20.0022316,40.0044633 Z M21.8774409,9.37604608 C21.8774409,8.34030553 21.0379722,7.50083687 20.0022316,7.50083687 C18.9664911,7.50083687 18.1270224,8.34030553 18.1270224,9.37604608 L18.1270224,23.1275803 C18.1270224,24.1633209 18.9664911,25.0027896 20.0022316,25.0027896 C21.0379722,25.0027896 21.8774409,24.1633209 21.8774409,23.1275803 L21.8774409,9.37604608 Z M20.0022316,28.753208 C18.9664911,28.753208 18.1270224,29.5926766 18.1270224,30.6284172 C18.1270224,31.6641578 18.9664911,32.5036264 20.0022316,32.5036264 C21.0379722,32.5036264 21.8774409,31.6641578 21.8774409,30.6284172 C21.8774409,29.5926766 21.0379722,28.753208 20.0022316,28.753208 Z" id="形状"></path>
            </g>
        </g>
    </g>
</svg>