<?xml version="1.0" encoding="UTF-8"?>
<svg width="40px" height="40px" viewBox="0 0 40 40" version="1.1" xmlns="http://www.w3.org/2000/svg" xmlns:xlink="http://www.w3.org/1999/xlink">
    <title>运行中</title>
    <g id="系统守护" stroke="none" stroke-width="1" fill="none" fill-rule="evenodd">
        <g transform="translate(-296.000000, -278.000000)" fill="#7EDE67" fill-rule="nonzero" id="运行中">
            <g transform="translate(296.000000, 278.000000)">
                <rect id="矩形" opacity="0" x="0" y="0" width="40" height="40"></rect>
                <path d="M20,40.0044633 C8.95335863,40.0044633 0,31.0511047 0,20.0044633 C0,8.95782191 8.95335863,0 20,0 C31.0466414,0 40,8.95335863 40,20 C40,31.0466414 31.0466414,40.0044633 20,40.0044633 Z M31.2742691,13.800491 C30.8814997,13.4121848 30.2521759,13.4121848 29.8594064,13.800491 L17.8353046,25.8245927 L11.4706539,19.459942 C11.0778844,19.0671725 10.4485606,19.0671725 10.0557911,19.459942 C9.66748494,19.8527114 9.66748494,20.4820353 10.0557911,20.8748047 L17.1301049,27.9446552 C17.5228744,28.3329614 18.1521982,28.3329614 18.5449676,27.9446552 L31.2742691,15.2153537 C31.6625753,14.8225842 31.6625753,14.1887971 31.2742691,13.800491 Z" id="形状"></path>
            </g>
        </g>
    </g>
</svg>