<?xml version="1.0" encoding="UTF-8"?>
<svg width="14px" height="14px" viewBox="0 0 14 14" version="1.1" xmlns="http://www.w3.org/2000/svg" xmlns:xlink="http://www.w3.org/1999/xlink">
    <title>系统</title>
    <g id="系统守护" stroke="none" stroke-width="1" fill="none" fill-rule="evenodd">
        <g transform="translate(-400.000000, -108.000000)" fill="#4C83FF" id="系统">
            <path d="M410,120 C410.552285,120 411,120.447715 411,121 C411,121.552285 410.552285,122 410,122 L404,122 C403.447715,122 403,121.552285 403,121 C403,120.447715 403.447715,120 404,120 L410,120 Z M412,108 C413.104569,108 414,108.895431 414,110 L414,116 C414,117.104569 413.104569,118 412,118 L402,118 C400.895431,118 400,117.104569 400,116 L400,110 C400,108.895431 400.895431,108 402,108 L412,108 Z M407.771094,109 L405.352021,116.78949 L406.228193,117.004521 L408.647266,109.215013 L407.771094,109 Z M409.428613,110.716514 L408.78584,111.287991 L410.714258,113.002247 L408.78584,114.716591 L409.428613,115.287981 L411.357129,113.573724 L412,113.002247 L411.357129,112.430857 L409.428613,110.716514 Z M404.571289,110.716514 L402.642773,112.430857 L402,113.002247 L402.642773,113.573724 L404.571289,115.287981 L405.214063,114.716591 L403.285645,113.002247 L405.214063,111.287991 L404.571289,110.716514 Z"></path>
        </g>
    </g>
</svg>