<?xml version="1.0" encoding="UTF-8"?>
<svg width="16px" height="16px" viewBox="0 0 16 16" version="1.1" xmlns="http://www.w3.org/2000/svg" xmlns:xlink="http://www.w3.org/1999/xlink">
    <title>证</title>
    <g id="应用管理" stroke="none" stroke-width="1" fill="none" fill-rule="evenodd">
        <g transform="translate(-133.000000, -493.000000)" fill-rule="nonzero" id="证">
            <g transform="translate(133.000000, 493.000000)">
                <rect id="矩形" fill="#000000" opacity="0" x="0" y="0" width="16" height="16"></rect>
                <path d="M8.1550332,0 L8.49652344,0.373869141 L8.53975841,0.416037593 C8.808138,0.667274448 10.3349179,1.95361523 13.4319512,1.95361523 C13.562416,1.95361523 13.6952012,1.95173437 13.8299902,1.94684766 L14.3090645,1.9305 L14.3090645,9.03072656 C14.3090645,10.8896484 13.688416,13.6010742 8.32163867,15.6754863 L8.15457617,15.7401738 L7.98742578,15.6754863 C2.62063086,13.6010566 2,10.8896484 2,9.03072656 L2,1.9305 L2.4790918,1.94684766 C5.99015062,2.06644508 7.60385996,0.58204943 7.79398657,0.393342358 L7.81306836,0.373851563 L8.1550332,0 Z M11.78125,4.85546875 L6.59375,4.85546875 L6.59375,5.88671875 L8.8828125,5.88671875 L8.8828125,10.6523438 L8.0390625,10.6523438 L8.0390625,6.75390625 L6.984375,6.75390625 L6.984375,10.6523438 L6.34375,10.6523438 L6.34375,11.6992188 L11.875,11.6992188 L11.875,10.6523438 L9.9375,10.6523438 L9.9375,8.67578125 L11.59375,8.67578125 L11.59375,7.65234375 L9.9375,7.65234375 L9.9375,5.88671875 L11.78125,5.88671875 L11.78125,4.85546875 Z M5.828125,6.69921875 L4.140625,6.69921875 L4.140625,7.71484375 L4.765625,7.71484375 L4.765625,10.1992188 C4.76041667,10.4283854 4.69270833,10.6236979 4.5625,10.7851562 L5.046875,11.6445312 C5.66145833,11.1236979 6.21614583,10.6888021 6.7109375,10.3398438 C6.60677083,9.85026042 6.54427083,9.49348958 6.5234375,9.26953125 L5.828125,9.81640625 L5.828125,6.69921875 Z M5.2421875,4.33203125 L4.3828125,4.87109375 C4.6796875,5.33984375 4.96875,5.82682292 5.25,6.33203125 C5.63541667,6.08723958 5.95052083,5.89973958 6.1953125,5.76953125 C5.86197917,5.23828125 5.54427083,4.75911458 5.2421875,4.33203125 Z" id="形状" fill="#FF7B49"></path>
            </g>
        </g>
    </g>
</svg>