<?xml version="1.0" encoding="UTF-8"?>
<svg width="48px" height="48px" viewBox="0 0 48 48" version="1.1" xmlns="http://www.w3.org/2000/svg" xmlns:xlink="http://www.w3.org/1999/xlink">
    <title>浏览器访问设置</title>
    <defs>
        <linearGradient x1="50%" y1="0%" x2="50%" y2="99.2597247%" id="linearGradient-1">
            <stop stop-color="#5ADFDF" offset="0%"></stop>
            <stop stop-color="#1DC7BF" offset="100%"></stop>
        </linearGradient>
        <rect id="path-2" x="0" y="0" width="48" height="48" rx="6"></rect>
    </defs>
    <g id="网站工具" stroke="none" stroke-width="1" fill="none" fill-rule="evenodd">
        <g transform="translate(-1624.000000, -720.000000)" id="浏览器访问设置">
            <g transform="translate(1624.000000, 720.000000)">
                <g id="矩形-2">
                    <mask id="mask-3" fill="white">
                        <use xlink:href="#path-2"></use>
                    </mask>
                    <use id="矩形" fill="url(#linearGradient-1)" xlink:href="#path-2"></use>
                    <polygon id="矩形" fill="#FFFFFF" opacity="0.171340216" mask="url(#mask-3)" transform="translate(23.482223, -2.551350) rotate(-30.000000) translate(-23.482223, 2.551350) " points="-36.5775499 -28.2018856 82.9295929 -26.754386 83.5419966 23.0991855 -35.9651462 21.6516859"></polygon>
                </g>
                <g id="服务器接口模块" transform="translate(7.200000, 7.200000)" fill="#FFFFFF" fill-rule="nonzero">
                    <rect id="矩形" opacity="0" x="0" y="0" width="33.6" height="33.6"></rect>
                    <g id="browser" transform="translate(1.200000, 1.800000)">
                        <rect id="矩形" opacity="0" x="0" y="0" width="30.6689506" height="30.6689506"></rect>
                        <path d="M29.313178,16.3038344 C29.313178,16.8149935 29.313178,17.3900362 29.2492944,17.9011952 L11.103493,17.9011952 C11.103493,21.0319732 13.8509391,23.3321439 16.8539198,23.3321439 C18.898526,23.3321439 20.8792186,22.3098558 21.9015367,20.5208141 L28.5464544,20.5208141 C26.7574427,25.568431 22.029304,28.9547735 16.6622389,28.9547735 C14.74543,28.9547735 12.828621,28.5075281 11.103493,27.6130073 C9.31448125,28.5075281 6.88651326,29.4659326 4.90582066,29.4659326 C2.22228812,29.4659326 1.2,27.8686018 1.2,25.3128365 C1.2,23.843303 1.51944819,22.4376231 1.96672358,21.0319732 C2.15840448,20.1374523 3.24457625,18.284557 3.69185164,17.3900362 C5.60866059,13.93978 8.10051223,10.4895239 11.1674066,7.86987505 C8.80332221,8.89219312 6.11978968,11.5118121 4.45857522,13.428621 C5.73642789,7.74210775 10.8479284,3.65289535 16.6622389,3.65289535 L17.4289625,3.65289535 C19.3457715,2.75840448 22.0932176,1.8 24.2655911,1.8 C26.7574427,1.8 28.9937298,2.75840448 28.9937298,5.63361791 C28.9937298,7.10315147 28.4186871,8.76439588 27.7797308,10.1700458 C28.8020489,12.0229711 29.313178,14.1953446 29.313178,16.3038344 L29.313178,16.3038344 Z M28.2270062,6.27254424 C28.2270062,4.48353253 26.9491236,3.46121446 25.2878792,3.46121446 C23.9461129,3.46121446 22.4765794,3.9723735 21.2625804,4.54741618 C23.8822293,5.56970431 25.9907191,7.35874596 27.3963691,9.65891671 C27.8436444,8.63659863 28.2270062,7.35874596 28.2270062,6.27254424 L28.2270062,6.27254424 Z M3.1806926,25.6323147 C3.1806926,27.48524 4.26689432,28.4436444 6.05590603,28.4436444 C7.46155594,28.4436444 8.99500311,27.8686018 10.2090021,27.1018782 C7.58935319,25.568431 5.67254424,23.2043467 4.71413976,20.3930468 C4.01129983,21.926494 3.1806926,23.9710703 3.1806926,25.6323147 Z M11.103493,14.4509391 L22.4765794,14.4509391 C22.4126658,11.4479284 19.6652496,9.27555491 16.7900362,9.27555491 C13.8509391,9.27555491 11.1674066,11.4479284 11.103493,14.4509391 Z" id="形状"></path>
                    </g>
                </g>
            </g>
        </g>
    </g>
</svg>