<?xml version="1.0" encoding="UTF-8"?>
<svg width="72px" height="72px" viewBox="0 0 72 72" version="1.1" xmlns="http://www.w3.org/2000/svg" xmlns:xlink="http://www.w3.org/1999/xlink">
    <title>操作简单</title>
    <defs>
        <linearGradient x1="50%" y1="0%" x2="50%" y2="100%" id="linearGradient-1">
            <stop stop-color="#85C3FF" offset="0%"></stop>
            <stop stop-color="#4E82ED" offset="100%"></stop>
        </linearGradient>
    </defs>
    <g id="登录" stroke="none" stroke-width="1" fill="none" fill-rule="evenodd">
        <g id="登录1" transform="translate(-462.000000, -411.000000)">
            <g id="编组-11" transform="translate(462.000000, 270.000000)">
                <g id="编组-9" transform="translate(0.000000, 38.000000)">
                    <g id="操作简单" transform="translate(0.000000, 103.000000)">
                        <rect id="矩形" fill="#000000" fill-rule="nonzero" opacity="0" x="0" y="0" width="72" height="72"></rect>
                        <g id="编组-10" transform="translate(2.000000, 12.000000)">
                            <path d="M29.0877246,22.4039021 L40.0707017,47.1156007 C40.2950058,47.6202848 40.0677128,48.2112466 39.5630287,48.4355507 C39.4351697,48.4923769 39.2968085,48.5217391 39.1568902,48.5217391 L17.1909359,48.5217391 C16.6386511,48.5217391 16.1909359,48.0740239 16.1909359,47.5217391 C16.1909359,47.3818208 16.2202981,47.2434597 16.2771243,47.1156007 L27.2601015,22.4039021 C27.4844056,21.8992179 28.0753673,21.6719249 28.5800515,21.896229 C28.806284,21.9967768 28.9871768,22.1776696 29.0877246,22.4039021 Z" id="三角形" fill="#FF9A8A"></path>
                            <rect id="矩形" fill="url(#linearGradient-1)" x="0" y="0" width="56.3478261" height="39.1304348" rx="4"></rect>
                            <g id="138设置、系统设置、功能设置、属性" transform="translate(15.000000, 7.000000)" fill="#FFFFFF" fill-rule="nonzero">
                                <rect id="矩形" opacity="0" x="0" y="0" width="26" height="26"></rect>
                                <path d="M24.1642578,10.8875 C24.1591797,10.8417969 24.1541016,10.8037109 24.1464844,10.7808594 L24.1464844,10.7605469 L24.1363281,10.7046875 C23.9560547,9.82617187 23.3746094,9.25996094 22.6509766,9.25996094 L22.5316406,9.25996094 C21.2976562,9.25996094 20.2972656,8.25449219 20.2972656,7.02558594 C20.2972656,6.74121094 20.4292969,6.3375 20.4851562,6.1953125 C20.8355469,5.37773438 20.4623047,4.44589844 19.5964844,3.97109375 L16.8720703,2.42988281 L16.8212891,2.41210938 C16.6181641,2.34609375 16.3820312,2.26738281 16.1179687,2.26738281 C15.6253906,2.26738281 15.071875,2.49589844 14.7291016,2.83867188 C14.3,3.26269531 13.4291016,3.89492188 12.9111328,3.89492188 C12.3957031,3.89492188 11.5222656,3.26523438 11.0931641,2.83867188 C10.7275391,2.478125 10.2222656,2.26738281 9.70429687,2.26738281 C9.43261719,2.26738281 9.20410156,2.34355469 9.00097656,2.41210938 L8.95527344,2.42988281 L6.09882812,3.97617188 L6.08105469,3.98632813 C5.38789062,4.42050781 5.10605469,5.41582031 5.45898437,6.20546875 L5.4640625,6.215625 L5.46914062,6.22578125 C5.525,6.35019531 5.69765625,6.77167969 5.69765625,7.13984375 C5.69765625,8.37382813 4.6921875,9.37421875 3.46328125,9.37421875 L3.34394531,9.37421875 C2.58730469,9.37421875 2.02109375,9.9328125 1.85859375,10.8291016 L1.8484375,10.8798828 L1.8484375,10.8976562 C1.8484375,10.9230469 1.83828125,10.9585937 1.83066406,11.0042969 C1.7671875,11.3876953 1.61484375,12.2916016 1.61484375,13.0304687 C1.61484375,13.7693359 1.76464844,14.6732422 1.83066406,15.0566406 C1.83574219,15.1023437 1.84082031,15.1404297 1.8484375,15.1632812 L1.8484375,15.1835937 L1.85859375,15.2394531 C2.03886719,16.1179688 2.6203125,16.6841797 3.34394531,16.6841797 L3.40488281,16.6841797 C4.63886719,16.6841797 5.63925781,17.6896484 5.63925781,18.9185547 C5.63925781,19.2029297 5.50722656,19.6066406 5.45136719,19.7488281 C5.11367187,20.5181641 5.43359375,21.5058594 6.18007812,22.0035156 L6.20039062,22.0136719 L8.89179687,23.5117187 L8.94257812,23.5294922 C9.14570312,23.5955078 9.37675781,23.6742187 9.64082031,23.6742187 C10.2044922,23.6742187 10.7123047,23.4583984 11.0296875,23.1029297 C11.0601562,23.0800781 11.090625,23.0496094 11.1261719,23.0191406 C11.4511719,22.7347656 12.3246094,21.9832031 12.9009766,21.9832031 C13.3300781,21.9832031 14.0486328,22.4326172 14.7722656,23.15625 C15.1378906,23.5167969 15.6431641,23.7275391 16.1611328,23.7275391 C16.5115234,23.7275391 16.7705078,23.6310547 17.0650391,23.4863281 L17.0751953,23.48125 L19.8351562,21.9552734 L19.8453125,21.9451172 C20.5384766,21.5109375 20.8203125,20.515625 20.4673828,19.7259766 L20.4623047,19.7158203 L20.4572266,19.7056641 C20.4521484,19.703125 20.2363281,19.2537109 20.2769531,18.85 L20.2820312,18.8246094 L20.2820312,18.7992188 C20.2820312,17.5652344 21.2875,16.5648438 22.5164062,16.5648438 L22.6433594,16.5648438 C23.4,16.5648438 23.9662109,16.00625 24.1287109,15.1099609 L24.1388672,15.0591797 L24.1388672,15.0414063 C24.1439453,15.0210938 24.1490234,14.990625 24.1566406,14.95 C24.2226562,14.5767578 24.3751259,13.7058594 24.3751259,12.9085938 C24.3800781,12.1722656 24.2302734,11.2708984 24.1642578,10.8875 L24.1642578,10.8875 Z M12.9923828,16.534375 C11.0398437,16.534375 9.45800781,14.9525391 9.45800781,13 C9.45800781,11.0474609 11.0398437,9.465625 12.9923828,9.465625 C14.9449219,9.465625 16.5267578,11.0474609 16.5267578,13 C16.5267578,14.9525391 14.9449219,16.534375 12.9923828,16.534375 L12.9923828,16.534375 Z" id="形状"></path>
                            </g>
                        </g>
                    </g>
                </g>
            </g>
        </g>
    </g>
</svg>