<?xml version="1.0" encoding="UTF-8"?>
<svg width="18px" height="18px" viewBox="0 0 18 18" version="1.1" xmlns="http://www.w3.org/2000/svg" xmlns:xlink="http://www.w3.org/1999/xlink">
    <title>加载_刷新</title>
    <g id="登录" stroke="none" stroke-width="1" fill="none" fill-rule="evenodd">
        <g id="登录8" transform="translate(-912.000000, -669.000000)" fill="#D8D8D8" fill-rule="nonzero">
            <g id="加载_刷新" transform="translate(912.000000, 669.000000)">
                <rect id="矩形" opacity="0" x="0" y="0" width="18" height="18"></rect>
                <path d="M11.8499941,15.4499941 L10.125,13.6499941 C12.375,13.3500059 14.175,11.475 14.175,9.22500586 C14.175,7.05000586 12.5249941,5.175 10.35,4.80000586 L8.775,3.22500586 L9.45,3.22500586 C12.9000059,3.22500586 15.6749941,5.92500586 15.6749941,9.22500586 C15.6749941,11.475 14.3249941,13.5 12.4500059,14.4750059 L12.4500059,15.975 L11.8499941,15.4499941 L11.8499941,15.4499941 Z M10.2000059,15.1500059 C9.97500586,15.1500059 9.675,15.2249941 9.37499414,15.2249941 C5.92500586,15.2249941 3.15,12.5249941 3.15,9.225 C3.15,6.975 4.5,4.95 6.37500586,3.97499414 L6.37500586,2.25 L7.34999414,3.22500586 L8.85000586,4.725 C6.525,4.95 4.725,6.89999414 4.725,9.225 C4.725,11.475 6.44999414,13.3500059 8.69999414,13.6499941 L10.2000059,15.1500059 Z" id="形状"></path>
            </g>
        </g>
    </g>
</svg>