<?xml version="1.0" encoding="UTF-8"?>
<svg width="55px" height="60px" viewBox="0 0 55 60" version="1.1" xmlns="http://www.w3.org/2000/svg" xmlns:xlink="http://www.w3.org/1999/xlink">
    <title>SSH终端</title>
    <defs>
        <path d="M19.0807642,1.20845704 L1.9607642,11.3538186 C0.745319777,12.0740945 2.49151288e-15,13.3821343 0,14.7949692 L0,34.1054676 C5.4439863e-15,35.5692445 0.799548236,36.9161172 2.08459148,37.6170499 L19.2045915,46.9552317 C20.3985014,47.6064553 21.8414986,47.6064553 23.0354085,46.9552317 L40.1554085,37.6170499 C41.4404518,36.9161172 42.24,35.5692445 42.24,34.1054676 L42.24,14.7949692 C42.24,13.3821343 41.4946802,12.0740945 40.2792358,11.3538186 L23.1592358,1.20845704 C21.9018465,0.463324487 20.3381535,0.463324487 19.0807642,1.20845704 Z" id="path-1"></path>
        <filter x="-21.3%" y="-14.6%" width="152.1%" height="145.8%" filterUnits="objectBoundingBox" id="filter-2">
            <feOffset dx="2" dy="4" in="SourceAlpha" result="shadowOffsetOuter1"></feOffset>
            <feGaussianBlur stdDeviation="3" in="shadowOffsetOuter1" result="shadowBlurOuter1"></feGaussianBlur>
            <feColorMatrix values="0 0 0 0 0.874509804   0 0 0 0 0.568627451   0 0 0 0 0.160784314  0 0 0 0.3 0" type="matrix" in="shadowBlurOuter1"></feColorMatrix>
        </filter>
    </defs>
    <g id="系统信息" stroke="none" stroke-width="1" fill="none" fill-rule="evenodd">
        <g id="系统信息--GZIP未开启" transform="translate(-1311.000000, -112.000000)" fill-rule="nonzero">
            <g id="SSH终端" transform="translate(1312.000000, 114.000000)">
                <rect id="矩形" fill="#000000" opacity="0" x="0" y="0" width="48" height="48"></rect>
                <g transform="translate(3.000000, 0.000000)">
                    <g id="路径">
                        <use fill="black" fill-opacity="1" filter="url(#filter-2)" xlink:href="#path-1"></use>
                        <use fill="#FFB553" xlink:href="#path-1"></use>
                    </g>
                    <path d="M20.938063,14 C23.9191604,14 26.5878639,15.8483809 27.6360555,18.639122 L33.3352448,18.639122 C34.1905219,18.6391486 34.883881,19.3324811 34.883881,20.1877582 L34.876126,32.5771368 C34.876126,33.4324516 34.1827564,34.1258212 33.3274416,34.1258212 L8.54868437,34.1258212 C8.13794774,34.1258212 7.74403381,33.9626567 7.45359915,33.6722221 C7.16316449,33.3817874 7,32.9878735 7,32.5771368 L7,20.1877582 C7,19.3324623 7.69338842,18.639122 8.54868437,18.639122 L14.2400705,18.639122 C15.2882621,15.8483809 17.9569656,14 20.938063,14 Z M31.7787573,21.7364907 L10.0973687,21.7364907 L10.0973687,31.0285006 L31.7787573,31.0285006 L31.7787573,21.7364907 Z M27.9070945,24.0594691 C28.1124628,24.0594691 28.3094198,24.1410514 28.4546371,24.2862687 C28.5998545,24.431486 28.6814367,24.628443 28.6814367,24.8338113 L28.6814367,27.9311319 C28.6814367,28.3587893 28.3347519,28.7054741 27.9070945,28.7054741 L21.7124052,28.7054741 C21.2847478,28.7054741 20.938063,28.3587893 20.938063,27.9311319 L20.938063,24.8338113 C20.938063,24.4061539 21.2847478,24.0594691 21.7124052,24.0594691 L27.9070945,24.0594691 Z M15.5177159,24.0594691 C16.4572968,24.0594691 17.3043596,24.6254616 17.6639172,25.493523 C18.0234747,26.3615845 17.8247176,27.3607634 17.1603267,28.0251406 C16.4959357,28.6895177 15.4967527,28.8882541 14.6286987,28.5286786 C13.7606447,28.169103 13.1946893,27.3220284 13.1946893,26.3824475 C13.1946893,25.0994942 14.2347625,24.0594691 15.5177159,24.0594691 Z M20.938063,15.1545822 C20.0827482,15.1545822 19.3893786,15.8479518 19.3893786,16.7032665 C19.3893786,17.5585813 20.0827482,18.2519509 20.938063,18.2519509 C21.7933778,18.2519509 22.4867474,17.5585813 22.4867474,16.7032665 C22.4867474,15.8479518 21.7933778,15.1545822 20.938063,15.1545822 Z" id="形状结合" fill="#FFFFFF"></path>
                </g>
            </g>
        </g>
    </g>
</svg>