<?xml version="1.0" encoding="UTF-8"?>
<svg width="48px" height="48px" viewBox="0 0 48 48" version="1.1" xmlns="http://www.w3.org/2000/svg" xmlns:xlink="http://www.w3.org/1999/xlink">
    <title>游客模式</title>
    <g id="会员系统" stroke="none" stroke-width="1" fill="none" fill-rule="evenodd">
        <g transform="translate(-312.000000, -275.000000)" id="编组-23">
            <g transform="translate(264.000000, 192.000000)">
                <g id="游客模式" transform="translate(48.000000, 83.000000)">
                    <rect id="矩形" fill="#F0EEFF" x="0" y="0" width="48" height="48" rx="6"></rect>
                    <g id="编组-3" transform="translate(8.000000, 10.000000)" fill-rule="nonzero">
                        <rect id="矩形" fill="#000000" opacity="0" x="0" y="0" width="32" height="32"></rect>
                        <g id="编组-6" transform="translate(4.000000, 0.000000)" fill="#9983FE">
                            <path d="M12.3885627,3.12487218 C12.3885627,4.85169925 10.9894574,6.25069173 9.26265292,6.25069173 C7.536683,6.25069173 6.13757773,4.85169925 6.13757773,3.12487218 C6.13757773,1.39901504 7.536683,2.2556391e-05 9.26265292,2.2556391e-05 C10.9894349,2.2556391e-05 12.3885627,1.39901504 12.3885627,3.12487218 Z M16.6077356,1.56293233 C16.6077356,2.42625564 15.9081492,3.12586466 15.0447356,3.12586466 C14.1813221,3.12586466 13.4818033,2.42634586 13.4818033,1.56293233 C13.4818033,0.699518797 14.1813221,0 15.0447356,0 C15.9081492,0 16.6077356,0.699518797 16.6077356,1.56293233 Z M21.139089,1.95293233 C21.139089,2.81636842 20.4396153,3.51586466 19.576089,3.51586466 C18.712698,3.51586466 18.0131792,2.81636842 18.0131792,1.95293233 C18.0131792,1.08949624 18.712698,0.390045113 19.5761116,0.390045113 C20.4395928,0.390045113 21.139089,1.08954135 21.139089,1.95295489 L21.139089,1.95293233 Z M24.8116755,3.98465414 C24.8116755,4.84806767 24.1121341,5.54758647 23.2486529,5.54758647 C22.3852394,5.54758647 21.6857206,4.84806767 21.6857206,3.98465414 C21.6857206,3.1212406 22.3852394,2.42176692 23.2486755,2.42176692 C24.1121116,2.42176692 24.8116755,3.12126316 24.8116755,3.98469925 L24.8116755,3.98465414 Z M11.0004875,8.00862406 C11.0004875,8.00862406 11.9965777,5.25448872 15.8055853,4.78576692 C15.8055853,4.78576692 21.6857206,4.37553383 22.6983672,10.1730226 C23.1928484,13.0058797 22.9867958,19.1420075 18.4425853,20.0758872 C17.345668,20.3011353 14.1647883,20.0209624 14.5750213,17.149782 C14.7197206,16.1343609 15.6719386,14.481812 14.5750213,13.0479248 C13.8131792,12.051812 10.0043071,11.7588271 11.0005101,8.00862406" id="形状"></path>
                            <path d="M7.11546411,17.2926972 C7.11546411,18.4932679 6.14147497,19.4659127 4.93935752,19.4659127 C3.73782108,19.4659127 2.76383194,18.4932679 2.76383194,17.2926972 C2.76383194,16.0928008 3.73782108,15.1201559 4.93935752,15.1201559 C6.14145926,15.1201559 7.11546411,16.0928008 7.11546411,17.2926972 Z M10.0526474,16.2067637 C10.0526474,16.8069864 9.56562929,17.2933872 8.96456271,17.2933872 C8.36349614,17.2933872 7.87652512,16.8070491 7.87652512,16.2067637 C7.87652512,15.6064784 8.36349614,15.1201403 8.96456271,15.1201403 C9.56562929,15.1201403 10.0526474,15.6064784 10.0526474,16.2067637 Z M13.2071556,16.4779099 C13.2071556,17.078211 12.720216,17.5645334 12.1190709,17.5645334 C11.51802,17.5645334 11.031049,17.078211 11.031049,16.4779099 C11.031049,15.8776089 11.51802,15.3913178 12.1190866,15.3913178 C12.7202003,15.3913178 13.2071556,15.8776402 13.2071556,16.4779256 L13.2071556,16.4779099 Z M15.7638319,17.8904577 C15.7638319,18.4907431 15.2768452,18.9770812 14.6757315,18.9770812 C14.074665,18.9770812 13.5876939,18.4907431 13.5876939,17.8904577 C13.5876939,17.2901723 14.074665,16.8038656 14.6757472,16.8038656 C15.2768295,16.8038656 15.7638319,17.290188 15.7638319,17.8904891 L15.7638319,17.8904577 Z M6.14915357,20.6881093 C6.14915357,20.6881093 6.84258321,18.7733059 9.49422927,18.4474287 C9.49422927,18.4474287 13.5876939,18.1622155 14.2926493,22.1929001 C14.6368831,24.1624345 14.4934393,28.4285568 11.3299806,29.0778336 C10.5663601,29.2344366 8.35198609,29.0396473 8.63757044,27.0434687 C8.73830303,26.3375006 9.40119099,25.1885716 8.63757044,24.1916663 C8.10721296,23.4991222 5.45566112,23.2954254 6.14916927,20.6881093" id="形状" opacity="0.5" transform="translate(9.263832, 22.120140) scale(-1, 1) rotate(33.000000) translate(-9.263832, -22.120140) "></path>
                        </g>
                    </g>
                </g>
            </g>
        </g>
    </g>
</svg>