<?xml version="1.0" encoding="UTF-8"?>
<svg width="80px" height="80px" viewBox="0 0 80 80" version="1.1" xmlns="http://www.w3.org/2000/svg" xmlns:xlink="http://www.w3.org/1999/xlink">
    <title>编组 3</title>
    <defs>
        <linearGradient x1="50%" y1="0%" x2="50%" y2="100%" id="linearGradient-1">
            <stop stop-color="#5EC3FF" offset="0%"></stop>
            <stop stop-color="#4F74F5" offset="100%"></stop>
        </linearGradient>
        <rect id="path-2" x="0" y="0" width="80" height="80" rx="6"></rect>
    </defs>
    <g id="网站工具" stroke="none" stroke-width="1" fill="none" fill-rule="evenodd">
        <g id="站外入库" transform="translate(-296.000000, -109.000000)">
            <g id="编组-3" transform="translate(296.000000, 109.000000)">
                <g id="矩形-2">
                    <mask id="mask-3" fill="white">
                        <use xlink:href="#path-2"></use>
                    </mask>
                    <use id="矩形" fill="url(#linearGradient-1)" xlink:href="#path-2"></use>
                    <polygon id="矩形" fill="#FFFFFF" opacity="0.171340216" mask="url(#mask-3)" transform="translate(39.137039, -4.252250) rotate(-30.000000) translate(-39.137039, 4.252250) " points="-60.9625832 -47.0031426 138.215988 -44.5906433 139.236661 38.4986424 -59.9419104 36.0861431"></polygon>
                </g>
                <g id="编组" transform="translate(16.000000, 15.000000)" fill-rule="nonzero">
                    <path d="M5.62494675,0 L25.1186336,0 C25.1244637,2.15731539 25.1093251,4.31463079 25.1265214,6.47199517 C25.2107877,8.74356 26.3051718,11.1762596 28.4664066,12.1588929 C29.1917337,12.4833182 29.9978487,12.5436274 30.7824561,12.5342699 C33.0888053,12.5352498 35.3946156,12.5303506 37.7008668,12.5367195 C37.7047861,16.6778695 37.7042962,20.8195584 37.7008668,24.9611493 C35.4430197,24.7313277 33.1182005,24.9302353 30.9847933,25.7355175 C28.1423732,26.7896791 25.6591628,28.7818424 24.0169007,31.331241 C19.1327865,31.3405495 14.2487212,31.3287914 9.36465597,31.3370711 C8.38109182,31.3297223 7.44402111,31.8550639 6.87012838,32.6416311 C6.23303592,33.47915 6.10609755,34.6485409 6.47461566,35.6248053 C6.9327892,36.7765101 8.11883744,37.6105505 9.3675465,37.5968328 C13.5145265,37.6032017 17.6616045,37.5978126 21.8085846,37.5992824 C21.516984,40.9171701 22.3319665,44.3417626 24.2628407,47.0744895 C18.366257,47.0752243 12.4696244,47.0752243 6.57255074,47.0744895 C5.77716501,47.0842879 5.00480553,46.83144 4.30157382,46.4761007 C2.89550234,45.7595432 1.67574757,44.6638362 0.842588976,43.3210135 C0.306469106,42.4941748 -0.00673699171,41.5189883 0.00453117698,40.5295451 C0.00262048751,29.2906737 0.0050700894,18.0517042 0.00355133623,6.81229387 C-0.0660173575,4.90640561 0.894030616,3.09110363 2.22308662,1.77674524 C3.15271053,0.877447397 4.30588512,0.120814365 5.62470179,0 M8.89423442,18.8428767 C7.83414471,19.0001901 6.89717198,19.7587828 6.48745157,20.7438657 C6.08806848,21.7598136 6.23803311,22.9923553 6.93636562,23.8445718 C7.52147752,24.6007639 8.45364903,25.0810818 9.41619559,25.0658943 C15.7043236,25.067805 21.9930396,25.0698137 28.2817066,25.0649145 C29.7779234,25.080151 31.1565104,23.8598573 31.3524295,22.3832373 C31.694002,20.588512 30.1419342,18.7884955 28.3310905,18.8042709 C22.1237504,18.7954524 15.9164592,18.8032911 9.70916798,18.8003516 C9.43662527,18.7998127 9.16320071,18.7998127 8.89418543,18.8430236 L8.89423442,18.8428767 Z M28.2806777,0 L28.7790737,0 C30.0949509,0.235210774 31.0775352,1.22867132 32.0826558,2.03189578 C33.8273603,3.5447699 35.6553022,5.0111016 37.0584342,6.86157986 C37.6121912,7.55751175 37.7862109,8.4518614 37.7009158,9.32230294 C35.231913,9.32769206 32.7629103,9.3262223 30.2943485,9.32284185 C29.8793369,9.33215034 29.5014123,9.09987909 29.2568931,8.77643365 C28.6486569,8.05551582 28.3321684,7.10967554 28.2830783,6.17564233 C28.2772483,4.11684993 28.2820985,2.05854744 28.2806287,0.000195968151 L28.2806777,0 Z" id="形状" fill="#FFFFFF"></path>
                    <path d="M35.4100108,35.731261 C35.4100108,35.731261 44.6815306,36.453678 44.6983368,43.3023416 L44.6983368,43.3023416 C44.6820323,36.4534272 35.4102617,35.7310102 35.4102617,35.7310102 L35.401984,32.4803846 L27.3763827,37.8744314 L35.4017331,32.4806354 L35.4100108,35.731261 Z" id="路径" fill="#272636"></path>
                    <path d="M41.8538199,40.71644 C44.0476598,41.6533245 44.5884692,42.9667187 44.6815306,43.247157 C44.5884692,42.9662171 44.0471582,41.6530737 41.8538199,40.71644 Z" id="路径" fill="#000000"></path>
                    <path d="M36.5014123,27.9136055 C30.2043442,27.9136055 25.0952507,32.8561417 25.0952507,38.9545452 C25.0952507,45.0529486 30.1995783,50 36.5014123,50 C42.8032464,50 47.907574,45.0529486 47.907574,38.9497792 C47.907574,32.8561417 42.8032464,27.9136055 36.5014123,27.9136055 Z M44.6815306,43.247157 C44.5884692,42.9667187 44.0476598,41.6533245 41.8538199,40.71644 C41.827231,40.7051522 41.802147,40.6936136 41.7750564,40.6823258 C41.7577485,40.6750515 41.7389355,40.6682788 41.7213768,40.6610045 C41.6544027,40.633663 41.586927,40.6063215 41.5169428,40.5797326 C41.3792321,40.5273072 41.2334945,40.4771393 41.0837435,40.4282257 C40.8489579,40.3514689 40.6011288,40.2784747 40.33549,40.2115006 C39.9379098,40.1114157 39.5047105,40.023622 39.0328819,39.951882 C38.9415764,39.9380858 38.8442508,39.9247913 38.7401525,39.9122494 C38.6882288,39.9059784 38.6345492,39.8999583 38.5791137,39.894189 C37.8597068,39.8186863 36.8518348,39.7760437 35.4170343,39.7742878 L35.4255629,43.289298 L35.4255629,43.289298 L27.3761319,37.8739298 L35.4017331,32.4798829 L35.4100108,35.7305085 C35.4100108,35.7305085 44.6817814,36.4529255 44.6980945,43.3018399 L44.6980945,43.3018399 C44.6980945,43.3018399 44.6980945,43.3020999 44.6980945,43.3020999 C44.6983368,43.3025925 44.6930692,43.2822745 44.6815306,43.247157 Z" id="形状" fill="#FFFFFF"></path>
                </g>
            </g>
        </g>
    </g>
</svg>