<?xml version="1.0" encoding="UTF-8"?>
<svg width="16px" height="16px" viewBox="0 0 16 16" version="1.1" xmlns="http://www.w3.org/2000/svg" xmlns:xlink="http://www.w3.org/1999/xlink">
    <title>提成规则</title>
    <g id="代理模式" stroke="none" stroke-width="1" fill="none" fill-rule="evenodd">
        <g id="代理模式-主页" transform="translate(-320.000000, -518.000000)">
            <g id="编组-2" transform="translate(320.000000, 516.000000)">
                <g id="提成规则" transform="translate(0.000000, 2.000000)">
                    <polygon id="路径" points="0 0 16 0 16 16 0 16"></polygon>
                    <path d="M4.66666667,4 L4.66666667,2 C4.66666667,1.63181017 4.9651435,1.33333333 5.33333333,1.33333333 L13.3333333,1.33333333 C13.7015232,1.33333333 14,1.63181017 14,2 L14,11.3333333 C14,11.7015232 13.7015232,12 13.3333333,12 L11.3333333,12 L11.3333333,14 C11.3333333,14.368 11.0333333,14.6666904 10.662,14.6666904 L1.67133333,14.6666904 C1.49376897,14.6677311 1.32310213,14.5979847 1.19710575,14.4728642 C1.07110938,14.3477436 1.0001742,14.1775675 1,14 L1.002,4.66666667 C1.002,4.29866667 1.302,4 1.67333333,4 L4.66666667,4 Z M6,4 L11.3333333,4 L11.3333333,10.6666667 L12.6666667,10.6666667 L12.6666667,2.66666667 L6,2.66666667 L6,4 Z M3.66666667,7.33333333 L3.66666667,8.66666667 L8.66666667,8.66666667 L8.66666667,7.33333333 L3.66666667,7.33333333 Z M3.66666667,10 L3.66666667,11.3333333 L8.66666667,11.3333333 L8.66666667,10 L3.66666667,10 Z" id="形状" fill="#666666" fill-rule="nonzero"></path>
                </g>
            </g>
        </g>
    </g>
</svg>