<?xml version="1.0" encoding="UTF-8"?>
<svg width="16px" height="16px" viewBox="0 0 16 16" version="1.1" xmlns="http://www.w3.org/2000/svg" xmlns:xlink="http://www.w3.org/1999/xlink">
    <title>提现列表</title>
    <g id="代理模式" stroke="none" stroke-width="1" fill="none" fill-rule="evenodd">
        <g id="代理模式-主页" transform="translate(-320.000000, -386.000000)">
            <g id="编组-9" transform="translate(320.000000, 384.000000)">
                <g id="提现列表" transform="translate(0.000000, 2.000000)">
                    <polygon id="路径" points="0 0 16 0 16 16 0 16"></polygon>
                    <path d="M13.6666667,4 L9,4 C6.790861,4 5,5.790861 5,8 C5,10.209139 6.790861,12 9,12 L13.6666667,12 L13.6666667,13.3333333 C13.6666667,13.7015232 13.3681898,14 13,14 L1,14 C0.631810167,14 0.333333333,13.7015232 0.333333333,13.3333333 L0.333333333,2.66666667 C0.333333333,2.29847683 0.631810167,2 1,2 L13,2 C13.3681898,2 13.6666667,2.29847683 13.6666667,2.66666667 L13.6666667,4 Z M9,5.33333333 L14.3333333,5.33333333 L14.3333333,10.6666667 L9,10.6666667 C7.52724067,10.6666667 6.33333333,9.47275933 6.33333333,8 C6.33333333,6.52724067 7.52724067,5.33333333 9,5.33333333 Z M9,7.33333333 L9,8.66666667 L11,8.66666667 L11,7.33333333 L9,7.33333333 Z" id="形状" fill="#666666" fill-rule="nonzero"></path>
                </g>
            </g>
        </g>
    </g>
</svg>