<?xml version="1.0" encoding="UTF-8"?>
<svg width="25px" height="25px" viewBox="0 0 25 25" version="1.1" xmlns="http://www.w3.org/2000/svg" xmlns:xlink="http://www.w3.org/1999/xlink">
    <title>安卓</title>
    <g id="首页" stroke="none" stroke-width="1" fill="none" fill-rule="evenodd">
        <g transform="translate(-1808.000000, -2290.000000)" fill="#999999" fill-rule="nonzero" id="左上-➡️">
            <g transform="translate(1706.000000, 2266.000000)">
                <g id="编组-26" transform="translate(89.000000, 24.000000)">
                    <g id="安卓" transform="translate(13.000000, 0.000000)">
                        <rect id="矩形" opacity="0" x="0" y="0" width="25" height="25"></rect>
                        <path d="M3.44482422,8.0859375 C2.59033203,8.0859375 1.89941406,8.77685547 1.89941406,9.62890625 L1.89941406,16.0913086 C1.89941406,16.9433594 2.59277344,17.6342773 3.44482422,17.6342773 C4.29931641,17.6342773 4.99023437,16.9433594 4.99023437,16.0913086 L4.99023437,9.62890625 C4.99023437,8.77685547 4.29931641,8.0859375 3.44482422,8.0859375 L3.44482422,8.0859375 Z M5.58837891,18.3911133 C5.58837891,19.3017578 6.328125,20.0390625 7.23876953,20.0390625 L8.36425781,20.0390625 L8.36425781,23.4570312 C8.36425781,24.309082 9.05761719,25 9.90966797,25 C10.7641602,25 11.4550781,24.309082 11.4550781,23.4570312 L11.4550781,20.0390625 L13.5424805,20.0390625 L13.5424805,23.4570312 C13.5424805,24.309082 14.2358398,25 15.0878906,25 C15.9423828,25 16.6333008,24.309082 16.6333008,23.4570312 L16.6333008,20.0390625 L17.7587891,20.0390625 C18.6694336,20.0390625 19.4091797,19.3017578 19.4091797,18.3911133 L19.4091797,8.37646484 L5.58837891,8.37646484 L5.58837891,18.3911133 Z M15.9130859,2.28027344 L16.9921875,0.317382813 C17.0507813,0.21484375 17.0117188,0.0830078125 16.9067383,0.0268554688 C16.8041992,-0.029296875 16.6723633,0.00732421875 16.6162109,0.112304688 L15.5249023,2.09472656 C14.609375,1.68945313 13.5839844,1.46240234 12.5,1.46240234 C11.4160156,1.46240234 10.390625,1.68945313 9.47509766,2.09228516 L8.38378906,0.112304688 C8.32763672,0.00732421875 8.19580078,-0.029296875 8.09326172,0.0268554688 C7.98828125,0.0830078125 7.94921875,0.21484375 8.0078125,0.317382813 L9.08691406,2.28027344 C6.96777344,3.37402344 5.53466797,5.45410156 5.53466797,7.83935547 L19.4628937,7.83935547 C19.465332,5.45166016 18.0322266,3.37402344 15.9130859,2.28027344 Z M9.33105469,5.32226563 C9.00878906,5.32226563 8.74755859,5.06103516 8.74755859,4.73876953 C8.74755859,4.41650391 9.00878906,4.15527344 9.33105469,4.15527344 C9.65332031,4.15527344 9.91455078,4.41650391 9.91455078,4.73876953 C9.91210938,5.06103516 9.65087891,5.32226563 9.33105469,5.32226563 Z M15.6713867,5.32226563 C15.3491211,5.32226563 15.0878906,5.06103516 15.0878906,4.73876953 C15.0878906,4.41650391 15.3491211,4.15527344 15.6713867,4.15527344 C15.9936523,4.15527344 16.2548828,4.41650391 16.2548828,4.73876953 C16.2524414,5.06103516 15.9912109,5.32226563 15.6713867,5.32226563 Z M21.5551758,8.0859375 C20.7006836,8.0859375 20.0097656,8.77685547 20.0097656,9.62890625 L20.0097656,16.0913086 C20.0097656,16.9433594 20.703125,17.6342773 21.5551758,17.6342773 C22.409668,17.6342773 23.1005859,16.9433594 23.1005859,16.0913086 L23.1005859,9.62890625 C23.1005859,8.77685547 22.409668,8.0859375 21.5551758,8.0859375 Z" id="形状"></path>
                    </g>
                </g>
            </g>
        </g>
    </g>
</svg>