<?xml version="1.0" encoding="UTF-8"?>
<svg width="16px" height="16px" viewBox="0 0 16 16" version="1.1" xmlns="http://www.w3.org/2000/svg" xmlns:xlink="http://www.w3.org/1999/xlink">
    <title>换一换</title>
    <g id="首页" stroke="none" stroke-width="1" fill="none" fill-rule="evenodd">
        <g transform="translate(-1511.000000, -644.000000)" fill="#666666" fill-rule="nonzero" id="编组-20">
            <g transform="translate(1511.000000, 641.000000)">
                <g id="换一换" transform="translate(0.000000, 3.000000)">
                    <rect id="矩形" opacity="0" x="0" y="0" width="16" height="16"></rect>
                    <path d="M7.8859375,2.1578125 C6.4578125,2.1578125 5.1453125,2.6484375 4.10625,3.46875 L4.9125,4.4625 C5.73125,3.8203125 6.7640625,3.4359375 7.8859375,3.4359375 C10.55,3.4359375 12.709375,5.5953125 12.709375,8.259375 C12.709375,8.6015625 12.6734375,8.9359375 12.6046875,9.259375 L13.846875,9.5734375 C13.9390625,9.15 13.9890625,8.7109375 13.9890625,8.2609375 C13.9890625,4.890625 11.25625,2.1578125 7.8859375,2.1578125 Z M10.975,11.965625 C10.1375,12.6640625 9.0609375,13.084375 7.8859375,13.084375 C5.221875,13.084375 3.0625,10.925 3.0625,8.2609375 C3.0625,7.6921875 3.1609375,7.146875 3.3421875,6.640625 L2.096875,6.3265625 C1.89375,6.934375 1.7828125,7.5859375 1.7828125,8.2625 C1.7828125,11.6328125 4.515625,14.365625 7.8859375,14.365625 C9.3671875,14.365625 10.725,13.8375 11.78125,12.9609375 L10.975,11.965625 L10.975,11.965625 Z" id="形状"></path>
                    <path d="M2.071875,6.50625 C2.071875,6.85919447 2.35799303,7.1453125 2.7109375,7.1453125 C3.06388197,7.1453125 3.35,6.85919447 3.35,6.50625 C3.35,6.27793496 3.22819538,6.06696315 3.03046875,5.95280563 C2.83274213,5.83864811 2.58913287,5.83864811 2.39140625,5.95280563 C2.19367962,6.06696315 2.071875,6.27793496 2.071875,6.50625 Z" id="路径"></path>
                    <path d="M3.8375,4.00625 C3.8375,4.35919447 4.12361803,4.6453125 4.4765625,4.6453125 C4.82950697,4.6453125 5.115625,4.35919447 5.115625,4.00625 C5.115625,3.65330553 4.82950697,3.3671875 4.4765625,3.3671875 C4.12361803,3.3671875 3.8375,3.65330553 3.8375,4.00625 L3.8375,4.00625 Z" id="路径"></path>
                    <path d="M10.728125,12.490625 C10.728125,12.8435695 11.014243,13.1296875 11.3671875,13.1296875 C11.720132,13.1296875 12.00625,12.8435695 12.00625,12.490625 C12.00625,12.2623099 11.8844454,12.0513381 11.6867188,11.9371806 C11.4889921,11.8230231 11.2453829,11.8230231 11.0476562,11.9371806 C10.8499296,12.0513381 10.728125,12.2623099 10.728125,12.490625 L10.728125,12.490625 Z" id="路径"></path>
                    <path d="M12.5765625,9.465625 C12.5765625,9.81856947 12.8626805,10.1046875 13.215625,10.1046875 C13.5685695,10.1046875 13.8546875,9.81856947 13.8546875,9.465625 C13.8546875,9.11268053 13.5685695,8.8265625 13.215625,8.8265625 C12.8626805,8.8265625 12.5765625,9.11268053 12.5765625,9.465625 Z" id="路径"></path>
                    <path d="M0.5234375,8.25625 C0.303125,7.9796875 0.3484375,7.5765625 0.625,7.35625 L2.3125,6.0109375 C2.5890625,5.790625 2.9921875,5.8359375 3.2125,6.1125 C3.4328125,6.3890625 3.3875,6.7921875 3.1109375,7.0125 L1.421875,8.3578125 C1.1453125,8.578125 0.74375,8.5328125 0.5234375,8.25625 Z" id="路径"></path>
                    <path d="M4.45625,8.69375 C4.1796875,8.9140625 3.7765625,8.86875 3.55625,8.5921875 L2.2109375,6.9046875 C1.990625,6.628125 2.0359375,6.225 2.3125,6.0046875 C2.5890625,5.784375 2.9921875,5.8296875 3.2125,6.10625 L4.5578125,7.79375 C4.778125,8.0703125 4.7328125,8.4734375 4.45625,8.69375 Z M15.2765625,7.55625 C15.5171875,7.8140625 15.503125,8.2203125 15.2453125,8.4609375 L13.6671875,9.9328125 C13.409375,10.1734375 13.003125,10.159375 12.7625,9.9015625 C12.521875,9.64375 12.5359375,9.2375 12.79375,8.996875 L14.371875,7.525 C14.63125,7.284375 15.0359375,7.2984375 15.2765625,7.55625 L15.2765625,7.55625 Z" id="形状"></path>
                    <path d="M11.3,7.4078125 C11.5578125,7.1671875 11.9640625,7.18125 12.2046875,7.4390625 L13.6765625,9.0171875 C13.9171875,9.275 13.903125,9.68125 13.6453125,9.921875 C13.3875,10.1625 12.98125,10.1484375 12.740625,9.890625 L11.26875,8.3125 C11.0265625,8.053125 11.040625,7.6484375 11.3,7.4078125 Z" id="路径"></path>
                </g>
            </g>
        </g>
    </g>
</svg>