<?xml version="1.0" encoding="UTF-8"?>
<svg width="48px" height="48px" viewBox="0 0 48 48" version="1.1" xmlns="http://www.w3.org/2000/svg" xmlns:xlink="http://www.w3.org/1999/xlink">
    <title>评论</title>
    <g id="播放页" stroke="none" stroke-width="1" fill="none" fill-rule="evenodd">
        <g id="播放页2" transform="translate(-80.000000, -713.000000)">
            <g id="评论" transform="translate(80.000000, 713.000000)">
                <polygon id="路径" points="0 0 48 0 48 48 0 48"></polygon>
                <path d="M3.99999731,17.988 C3.99787059,14.8058522 5.2618527,11.7536003 7.51309683,9.50460743 C9.76434095,7.25561456 12.8178559,5.99468685 15.9999973,5.99998328 L31.9999973,5.99998328 C38.626,5.99998328 43.9999973,11.39 43.9999973,17.988 L43.9999973,42 L15.9999973,42 C9.374,42 3.99999731,36.61 3.99999731,30.012 L3.99999731,17.988 Z M39.999996,38 L39.999996,17.988 C39.9889838,13.5762369 36.4117746,10.0043936 31.999996,9.99997489 L15.999996,9.99997489 C13.8787223,9.99468243 11.8426206,10.8341809 10.3415206,12.3330292 C8.84042068,13.8318775 7.99786673,15.8667167 7.99999596,17.988 L7.99999596,30.012 C8.01101624,34.4237631 11.5882254,37.9956064 15.999996,38 L39.999996,38 Z M28,22 L32,22 L32,26 L28,26 L28,22 Z M16,22 L20,22 L20,26 L16,26 L16,22 Z" id="形状" fill="#333333" fill-rule="nonzero"></path>
            </g>
        </g>
    </g>
</svg>