<?xml version="1.0" encoding="UTF-8"?>
<svg width="36px" height="36px" viewBox="0 0 36 36" version="1.1" xmlns="http://www.w3.org/2000/svg" xmlns:xlink="http://www.w3.org/1999/xlink">
    <title>动漫</title>
    <defs>
        <linearGradient x1="50%" y1="0%" x2="50%" y2="100%" id="linearGradient-1">
            <stop stop-color="#F67E7B" offset="0%"></stop>
            <stop stop-color="#F75F8A" offset="100%"></stop>
        </linearGradient>
    </defs>
    <g id="首页" stroke="none" stroke-width="1" fill="none" fill-rule="evenodd">
        <g id="首页全部" transform="translate(-22.000000, -4134.000000)" fill-rule="nonzero">
            <g id="动漫" transform="translate(22.000000, 4134.000000)">
                <rect id="矩形" fill="#000000" opacity="0" x="0" y="0" width="36" height="36"></rect>
                <path d="M33.5268,11.277 C33.5268,7.7868 30.6972,4.9572 27.207,4.9572 C24.696,4.9572 22.5288,6.4206 21.5082,8.541 C19.2092995,7.86384497 16.7652219,7.85448068 14.4612,8.514 C13.4352,6.4098 11.2752,4.959 8.7768,4.959 C5.2866,4.959 2.457,7.7886 2.457,11.2788 C2.457,13.7214 3.843,15.8382 5.8698,16.8894 C5.48828831,18.1124817 5.2946822,19.3863978 5.2956,20.6676 C5.2956,27.6498 10.9548,33.309 17.937,33.309 C24.9192,33.309 30.5784,27.6498 30.5784,20.6676 C30.5784,19.3698 30.3822,18.1188 30.0186,16.9398 C32.0976,15.903 33.5268,13.7574 33.5268,11.277 L33.5268,11.277 Z M24.9048,23.6592 C24.1272,26.2296 21.2904,28.026 18.0036,28.026 C14.6394,28.026 11.7864,26.1774 11.0646,23.5296 C10.8198,22.6332 11.349,21.708 12.2454,21.465 C13.1418,21.2202 14.067,21.7494 14.31,22.6458 C14.5764,23.6232 15.9606,24.6618 18.0018,24.6618 C20.0052,24.6618 21.393,23.6448 21.6828,22.6872 C21.951,21.798 22.8906,21.294 23.7798,21.564 C24.6708,21.8304 25.173,22.77 24.9048,23.6592 L24.9048,23.6592 Z" id="形状" fill="url(#linearGradient-1)"></path>
            </g>
        </g>
    </g>
</svg>