<?xml version="1.0" encoding="UTF-8"?>
<svg width="48px" height="48px" viewBox="0 0 48 48" version="1.1" xmlns="http://www.w3.org/2000/svg" xmlns:xlink="http://www.w3.org/1999/xlink">
    <title>下载</title>
    <g id="播放页" stroke="none" stroke-width="1" fill="none" fill-rule="evenodd">
        <g id="播放页2" transform="translate(-216.000000, -713.000000)">
            <g id="编组-2" transform="translate(80.000000, 713.000000)">
                <g id="下载" transform="translate(136.000000, 0.000000)">
                    <polygon id="路径" points="0 0 48 0 48 48 0 48"></polygon>
                    <path d="M24.828,10 L42,10 C43.1045695,10 44,10.8954305 44,12 L44,40 C44,41.1045695 43.1045695,42 42,42 L6,42 C4.8954305,42 4,41.1045695 4,40 L4,8 C4,6.8954305 4.8954305,6 6,6 L20.828,6 L24.828,10 Z M8,10 L8,38 L40,38 L40,14 L23.172,14 L19.172,10 L8,10 Z M26,26 L32,26 L24,34 L16,26 L22,26 L22,18 L26,18 L26,26 Z" id="形状" fill="#333333" fill-rule="nonzero"></path>
                </g>
            </g>
        </g>
    </g>
</svg>