<?xml version="1.0" encoding="UTF-8"?>
<svg width="48px" height="48px" viewBox="0 0 48 48" version="1.1" xmlns="http://www.w3.org/2000/svg" xmlns:xlink="http://www.w3.org/1999/xlink">
    <title>发现</title>
    <defs>
        <linearGradient x1="50%" y1="0%" x2="50%" y2="100%" id="linearGradient-1">
            <stop stop-color="#F58E73" offset="0%"></stop>
            <stop stop-color="#F94695" offset="100%"></stop>
        </linearGradient>
    </defs>
    <g id="发现" stroke="none" stroke-width="1" fill="none" fill-rule="evenodd">
        <g transform="translate(-208.000000, -1234.000000)" id="编组-10">
            <g transform="translate(64.000000, 1234.000000)">
                <g id="发现" transform="translate(144.000000, 0.000000)">
                    <polygon id="路径" points="0 0 48 0 48 48 0 48"></polygon>
                    <path d="M33.7124988,5.37929991 L30.5624989,8.52929979 C28.4866956,7.64924618 26.254649,7.19712283 24,7.19999984 C14.7179996,7.19999984 7.19999984,14.7179996 7.19999984,24 C7.19999984,33.2819988 14.7179996,40.7999985 24,40.7999985 C33.2819988,40.7999985 40.7999985,33.2819988 40.7999985,24 C40.8028756,21.7453494 40.3507522,19.5133028 39.4706986,17.4374994 L42.6206985,14.2874996 C44.1881306,17.2847373 45.0046052,20.6176544 45.0000178,24 C45.0000178,35.5919987 35.5919987,45 24,45 C12.4079996,45 3,35.5919987 3,24 C3,12.4079996 12.4079996,3 24,3 C27.5027991,3 30.8060989,3.86099997 33.7124988,5.37929991 Z M37.3643987,7.66619982 L40.3337986,10.6355997 L23.9999992,26.9693991 L21.0305993,23.9999992 L37.3643987,7.66619982 Z" id="形状" fill="url(#linearGradient-1)" fill-rule="nonzero"></path>
                </g>
            </g>
        </g>
    </g>
</svg>