<?xml version="1.0" encoding="UTF-8"?>
<svg width="48px" height="48px" viewBox="0 0 48 48" version="1.1" xmlns="http://www.w3.org/2000/svg" xmlns:xlink="http://www.w3.org/1999/xlink">
    <title>反馈</title>
    <g id="播放页" stroke="none" stroke-width="1" fill="none" fill-rule="evenodd">
        <g id="播放页2" transform="translate(-623.000000, -713.000000)">
            <g id="编组-2" transform="translate(80.000000, 713.000000)">
                <g id="反馈" transform="translate(543.000000, 0.000000)">
                    <polygon id="路径" points="0 0 48 0 48 48 0 48"></polygon>
                    <path d="M12.91,38 L4,45 L4,8 C4,6.8954305 4.8954305,6 6,6 L42,6 C43.1045695,6 44,6.8954305 44,8 L44,36 C44,37.1045695 43.1045695,38 42,38 L12.91,38 Z M8,36.77 L11.526,34 L40,34 L40,10 L8,10 L8,36.77 L8,36.77 Z M22,26 L26,26 L26,30 L22,30 L22,26 Z M22,14 L26,14 L26,24 L22,24 L22,14 Z" id="形状" fill="#333333" fill-rule="nonzero"></path>
                </g>
            </g>
        </g>
    </g>
</svg>