<?xml version="1.0" encoding="UTF-8"?>
<svg width="24px" height="24px" viewBox="0 0 24 24" version="1.1" xmlns="http://www.w3.org/2000/svg" xmlns:xlink="http://www.w3.org/1999/xlink">
    <title>反馈</title>
    <g id="播放页" stroke="none" stroke-width="1" fill="none" fill-rule="evenodd">
        <g id="播放页2" transform="translate(-1613.000000, -814.000000)">
            <g id="编组-3" transform="translate(1349.000000, 814.000000)">
                <g id="反馈" transform="translate(264.000000, 0.000000)">
                    <polygon id="路径" points="0 0 24 0 24 24 0 24"></polygon>
                    <path d="M6.455,19 L2,22.5 L2,4 C2,3.44771525 2.44771525,3 3,3 L21,3 C21.5522847,3 22,3.44771525 22,4 L22,18 C22,18.5522847 21.5522847,19 21,19 L6.455,19 Z M4,18.385 L5.763,17 L20,17 L20,5 L4,5 L4,18.385 L4,18.385 Z M11,13 L13,13 L13,15 L11,15 L11,13 Z M11,7 L13,7 L13,12 L11,12 L11,7 Z" id="形状" fill="#E0E0E0" fill-rule="nonzero"></path>
                </g>
            </g>
        </g>
    </g>
</svg>