<?xml version="1.0" encoding="UTF-8"?>
<svg width="36px" height="34px" viewBox="0 0 36 34" version="1.1" xmlns="http://www.w3.org/2000/svg" xmlns:xlink="http://www.w3.org/1999/xlink">
    <title>全屏</title>
    <g id="播放页" stroke="none" stroke-width="1" fill="none" fill-rule="evenodd">
        <g id="播放页2" transform="translate(-661.000000, -530.000000)">
            <g id="全屏" transform="translate(661.000000, 530.000000)">
                <polygon id="路径" points="0 0 36 0 36 34 0 34"></polygon>
                <path d="M31.5,4.32 C32.3284271,4.32 33,4.96470996 33,5.76 L33,28.8 C33,29.59529 32.3284271,30.24 31.5,30.24 L4.5,30.24 C3.67157288,30.24 3,29.59529 3,28.8 L3,5.76 C3,4.96470996 3.67157288,4.32 4.5,4.32 L31.5,4.32 Z M30,7.2 L6,7.2 L6,27.36 L30,27.36 L30,7.2 Z M19.5,24.48 L19.5,21.6 L24,21.6 L24,17.28 L27,17.28 L27,24.48 L19.5,24.48 Z M16.5,10.08 L16.5,12.96 L12,12.96 L12,17.28 L9,17.28 L9,10.08 L16.5,10.08 Z" id="形状" fill="#E0E0E0" fill-rule="nonzero"></path>
            </g>
        </g>
    </g>
</svg>