<?xml version="1.0" encoding="UTF-8"?>
<svg width="24px" height="24px" viewBox="0 0 24 24" version="1.1" xmlns="http://www.w3.org/2000/svg" xmlns:xlink="http://www.w3.org/1999/xlink">
    <title>全屏</title>
    <g id="播放页" stroke="none" stroke-width="1" fill="none" fill-rule="evenodd">
        <g id="播放页2" transform="translate(-1549.000000, -814.000000)">
            <g id="编组-3" transform="translate(1349.000000, 814.000000)">
                <g id="全屏" transform="translate(200.000000, 0.000000)">
                    <polygon id="路径" points="0 0 24 0 24 23.04 0 23.04"></polygon>
                    <path d="M21,2.88 C21.5522847,2.88 22,3.30980664 22,3.84 L22,19.2 C22,19.7301934 21.5522847,20.16 21,20.16 L3,20.16 C2.44771525,20.16 2,19.7301934 2,19.2 L2,3.84 C2,3.30980664 2.44771525,2.88 3,2.88 L21,2.88 Z M20,4.8 L4,4.8 L4,18.24 L20,18.24 L20,4.8 Z M13,16.32 L13,14.4 L16,14.4 L16,11.52 L18,11.52 L18,16.32 L13,16.32 Z M11,6.72 L11,8.64 L8,8.64 L8,11.52 L6,11.52 L6,6.72 L11,6.72 Z" id="形状" fill="#E0E0E0" fill-rule="nonzero"></path>
                </g>
            </g>
        </g>
    </g>
</svg>