<?xml version="1.0" encoding="UTF-8"?>
<svg width="24px" height="24px" viewBox="0 0 24 24" version="1.1" xmlns="http://www.w3.org/2000/svg" xmlns:xlink="http://www.w3.org/1999/xlink">
    <title>热门</title>
    <defs>
        <linearGradient x1="50%" y1="110.85557%" x2="41.263107%" y2="22.8181243%" id="linearGradient-1">
            <stop stop-color="#F9399B" offset="0%"></stop>
            <stop stop-color="#F58E73" offset="100%"></stop>
        </linearGradient>
    </defs>
    <g id="首页" stroke="none" stroke-width="1" fill="none" fill-rule="evenodd">
        <g transform="translate(-252.000000, -635.000000)" fill-rule="nonzero" id="热门">
            <g transform="translate(252.000000, 635.000000)">
                <rect id="矩形" fill="#000000" opacity="0" x="0" y="0" width="24" height="24"></rect>
                <path d="M4.84921875,8.17265625 C6.09609375,6.76171875 7.09453125,5.19140625 6.97265625,3.4640625 C6.9609375,3.28828125 6.96328125,3.1125 6.9515625,2.9390625 C6.94453125,2.8546875 7.0078125,2.78203125 7.09453125,2.775 C7.14609375,2.77265625 7.1953125,2.76796875 7.24453125,2.76796875 C10.9992188,2.76796875 14.04375,5.67421875 14.04375,9.2578125 C14.04375,9.52734375 14.025,9.78984375 13.9898438,10.05 C13.9710938,10.1929688 14.1398438,10.2773437 14.2429688,10.1765625 C15.3257813,9.13125 16.040625,7.74140625 16.1835938,6.1875 C16.1929687,6.0796875 16.3125,6.01640625 16.4109375,6.07265625 C18.9046875,7.5375 20.5710938,10.1578125 20.5710938,13.1578125 C20.5710938,16.5867187 18.39375,19.5304687 15.2859375,20.7984375 C14.7234375,21.028125 14.0976562,21.0609375 13.5117188,20.8921875 C12.16875,20.5078125 10.8984375,19.7976562 9.834375,18.7640625 C9.4359375,18.375 9.0890625,17.9554687 8.78203125,17.5171875 C8.71171875,17.4140625 8.5546875,17.4375 8.5171875,17.5523437 C8.20078125,18.46875 8.05078125,19.425 8.06484375,20.3835937 C8.0671875,20.4960937 7.95,20.5710937 7.846875,20.521875 C5.06953125,19.1320312 3.16640625,16.3617187 3.16640625,13.1578125 C3.16640625,11.371875 3.73125,9.65390625 4.73671875,8.29921875" id="路径" fill="url(#linearGradient-1)"></path>
            </g>
        </g>
    </g>
</svg>