<?xml version="1.0" encoding="UTF-8"?>
<svg width="36px" height="36px" viewBox="0 0 36 36" version="1.1" xmlns="http://www.w3.org/2000/svg" xmlns:xlink="http://www.w3.org/1999/xlink">
    <title>热门</title>
    <defs>
        <linearGradient x1="50%" y1="110.85557%" x2="41.263107%" y2="22.8181243%" id="linearGradient-1">
            <stop stop-color="#F9399B" offset="0%"></stop>
            <stop stop-color="#F58E73" offset="100%"></stop>
        </linearGradient>
    </defs>
    <g id="首页" stroke="none" stroke-width="1" fill="none" fill-rule="evenodd">
        <g transform="translate(-22.000000, -698.000000)" fill-rule="nonzero" id="热门">
            <g transform="translate(22.000000, 698.000000)">
                <rect id="矩形" fill="#000000" opacity="0" x="0" y="0" width="36" height="36"></rect>
                <path d="M7.27382812,12.2589844 C9.14414063,10.1425781 10.6417969,7.78710938 10.4589844,5.19609375 C10.4414062,4.93242187 10.4449219,4.66875 10.4273437,4.40859375 C10.4167969,4.28203125 10.5117188,4.17304687 10.6417969,4.1625 C10.7191406,4.15898437 10.7929688,4.15195312 10.8667969,4.15195312 C16.4988281,4.15195312 21.065625,8.51132812 21.065625,13.8867187 C21.065625,14.2910156 21.0375,14.6847656 20.9847656,15.075 C20.9566406,15.2894531 21.2097656,15.4160156 21.3644531,15.2648437 C22.9886719,13.696875 24.0609375,11.6121094 24.2753906,9.28125 C24.2894531,9.11953125 24.46875,9.02460937 24.6164062,9.10898437 C28.3570312,11.30625 30.8566406,15.2367187 30.8566406,19.7367187 C30.8566406,24.8800781 27.590625,29.2957031 22.9289062,31.1976562 C22.0851562,31.5421875 21.1464844,31.5914062 20.2675781,31.3382812 C18.253125,30.7617187 16.3476562,29.6964844 14.7515625,28.1460937 C14.1539063,27.5625 13.6335937,26.9332031 13.1730469,26.2757812 C13.0675781,26.1210937 12.8320312,26.15625 12.7757812,26.3285156 C12.3011719,27.703125 12.0761719,29.1375 12.0972656,30.5753906 C12.1007813,30.7441406 11.925,30.8566406 11.7703125,30.7828125 C7.60429687,28.6980469 4.74960938,24.5425781 4.74960938,19.7367187 C4.74960938,17.0578125 5.596875,14.4808594 7.10507813,12.4488281" id="路径" fill="url(#linearGradient-1)"></path>
            </g>
        </g>
    </g>
</svg>