<?xml version="1.0" encoding="UTF-8"?>
<svg width="18px" height="18px" viewBox="0 0 18 18" version="1.1" xmlns="http://www.w3.org/2000/svg" xmlns:xlink="http://www.w3.org/1999/xlink">
    <title>ios白</title>
    <g id="首页" stroke="none" stroke-width="1" fill="none" fill-rule="evenodd">
        <g transform="translate(-1891.000000, -2657.000000)" fill="#FFFFFF" fill-rule="nonzero" id="ios白">
            <g transform="translate(1891.000000, 2657.000000)">
                <rect id="矩形" opacity="0" x="0" y="0" width="18" height="18"></rect>
                <path d="M14.583297,9.96609375 C14.4567345,8.27683594 15.5747033,7.20984375 16.6293908,6.46804687 C15.6379845,5.57859375 14.7766564,4.71902344 12.9538048,4.63113281 C11.4842736,4.57136719 10.8127892,5.40105469 9.43817983,5.4309375 C8.16025015,5.46082031 8.25517202,4.51160156 5.60263296,4.77878906 C3.30341421,5.01609375 1.28896108,7.15007813 1.44892202,10.1436328 C1.60888296,13.3744922 4.03817983,17.848125 6.30575796,17.848125 C7.90360952,17.8182422 8.28681265,17.1080859 9.59814077,17.1080859 C11.227633,17.1080859 11.6108361,17.9975391 12.8905236,17.82 C15.0965783,17.5229297 17.1725548,14.2938281 17.1725548,13.2567188 C15.9579064,12.6625781 14.743258,11.6553516 14.583297,9.96609375 Z M12.7305626,0.72 C9.69482046,1.10496094 8.83173452,3.68367188 8.99169546,4.8684375 C11.3243126,4.98621094 13.0821251,2.70457031 12.7305626,0.72 L12.7305626,0.72 Z" id="形状"></path>
            </g>
        </g>
    </g>
</svg>