<?xml version="1.0" encoding="UTF-8"?>
<svg width="48px" height="48px" viewBox="0 0 48 48" version="1.1" xmlns="http://www.w3.org/2000/svg" xmlns:xlink="http://www.w3.org/1999/xlink">
    <title>我的灰</title>
    <g id="首页" stroke="none" stroke-width="1" fill="none" fill-rule="evenodd">
        <g transform="translate(-638.000000, -1234.000000)" id="编组-10">
            <g transform="translate(64.000000, 1234.000000)">
                <g id="我的灰" transform="translate(574.000000, 0.000000)">
                    <polygon id="路径" points="0 0 48 0 48 48 0 48"></polygon>
                    <path d="M8,44 C8,35.163444 15.163444,28 24,28 C32.836556,28 40,35.163444 40,44 L36,44 C36,37.372583 30.627417,32 24,32 C17.372583,32 12,37.372583 12,44 L8,44 L8,44 Z M24,26 C17.37,26 12,20.63 12,14 C12,7.37 17.37,2 24,2 C30.63,2 36,7.37 36,14 C36,20.63 30.63,26 24,26 Z M24,22 C28.42,22 32,18.42 32,14 C32,9.58 28.42,6 24,6 C19.58,6 16,9.58 16,14 C16,18.42 19.58,22 24,22 Z" id="形状" fill="#777777" fill-rule="nonzero"></path>
                </g>
            </g>
        </g>
    </g>
</svg>