<?xml version="1.0" encoding="UTF-8"?>
<svg width="80px" height="80px" viewBox="0 0 80 80" version="1.1" xmlns="http://www.w3.org/2000/svg" xmlns:xlink="http://www.w3.org/1999/xlink">
    <title>提现列表</title>
    <g id="代理模式" stroke="none" stroke-width="1" fill="none" fill-rule="evenodd">
        <g id="个人中心-代理模式（2选一）" transform="translate(-98.000000, -676.000000)">
            <g id="编组-12" transform="translate(90.000000, 676.000000)">
                <g id="提现列表" transform="translate(8.000000, 0.000000)">
                    <rect id="矩形" fill="#FFEEE4" x="0" y="0" width="80" height="80" rx="40"></rect>
                    <g id="编组" transform="translate(16.000000, 16.000000)">
                        <polygon id="路径" points="0 0 48 0 48 48 0 48"></polygon>
                        <path d="M44,12 L30,12 C23.372583,12 18,17.372583 18,24 C18,30.627417 23.372583,36 30,36 L44,36 L44,40 C44,41.1045695 43.1045695,42 42,42 L6,42 C4.8954305,42 4,41.1045695 4,40 L4,8 C4,6.8954305 4.8954305,6 6,6 L42,6 C43.1045695,6 44,6.8954305 44,8 L44,12 Z M30,16 L46,16 L46,32 L30,32 C25.581722,32 22,28.418278 22,24 C22,19.581722 25.581722,16 30,16 Z M30,22 L30,26 L36,26 L36,22 L30,22 Z" id="形状" fill="#FF8050" fill-rule="nonzero"></path>
                    </g>
                </g>
            </g>
        </g>
    </g>
</svg>