<?xml version="1.0" encoding="UTF-8"?>
<svg width="80px" height="80px" viewBox="0 0 80 80" version="1.1" xmlns="http://www.w3.org/2000/svg" xmlns:xlink="http://www.w3.org/1999/xlink">
    <title>我的团队</title>
    <g id="代理模式" stroke="none" stroke-width="1" fill="none" fill-rule="evenodd">
        <g id="个人中心-代理模式（2选一）" transform="translate(-413.000000, -676.000000)">
            <g id="编组-11" transform="translate(405.000000, 676.000000)">
                <g id="我的团队" transform="translate(8.000000, 0.000000)">
                    <rect id="矩形" fill="#FFF1D6" x="0" y="0" width="80" height="80" rx="40"></rect>
                    <g id="编组" transform="translate(16.000000, 16.000000)">
                        <polygon id="路径" points="0 0 48 0 48 48 0 48"></polygon>
                        <path d="M24,22 C29.5228475,22 34,26.4771525 34,32 L34,44 L14,44 L14,32 C14,26.4771525 18.4771525,22 24,22 L24,22 Z M10.576,28.012 C10.2577153,29.0855727 10.0696986,30.1935279 10.016,31.312 L9.99999981,32 L9.99999981,44 L3.99999981,44 L3.99999981,35 C3.99918456,31.4283085 6.68753354,28.428804 10.238,28.04 L10.578,28.012 L10.576,28.012 Z M37.424,28.012 C41.1184085,28.237184 43.999456,31.2987352 44,35 L44,44 L38,44 L38,32 C38,30.614 37.8,29.276 37.424,28.012 L37.424,28.012 Z M11,16 C13.7614237,16 16,18.2385763 16,21 C16,23.7614237 13.7614237,26 11,26 C8.23857625,26 6,23.7614237 6,21 C6,18.2385763 8.23857625,16 11,16 Z M37,16 C39.7614237,16 42,18.2385763 42,21 C42,23.7614237 39.7614237,26 37,26 C34.2385763,26 32,23.7614237 32,21 C32,18.2385763 34.2385763,16 37,16 Z M24,4 C28.418278,4 32,7.581722 32,12 C32,16.418278 28.418278,20 24,20 C19.581722,20 16,16.418278 16,12 C16,7.581722 19.581722,4 24,4 Z" id="形状" fill="#FF9E22" fill-rule="nonzero"></path>
                    </g>
                </g>
            </g>
        </g>
    </g>
</svg>