<?xml version="1.0" encoding="UTF-8"?>
<svg width="24px" height="24px" viewBox="0 0 24 24" version="1.1" xmlns="http://www.w3.org/2000/svg" xmlns:xlink="http://www.w3.org/1999/xlink">
    <title>电影</title>
    <defs>
        <linearGradient x1="50%" y1="0%" x2="50%" y2="100%" id="linearGradient-1">
            <stop stop-color="#F58E73" offset="0%"></stop>
            <stop stop-color="#F85190" offset="100%"></stop>
        </linearGradient>
    </defs>
    <g id="首页" stroke="none" stroke-width="1" fill="none" fill-rule="evenodd">
        <g transform="translate(-252.000000, -1248.000000)" fill-rule="nonzero" id="电影">
            <g transform="translate(252.000000, 1248.000000)">
                <rect id="矩形" fill="#000000" opacity="0" x="0" y="0" width="24" height="24"></rect>
                <path d="M6.50000001,21.5265 C3.09651991,19.5614999 1.00000001,15.9300003 1.00000001,12 C1.00000001,5.925 5.925,1.00000001 12,1.00000001 C18.075,1.00000001 23,5.925 23,12 C23,15.9112819 20.922981,19.5283583 17.545,21.5 L21.25,21.5 C21.6642136,21.5 22,21.8357864 22,22.25 C22,22.6642136 21.6642136,23 21.25,23 L11.8965,22.9995 C10.0007421,22.9820729 8.14171477,22.4746426 6.50000001,21.5265 Z M11.9999999,15.5 C11.106836,15.5 10.2815184,15.9764973 9.83493642,16.75 C9.38835442,17.5235027 9.38835442,18.4764973 9.83493642,19.25 C10.2815184,20.0235027 11.106836,20.5 11.9999999,20.5 C13.3807119,20.5 14.4999999,19.3807119 14.4999999,18 C14.4999999,16.6192881 13.3807119,15.5 11.9999999,15.5 L11.9999999,15.5 Z M18,9.49999999 C16.6192881,9.49999999 15.5,10.6192881 15.5,12 C15.5,13.3807119 16.6192881,14.5 18,14.5 C19.3807119,14.5 20.5,13.3807119 20.5,12 C20.5,10.6192881 19.3807119,9.49999999 18,9.49999999 L18,9.49999999 Z M5.99999999,9.49999999 C4.61928812,9.49999999 3.49999999,10.6192881 3.49999999,12 C3.49999999,13.3807119 4.61928812,14.5 5.99999999,14.5 C7.38071188,14.5 8.49999999,13.3807119 8.49999999,12 C8.49999999,10.6192881 7.38071188,9.49999999 5.99999999,9.49999999 L5.99999999,9.49999999 Z M12,10.5 C11.4641016,10.5 10.9689111,10.7858984 10.7009619,11.25 C10.4330127,11.7141016 10.4330127,12.2858984 10.7009619,12.75 C10.9689111,13.2141016 11.4641016,13.5 12,13.5 C12.8284271,13.5 13.5,12.8284271 13.5,12 C13.5,11.1715729 12.8284271,10.5 12,10.5 L12,10.5 Z M12,3.49999999 C10.6192881,3.49999999 9.49999999,4.61928812 9.49999999,5.99999999 C9.49999999,7.38071188 10.6192881,8.49999999 12,8.49999999 C13.3807119,8.49999999 14.5,7.38071186 14.5,5.99999999 C14.5,4.61928814 13.3807119,3.49999999 12,3.49999999 L12,3.49999999 Z" id="形状" fill="url(#linearGradient-1)"></path>
            </g>
        </g>
    </g>
</svg>