<?xml version="1.0" encoding="UTF-8"?>
<svg width="23px" height="23px" viewBox="0 0 23 23" version="1.1" xmlns="http://www.w3.org/2000/svg" xmlns:xlink="http://www.w3.org/1999/xlink">
    <title>更多h5</title>
    <g id="专题" stroke="none" stroke-width="1" fill="none" fill-rule="evenodd">
        <g transform="translate(-415.000000, -913.000000)" fill="#555555" fill-rule="nonzero" id="编组-2">
            <g transform="translate(313.000000, 908.000000)">
                <g id="更多h5" transform="translate(102.000000, 5.000000)">
                    <rect id="矩形" opacity="0" x="0" y="0" width="23" height="23"></rect>
                    <path d="M15.8125,9.65178572 L8.78928572,2.0125 C8.57390765,1.78723291 8.2792953,1.65465735 7.96785714,1.64283595 C7.64148936,1.64089834 7.32901992,1.77481381 7.10535714,2.0125 C6.86931078,2.23730605 6.73571428,2.54903122 6.73571428,2.875 C6.73571428,3.20096878 6.86931078,3.51269395 7.10535714,3.7375 L14.1285714,11.3767857 C14.2517857,11.5 14.2517857,11.6232143 14.1285714,11.6232143 L6.98214286,19.2625 C6.72923412,19.4788341 6.57996547,19.7922983 6.57142858,20.125 C6.57238426,20.4507719 6.70582674,20.7621377 6.94107142,20.9875 C7.18651979,21.1919476 7.4862484,21.3204027 7.80357142,21.3571429 C8.13075835,21.3632209 8.44482659,21.2286202 8.66607142,20.9875 L15.6892857,13.3482143 C16.2584125,12.9129221 16.6022597,12.2452854 16.62613,11.5291746 C16.6500004,10.8130637 16.3513762,10.1240113 15.8125,9.65178572 Z" id="路径"></path>
                </g>
            </g>
        </g>
    </g>
</svg>