<?xml version="1.0" encoding="UTF-8"?>
<svg width="18px" height="18px" viewBox="0 0 18 18" version="1.1" xmlns="http://www.w3.org/2000/svg" xmlns:xlink="http://www.w3.org/1999/xlink">
    <title>更多h5详情</title>
    <g id="名人" stroke="none" stroke-width="1" fill="none" fill-rule="evenodd">
        <g id="名人详情页" transform="translate(-693.000000, -299.000000)" fill="#FF8874" fill-rule="nonzero">
            <g id="编组-2" transform="translate(629.000000, 288.000000)">
                <g id="更多h5详情" transform="translate(64.000000, 11.000000)">
                    <rect id="矩形" opacity="0" x="0" y="0" width="18" height="18"></rect>
                    <path d="M12.375,7.55357143 L6.87857143,1.575 C6.71001469,1.39870402 6.47944849,1.29494923 6.23571428,1.2856977 C5.98029602,1.28418131 5.73575472,1.38898472 5.56071428,1.575 C5.37598235,1.75093517 5.27142857,1.994894 5.27142857,2.25 C5.27142857,2.505106 5.37598235,2.74906483 5.56071428,2.925 L11.0571428,8.90357143 C11.1535714,9 11.1535714,9.09642858 11.0571428,9.09642857 L5.46428572,15.075 C5.26635714,15.244305 5.14953819,15.4896248 5.14285715,15.75 C5.14360507,16.0049519 5.24803832,16.2486295 5.43214285,16.425 C5.62423288,16.5850025 5.8588031,16.6855326 6.10714285,16.7142857 C6.36320218,16.7190424 6.60899472,16.6137028 6.78214285,16.425 L12.2785714,10.4464286 C12.723975,10.1057651 12.9930728,9.58326685 13.0117539,9.02283227 C13.0304351,8.4623977 12.7967292,7.92313928 12.375,7.55357143 Z" id="路径"></path>
                </g>
            </g>
        </g>
    </g>
</svg>