<?xml version="1.0" encoding="UTF-8"?>
<svg width="32px" height="32px" viewBox="0 0 32 32" version="1.1" xmlns="http://www.w3.org/2000/svg" xmlns:xlink="http://www.w3.org/1999/xlink">
    <title>搜索</title>
    <g id="首页" stroke="none" stroke-width="1" fill="none" fill-rule="evenodd">
        <g transform="translate(-582.000000, -78.000000)" fill="#FFFFFF" fill-rule="nonzero" id="搜索">
            <g transform="translate(582.000000, 78.000000)">
                <rect id="矩形" opacity="0" x="0" y="0" width="32" height="32"></rect>
                <path d="M14.6666667,24 C9.46666666,24 5.33333334,19.8666667 5.33333334,14.6666667 C5.33333334,9.46666666 9.46666669,5.33333334 14.6666667,5.33333334 C19.8666666,5.33333334 24,9.46666669 24,14.6666667 C24,19.8666666 19.8666667,24 14.6666667,24 Z M14.6666667,21.3333333 C18.4,21.3333333 21.3333333,18.4 21.3333333,14.6666667 C21.3333333,10.9333333 18.4,8 14.6666667,8 C10.9333333,8 8,10.9333333 8,14.6666667 C8,18.4 10.9333333,21.3333333 14.6666667,21.3333333 Z M22.5333333,21.3333333 L26.2666667,25.0666667 L24.4,26.9333333 L20.6666667,23.2 L22.5333333,21.3333333 Z" id="形状"></path>
            </g>
        </g>
    </g>
</svg>