<?xml version="1.0" encoding="UTF-8"?>
<svg width="13px" height="13px" viewBox="0 0 13 13" version="1.1" xmlns="http://www.w3.org/2000/svg" xmlns:xlink="http://www.w3.org/1999/xlink">
    <title>搜索</title>
    <g id="首页" stroke="none" stroke-width="1" fill="none" fill-rule="evenodd">
        <g transform="translate(-1531.000000, -30.000000)" fill="#FFFFFF" fill-rule="nonzero" id="编组-8">
            <g transform="translate(1281.000000, 16.000000)">
                <g id="编组-16" transform="translate(250.000000, 11.000000)">
                    <g id="搜索" transform="translate(0.000000, 3.228412)">
                        <path d="M10.8730242,12.0245096 L9.10313489,10.2546203 C6.71122508,12.04261 3.34434091,11.6788716 1.38949161,9.4212835 C-0.565357686,7.16369538 -0.443903261,3.77939878 1.66774773,1.66774777 C3.77939871,-0.44390324 7.16369532,-0.565357702 9.42128345,1.38949157 C11.6788716,3.34434084 12.0426101,6.71122501 10.2546203,9.10313484 L12.0237803,10.8737534 C12.3317434,11.1931567 12.3271191,11.7003776 12.0133838,12.014113 C11.6996484,12.3278483 11.1924275,12.3324726 10.8730242,12.0245096 L10.8730242,12.0245096 Z M1.6224904,5.69097501 C1.6224904,7.93833979 3.44433951,9.76018891 5.69170429,9.76018891 C7.93906907,9.76018891 9.7609182,7.9383398 9.7609182,5.69097502 C9.7609182,3.44361024 7.93906909,1.62176111 5.69170431,1.62176111 C3.44519375,1.62216356 1.62402481,3.44300606 1.62321965,5.68951651 L1.6224904,5.69097501 L1.6224904,5.69097501 Z" id="形状"></path>
                    </g>
                </g>
            </g>
        </g>
    </g>
</svg>