<?xml version="1.0" encoding="UTF-8"?>
<svg width="48px" height="48px" viewBox="0 0 48 48" version="1.1" xmlns="http://www.w3.org/2000/svg" xmlns:xlink="http://www.w3.org/1999/xlink">
    <title>分享</title>
    <g id="播放页" stroke="none" stroke-width="1" fill="none" fill-rule="evenodd">
        <g id="播放页2" transform="translate(-352.000000, -713.000000)">
            <g id="编组-2" transform="translate(80.000000, 713.000000)">
                <g id="分享" transform="translate(272.000000, 0.000000)">
                    <polygon id="路径" points="0 0 48 0 48 48 0 48"></polygon>
                    <path d="M23.4878049,28.6764706 L19.390244,28.6764706 C12.5405755,28.6738427 6.25405518,32.4873956 3.06556104,38.5794118 C3.02158722,38.0246303 2.99999733,37.4683032 2.99999733,36.9117647 C2.99999733,25.5408824 12.1723903,16.3235294 23.4878049,16.3235294 L23.4878049,5 L44.9999973,22.5 L23.4878049,40 L23.4878049,28.6764706 Z M19.390244,24.5588235 L27.5853659,24.5588235 L27.5853659,31.3694118 L38.4869269,22.5 L27.5853659,13.6305882 L27.5853659,20.4411765 L23.4878049,20.4411765 C18.7210017,20.4357948 14.1891245,22.5207375 11.0783415,26.1502941 C13.723969,25.0966269 16.5444138,24.5565995 19.390244,24.5588235 Z" id="形状" fill="#333333" fill-rule="nonzero"></path>
                </g>
            </g>
        </g>
    </g>
</svg>