<?xml version="1.0" encoding="UTF-8"?>
<svg width="10px" height="10px" viewBox="0 0 10 10" version="1.1" xmlns="http://www.w3.org/2000/svg" xmlns:xlink="http://www.w3.org/1999/xlink">
    <title>收起</title>
    <g id="搜索页" stroke="none" stroke-width="1" fill="none" fill-rule="evenodd">
        <g id="搜索人物2" transform="translate(-941.000000, -426.000000)" fill="#FF8874" fill-rule="nonzero">
            <g id="编组-20" transform="translate(909.000000, 421.000000)">
                <g id="收起" transform="translate(37.000000, 10.000000) scale(1, -1) translate(-37.000000, -10.000000) translate(32.000000, 5.000000)">
                    <rect id="矩形" opacity="0" x="0" y="0" width="10" height="10"></rect>
                    <path d="M1.39458333,2.58958333 C1.2501431,2.443271 1.03837798,2.38557282 0.839681469,2.43839305 C0.640984959,2.49121328 0.485825733,2.64645232 0.433107694,2.84517597 C0.380389655,3.04389961 0.438196735,3.25563503 0.58458333,3.4 L4.595,7.41041667 C4.81871194,7.63400357 5.18128806,7.63400357 5.405,7.41041667 L9.41541667,3.4 C9.56180327,3.25563503 9.61961034,3.04389961 9.56689231,2.84517597 C9.51417427,2.64645232 9.35901504,2.49121328 9.16031853,2.43839305 C8.96162202,2.38557282 8.7498569,2.443271 8.60541667,2.58958333 L5,6.195 L1.39458333,2.58958333 Z" id="路径"></path>
                </g>
            </g>
        </g>
    </g>
</svg>