<?xml version="1.0" encoding="UTF-8"?>
<svg width="18px" height="16px" viewBox="0 0 18 16" version="1.1" xmlns="http://www.w3.org/2000/svg" xmlns:xlink="http://www.w3.org/1999/xlink">
    <title>返回顶部灰</title>
    <g id="首页" stroke="none" stroke-width="1" fill="none" fill-rule="evenodd">
        <g transform="translate(-1891.000000, -2559.000000)" fill="#999999" fill-rule="nonzero" id="返回顶部灰">
            <g transform="translate(1891.000000, 2559.000000)">
                <rect id="矩形" opacity="0" x="0" y="0" width="18" height="16"></rect>
                <path d="M1,9.81534472 L2.7748,9.81534472 L2.7748,14.3463447 L3.6046,14.3463447 L3.6046,9.81534472 L5.3794,9.81534472 L5.3794,8.98564472 L1,8.98564472 L1,9.81534472 Z M9.9558,8.98564472 L7.7576,8.98564472 C7.4922,8.98564472 7.2267,9.08694472 7.0243,9.28934472 C6.8217,9.49184472 6.7205,9.75734472 6.7205,10.0228447 L6.7205,13.3089447 C6.7205,13.5744447 6.8217,13.8399447 7.0243,14.0424447 C7.2268,14.2449447 7.4923,14.3462447 7.7576,14.3462447 L9.9558,14.3462447 C10.2212,14.3462447 10.4868,14.2449447 10.6893,14.0424447 C10.8918,13.8399447 10.993,13.5744447 10.993,13.3089447 L10.993,10.0229447 C10.993,9.75734472 10.8918,9.49194472 10.6893,9.28934472 C10.4868,9.08694472 10.2213,8.98564472 9.9558,8.98564472 L9.9558,8.98564472 Z M10.1634,13.3089447 C10.1634,13.3482447 10.1527,13.4055447 10.1027,13.4557447 C10.0525,13.5059447 9.9951,13.5164447 9.9559,13.5164447 L7.7576,13.5164447 C7.7184,13.5164447 7.6612,13.5059447 7.611,13.4557447 C7.5608,13.4055447 7.5502,13.3482447 7.5502,13.3089447 L7.5502,10.0229447 C7.5502,9.98364472 7.5608,9.92634472 7.611,9.87614472 C7.6612,9.82594472 7.7184,9.81534472 7.7576,9.81534472 L9.9558,9.81534472 C9.995,9.81534472 10.0524,9.82594472 10.1024,9.87614472 C10.1526,9.92634472 10.1633,9.98364472 10.1633,10.0229447 L10.1633,13.3089447 L10.1634,13.3089447 Z M16.1612,9.28934472 C15.9587,9.08704472 15.6931,8.98564472 15.4277,8.98564472 L12.5829,8.98564472 L12.5829,14.3462447 L13.4126,14.3462447 L13.4126,11.9951447 L15.4277,11.9951447 C15.6932,11.9951447 15.9587,11.8938447 16.1612,11.6913447 C16.3637,11.4888447 16.465,11.2233447 16.465,10.9579447 L16.465,10.0228447 C16.465,9.75734472 16.3638,9.49194472 16.1612,9.28934472 L16.1612,9.28934472 Z M15.6352,10.9579447 C15.6352,10.9971447 15.6247,11.0544447 15.5745,11.1046447 C15.5243,11.1548447 15.4669,11.1653447 15.4278,11.1653447 L13.4128,11.1653447 L13.4128,9.81534472 L15.4278,9.81534472 C15.467,9.81534472 15.5243,9.82594472 15.5745,9.87614472 C15.6247,9.92634472 15.6352,9.98364472 15.6352,10.0229447 L15.6352,10.9579447 L15.6352,10.9579447 Z M4.9038,5.40104472 C5.979,4.43224472 8.5308,2.13324472 8.61,2.06334472 C8.7105,1.97464472 8.8324,1.98564472 8.9089,2.05584472 C8.9625,2.10504472 11.6138,4.49234472 12.6438,5.41984472 C12.806,5.55644472 12.763,5.82494472 12.5595,5.82494472 C12.356,5.82494472 5.1796,5.82684472 5.0511,5.82494472 C4.9226,5.82304472 4.7591,5.58244472 4.9038,5.40104472 Z" id="形状"></path>
            </g>
        </g>
    </g>
</svg>