<?xml version="1.0" encoding="UTF-8"?>
<svg width="36px" height="36px" viewBox="0 0 36 36" version="1.1" xmlns="http://www.w3.org/2000/svg" xmlns:xlink="http://www.w3.org/1999/xlink">
    <title>视频，电视</title>
    <defs>
        <linearGradient x1="50%" y1="0%" x2="50%" y2="100%" id="linearGradient-1">
            <stop stop-color="#F58C73" offset="0%"></stop>
            <stop stop-color="#F85390" offset="100%"></stop>
        </linearGradient>
    </defs>
    <g id="首页" stroke="none" stroke-width="1" fill="none" fill-rule="evenodd">
        <g id="首页全部" transform="translate(-22.000000, -2693.000000)" fill-rule="nonzero">
            <g id="视频，电视" transform="translate(22.000000, 2693.000000)">
                <rect id="矩形" fill="#000000" opacity="0" x="0" y="0" width="36" height="36"></rect>
                <path d="M10.6187922,2.68443591 C11.0063449,2.68529052 11.3637295,2.89373315 11.55528,3.23064 L14.26248,7.92 L21.7368,7.92 L24.44472,3.23064 C24.587821,2.9824709 24.8236569,2.80132293 25.1003341,2.72705625 C25.3770113,2.65278956 25.6718596,2.69148934 25.92,2.83464 C26.4365296,3.13360241 26.6134997,3.79409727 26.31528,4.31064 L24.2316,7.92 L29.52,7.92 C31.9058701,7.92 33.84,9.85412988 33.84,12.24 L33.84,29.52 C33.84,31.9058701 31.9058701,33.84 29.52,33.84 L6.48,33.84 C4.09412988,33.84 2.16,31.9058701 2.16,29.52 L2.16,12.24 C2.16,9.85412988 4.09412988,7.92 6.48,7.92 L11.76768,7.92 L9.68472,4.31064 C9.48871687,3.97630395 9.48688203,3.56257857 9.67991199,3.22651719 C9.87294195,2.89045581 10.2312395,2.68358653 10.6187922,2.68443591 Z M15.1236,15.84 C14.32656,15.84 13.6799982,16.52832 13.6799982,17.37792 L13.6799982,17.37792 L13.6799982,24.38136 C13.6796004,24.6458859 13.7441277,24.9064675 13.86792,25.14024 C14.26104,25.87896 15.1416,26.13888 15.83496,25.71984 L15.83496,25.71984 L21.58776,22.24656 C21.8124,22.1112 21.99816,21.91392 22.12704,21.67632 C22.5252,20.94048 22.28832,20.00016 21.59712,19.57608 L21.59712,19.57608 L15.84432,16.0452 C15.62544,15.91056 15.37704,15.84 15.1236,15.84 Z" id="形状结合" fill="url(#linearGradient-1)"></path>
            </g>
        </g>
    </g>
</svg>