<?xml version="1.0" encoding="UTF-8"?>
<svg width="36px" height="36px" viewBox="0 0 36 36" version="1.1" xmlns="http://www.w3.org/2000/svg" xmlns:xlink="http://www.w3.org/1999/xlink">
    <title>综艺</title>
    <defs>
        <linearGradient x1="50%" y1="0%" x2="50%" y2="100%" id="linearGradient-1">
            <stop stop-color="#F68079" offset="0%"></stop>
            <stop stop-color="#F8598E" offset="100%"></stop>
        </linearGradient>
    </defs>
    <g id="首页" stroke="none" stroke-width="1" fill="none" fill-rule="evenodd">
        <g id="首页全部" transform="translate(-22.000000, -3416.000000)" fill-rule="nonzero">
            <g id="综艺" transform="translate(22.000000, 3416.000000)">
                <rect id="矩形" fill="#000000" opacity="0" x="0" y="0" width="35.9918433" height="36"></rect>
                <path d="M21.6670897,29.538 C21.4151468,29.556 21.1632038,29.52 20.9472528,29.43 L14.2167781,26.694 L8.13415658,30.78 C7.54029117,31.176 6.73047469,31.104 6.22658889,30.6 C5.9026623,30.276 5.740699,29.844 5.77669085,29.394 L6.26258073,22.14 C6.26258073,22.068 6.24458481,21.996 6.17260112,21.96 L0.575869492,17.406 C0.125971451,17.046 -0.0899796082,16.452 0.0359918433,15.876 C0.143967373,15.3 0.593865414,14.85 1.15173898,14.706 L8.09816474,12.924 C8.17014842,12.906 8.22413619,12.852 8.24213211,12.798 L10.7435652,5.976 C11.013504,5.184 11.8773083,4.77 12.6691288,5.058 C12.9930554,5.166 13.2809902,5.4 13.4609494,5.706 L17.2760848,11.862 C17.3120766,11.916 17.3660644,11.952 17.4380481,11.97 L24.6004249,12.276 C25.1762944,12.294 25.6981761,12.654 25.9321231,13.194 C26.1660701,13.734 26.0760905,14.364 25.716172,14.814 L21.127212,20.394 C21.0732242,20.448 21.0732242,20.52 21.0912202,20.592 L23.0167838,27.594 C23.1427552,28.026 23.0527756,28.494 22.8008327,28.872 C22.5308939,29.25 22.1169877,29.502 21.6670897,29.538 Z" id="路径" fill="url(#linearGradient-1)"></path>
                <path d="M31.1329444,30.0067988 C30.8450097,30.0067988 30.5750709,29.9010533 30.3591198,29.7071865 L28.1636174,27.6275248 L25.0863148,28.1562523 C25.0503229,28.1562523 24.9243515,28.1738766 24.8883596,28.1738766 C24.5104453,28.1738766 24.1685228,27.9976341 23.9525717,27.6803975 C23.7546166,27.3807852 23.7366206,26.9930517 23.9165799,26.6758151 L25.3382577,24.0674258 L23.8625921,21.494285 C23.6826329,21.1770484 23.6826329,20.7893149 23.880588,20.4720784 C24.1325309,20.1195933 24.564433,19.9257265 24.9963352,19.9785993 L28.0736378,20.4368298 L30.2331484,18.3219196 C30.4490994,18.1104286 30.7190382,18.004683 31.0249689,18.004683 C31.5648466,17.9870588 32.0147446,18.3571681 32.1047242,18.8682714 L32.5726182,21.776273 L35.3799819,23.0452192 C35.9018637,23.2743345 36.1358107,23.8559348 35.9198596,24.3670381 C35.8118841,24.5961534 35.6319248,24.7723959 35.3979779,24.8781414 L32.6266059,26.1999603 L32.1947038,29.1079619 C32.1047242,29.6190653 31.6548262,30.0067988 31.1329444,30.0067988 L31.1329444,30.0067988 Z" id="路径" fill="#FFC9CE"></path>
            </g>
        </g>
    </g>
</svg>