<?xml version="1.0" standalone="no"?><!DOCTYPE svg PUBLIC "-//W3C//DTD SVG 1.1//EN" "http://www.w3.org/Graphics/SVG/1.1/DTD/svg11.dtd"><svg class="icon" width="200px" height="200.00px" viewBox="0 0 1024 1024" version="1.1" xmlns="http://www.w3.org/2000/svg"><path fill="currentColor" d="M527.661176 181.850353a33.249882 33.249882 0 0 0-35.418352 4.336941L303.405176 343.521882H183.235765A32.587294 32.587294 0 0 0 150.588235 376.169412v262.927059a33.129412 33.129412 0 0 0 32.105412 32.346353h121.976471l188.897882 156.79247a33.008941 33.008941 0 0 0 54.031059-25.298823V211.606588a33.129412 33.129412 0 0 0-18.913883-29.696h-1.084235V181.910588z m126.494118 164.020706a32.888471 32.888471 0 0 0-26.925176 59.392c34.334118 21.082353 54.091294 59.392 51.260235 99.568941 0 77.763765-46.140235 103.363765-47.525647 104.508235a32.948706 32.948706 0 0 0 29.093647 58.789647c3.493647-1.807059 83.968-43.489882 83.968-163.237647a173.056 173.056 0 0 0-89.810824-159.021176z m102.27953-96.256a32.647529 32.647529 0 0 0-35.538824 53.910588c3.433412 2.409412 87.642353 59.873882 87.642353 202.631529s-80.896 200.222118-83.907765 202.390589a32.828235 32.828235 0 0 0 1.204706 59.934117 32.948706 32.948706 0 0 0 35.177412-6.023529c4.638118-3.011765 113.061647-77.462588 113.061647-257.385412 0-179.983059-112.037647-252.626824-116.856471-255.578353h-0.783058v0.120471z"  /></svg>