<svg id="图层_1" data-name="图层 1" xmlns="http://www.w3.org/2000/svg" xmlns:xlink="http://www.w3.org/1999/xlink" viewBox="0 0 31.61 25.02"><defs><linearGradient id="未命名的渐变" x1="-913.05" y1="536.21" x2="-913.05" y2="535.21" gradientTransform="matrix(31.61, 0, 0, -25.02, 28879.32, 13414.25)" gradientUnits="userSpaceOnUse"><stop offset="0" stop-color="#ffd99b"/><stop offset="1" stop-color="#ea8b31"/></linearGradient></defs><g id="首页"><g id="编组-15"><g id="会员"><path class="cls-1" d="M6.3,0h19a1.32,1.32,0,0,1,1.08.55l5.09,7a.66.66,0,0,1,0,.84L16.3,24.8a.68.68,0,0,1-1,0L.18,8.4a.65.65,0,0,1,0-.84l5.09-7A1.35,1.35,0,0,1,6.3,0ZM7,2.67,3.25,7.8,15.81,21.4,28.36,7.8,24.63,2.67ZM9.89,6.22H22.11a1,1,0,0,1,1,1v.67a1,1,0,0,1-1,1H9.89a1,1,0,0,1-1-1V7.22A1,1,0,0,1,9.89,6.22Z"/></g></g></g></svg>