<?xml version="1.0" standalone="no"?><!DOCTYPE svg PUBLIC "-//W3C//DTD SVG 1.1//EN" "http://www.w3.org/Graphics/SVG/1.1/DTD/svg11.dtd"><svg class="icon" width="200px" height="200.00px" viewBox="0 0 1024 1024" version="1.1" xmlns="http://www.w3.org/2000/svg"><path fill="currentColor" d="M148.992 344.137143l54.857143 466.505143h616.301714l54.857143-466.505143-171.154286 114.029714L512 189.44 320.073143 458.166857l-171.081143-114.102857z m-29.476571-122.294857l179.2 119.515428 178.541714-250.075428a42.642286 42.642286 0 0 1 69.485714 0l178.614857 250.075428 179.2-119.515428a42.642286 42.642286 0 0 1 65.974857 40.521143l-70.070857 595.968a42.642286 42.642286 0 0 1-42.422857 37.668571H166.034286a42.642286 42.642286 0 0 1-42.422857-37.668571L53.467429 262.363429a42.642286 42.642286 0 0 1 65.974857-40.521143zM512 640a85.357714 85.357714 0 1 1 0-170.642286A85.357714 85.357714 0 0 1 512 640z" /></svg>