<?xml version="1.0" standalone="no"?><!DOCTYPE svg PUBLIC "-//W3C//DTD SVG 1.1//EN" "http://www.w3.org/Graphics/SVG/1.1/DTD/svg11.dtd"><svg class="icon" width="200px" height="200.00px" viewBox="0 0 1024 1024" version="1.1" xmlns="http://www.w3.org/2000/svg"><path fill="currentColor" d="M311.0912 888.490667l-225.757867 50.176 50.176-225.757867a426.666667 426.666667 0 1 1 175.581867 175.581867z m12.356267-90.112l27.8528 14.882133a341.333333 341.333333 0 1 0-140.561067-140.629333l14.9504 27.921066-27.989333 125.7472 125.7472-27.989333zM358.4 563.2a68.266667 68.266667 0 1 0 0-136.533333 68.266667 68.266667 0 0 0 0 136.533333z m273.066667 0a68.266667 68.266667 0 1 0 0-136.533333 68.266667 68.266667 0 0 0 0 136.533333z" /></svg>