<?xml version="1.0" standalone="no"?><!DOCTYPE svg PUBLIC "-//W3C//DTD SVG 1.1//EN" "http://www.w3.org/Graphics/SVG/1.1/DTD/svg11.dtd"><svg class="icon" width="200px" height="200.00px" viewBox="0 0 1024 1024" version="1.1" xmlns="http://www.w3.org/2000/svg"><path fill="#999999" d="M908.6464 256.3584a63.744 63.744 0 0 0-50.2784-55.8592 1187.6352 1187.6352 0 0 1-162.6624-37.4784 604.0064 604.0064 0 0 1-145.3056-84.9408 66.4576 66.4576 0 0 0-77.6704 0 381.184 381.184 0 0 1-146.432 84.4288c-50.4832 20.8384-103.7824 34.048-158.208 39.0656a59.2384 59.2384 0 0 0-49.664 55.9104c-1.28 28.0576-1.7408 140.288-1.7408 263.7824 0 223.5392 263.7824 439.808 395.7248 439.808 131.8912 0 355.4304-152.576 391.168-436.4288 9.0112-167.68 5.12-268.288 5.12-268.288zM765.0304 429.056L489.472 688.9472a37.376 37.376 0 0 1-45.824 4.4544l-7.2192-6.144-152.064-158.1568A37.9904 37.9904 0 1 1 340.2752 477.696l125.184 131.328 248.1664-234.752a37.9904 37.9904 0 0 1 51.4048 55.9104V429.056z"  /></svg>