<svg t="1666332190431" class="icon" viewBox="0 0 1024 1024" version="1.1" xmlns="http://www.w3.org/2000/svg" p-id="10726" width="200" height="200"><path d="M803.667 470.333H553.666v-250c0-23.01-18.656-41.667-41.666-41.667-23.01 0-41.667 18.657-41.667 41.667v250h-250c-23.01 0-41.667 18.656-41.667 41.667 0 23.01 18.657 41.667 41.667 41.667h250v250c0 23.01 18.656 41.666 41.667 41.666 23.01 0 41.666-18.656 41.666-41.666v-250h250.001c23.01 0 41.666-18.657 41.666-41.667 0-23.011-18.656-41.667-41.666-41.667z" p-id="10727"></path></svg>