<?xml version="1.0" standalone="no"?><!DOCTYPE svg PUBLIC "-//W3C//DTD SVG 1.1//EN" "http://www.w3.org/Graphics/SVG/1.1/DTD/svg11.dtd"><svg t="1699593731875" class="icon" viewBox="0 0 1024 1024" version="1.1" xmlns="http://www.w3.org/2000/svg" p-id="5065" xmlns:xlink="http://www.w3.org/1999/xlink" width="200" height="200"><path d="M842.24 444.416c-8.192 0-54.272 0.512-62.976 0.512V299.52c0-161.28-103.936-268.288-266.24-268.8-162.304 0-268.288 112.64-268.288 268.8v143.872c-5.632 0-64.512 0.512-69.632 0.512-38.912 0-64 33.28-64 69.12v409.088c0 40.448 21.504 70.656 62.976 70.656h670.208c32.256 0 69.12-29.184 69.12-81.92V522.24c0-39.936-13.312-77.824-71.168-77.824z m-240.64 367.104c0 50.688-39.936 91.648-89.088 91.648-49.152 0-89.088-40.96-89.088-91.648v-1.536c0-33.792 17.92-63.488 44.544-79.36v-168.96c0-24.064 18.944-26.624 42.496-26.624 23.552 0 46.592 2.56 46.592 26.624v168.96c26.624 15.872 44.544 45.568 44.544 79.36v1.536zM691.2 443.392H334.336v-184.32c0-88.576 98.816-136.704 173.056-136.704h16.384c74.24 0 167.424 44.544 167.424 136.704v184.32z" p-id="5066" fill="#999999"></path></svg>