<?xml version="1.0" encoding="UTF-8"?>
<svg width="56px" height="56px" viewBox="0 0 56 56" version="1.1" xmlns="http://www.w3.org/2000/svg" xmlns:xlink="http://www.w3.org/1999/xlink">
    <title>联系我们</title>
    <g id="个人中心" stroke="none" stroke-width="1" fill="none" fill-rule="evenodd">
        <g transform="translate(-667.000000, -1022.000000)" fill="#999" fill-rule="nonzero" id="编组-6">
            <g transform="translate(650.000000, 1005.000000)">
                <g id="联系我们" transform="translate(17.000000, 17.000000)">
                    <rect id="矩形" opacity="0" x="0" y="0" width="56" height="56"></rect>
                    <path d="M45.9745439,41.0300101 C47.0168504,42.074778 47.0168504,43.7660723 45.9745439,44.8108402 L44.0839785,46.7014557 C42.6869964,48.0983877 40.8495692,48.9493 38.6224287,49.2310325 C38.0701342,49.3000547 37.5140397,49.3342109 36.9574498,49.3333162 C35.3365856,49.3333162 33.5876885,49.0595868 31.7365256,48.5151713 C26.7118115,47.0383316 21.4270714,43.707672 16.8601976,39.1394447 C12.2933239,34.5712175 8.96131082,29.2881818 7.48447109,24.2631168 C6.74925957,21.7596078 6.50728043,19.4428844 6.76860988,17.3785171 C7.05034237,15.1514267 7.90125472,13.3139494 9.29818669,11.9170174 L11.1888022,10.0264019 C12.2335701,8.98409538 13.9248644,8.98409538 14.9696322,10.0264019 L23.2882604,18.3447292 C24.3305739,19.3896116 24.3305739,21.0809776 23.2882604,22.12586 L21.3976449,24.015122 C20.3282144,25.0845525 21.3926318,28.5475562 24.4225094,31.577133 C27.452387,34.6067098 30.9137364,35.6727815 31.9845204,34.6019975 L33.8750858,32.711382 C34.9199739,31.6690352 36.6113785,31.6690352 37.6562667,32.711382 L45.9745439,41.0300101 Z M48.6341588,11.1817557 C48.1930119,10.2874305 47.5646782,9.48735034 46.7669542,8.80357255 C45.1591239,7.42563997 43.032244,6.66666667 40.7773815,6.66666667 C38.5225189,6.66666667 36.3956391,7.42563997 34.7878088,8.80357255 C33.9900847,9.48735034 33.3617511,10.2874305 32.9206041,11.1817557 C32.4607792,12.1046529 32.2215569,13.1217251 32.2217871,14.1528304 C32.2260729,15.3791188 32.5632466,16.5812315 33.1973236,17.6308732 C33.6052091,18.3058305 34.1148546,18.9137696 34.708252,19.4332092 C34.2327156,19.831595 33.6077407,20.2399567 32.7699123,20.7065198 C32.3462156,20.9444902 32.1362296,21.4382096 32.2587035,21.9084744 C32.3811775,22.3787391 32.8053176,22.7073092 33.2912678,22.7083745 C35.6905058,22.7083745 37.7304596,22.2973058 39.2263488,21.5159743 C39.739305,21.5978267 40.2579358,21.638945 40.7773815,21.6389441 C43.032244,21.6389441 45.1591239,20.8799708 46.7669542,19.5020382 C47.5646782,18.8182604 48.1930119,18.0181802 48.6341588,17.123855 C49.5658913,15.2527283 49.5658913,13.0528824 48.6341588,11.1817557 Z" id="形状"></path>
                </g>
            </g>
        </g>
    </g>
</svg>