<?xml version="1.0" encoding="UTF-8"?>
<svg width="25px" height="25px" viewBox="0 0 25 25" version="1.1" xmlns="http://www.w3.org/2000/svg" xmlns:xlink="http://www.w3.org/1999/xlink">
    <title>ios</title>
    <g id="首页" stroke="none" stroke-width="1" fill="none" fill-rule="evenodd">
        <g transform="translate(-1730.000000, -2290.000000)" fill-rule="nonzero" id="左上-➡️">
            <g transform="translate(1706.000000, 2266.000000)">
                <g id="ios" transform="translate(24.000000, 24.000000)">
                    <rect id="矩形" fill="#000000" opacity="0" x="0" y="0" width="25" height="25"></rect>
                    <path d="M20.2545792,13.8417969 C20.0787979,11.4956055 21.6315323,10.0136719 23.0963761,8.98339844 C21.7194229,7.74804688 20.5231339,6.55419922 17.9913956,6.43212891 C15.95038,6.34912109 15.0177628,7.50146484 13.1085831,7.54296875 C11.3336808,7.58447266 11.4655167,6.26611328 7.78143467,6.63720703 C4.58807529,6.96679688 1.79022373,9.93066406 2.0123917,14.0883789 C2.23455967,18.5756836 5.6085831,24.7890625 8.75799717,24.7890625 C10.9772354,24.7475586 11.509462,23.7612305 13.3307511,23.7612305 C15.5939347,23.7612305 16.1261612,24.996582 17.903505,24.75 C20.9674698,24.3374023 23.8507706,19.8525391 23.8507706,18.4121094 C22.1637589,17.5869141 20.4767472,16.1879883 20.2545792,13.8417969 Z M17.681337,1 C13.4650284,1.53466797 12.2662979,5.11621094 12.4884659,6.76171875 C15.728212,6.92529297 18.1696183,3.75634766 17.681337,1 L17.681337,1 Z" id="形状" fill="#999999"></path>
                </g>
            </g>
        </g>
    </g>
</svg>