<?xml version="1.0" encoding="UTF-8"?>
<svg width="12px" height="20px" viewBox="0 0 12 20" version="1.1" xmlns="http://www.w3.org/2000/svg" xmlns:xlink="http://www.w3.org/1999/xlink">
    <title>更多h5灰</title>
    <g id="播放页" stroke="none" stroke-width="1" fill="none" fill-rule="evenodd">
        <g id="播放页1" transform="translate(-187.000000, -432.000000)" fill="#555555" fill-rule="nonzero">
            <g id="编组-11" transform="translate(41.000000, 426.000000)">
                <g id="更多h5灰" transform="translate(146.000000, 6.500000)">
                    <rect id="矩形" opacity="0" x="0" y="0" width="12" height="19"></rect>
                    <path d="M1.97064258,17.921875 C1.79470703,17.921875 1.61875,17.8547578 1.48449414,17.7205234 C1.21602539,17.4520332 1.21602539,17.0167168 1.48449414,16.7482266 L8.73274219,9.5 L1.48449414,2.25175195 C1.21602539,1.98326172 1.21602539,1.5479668 1.48449414,1.27947656 C1.75300586,1.01098633 2.1882793,1.01098633 2.45679102,1.27947656 L10.191166,9.01385156 C10.4596348,9.2823418 10.4596348,9.71763672 10.191166,9.98612695 L2.45679102,17.720502 C2.32253516,17.8547578 2.14657813,17.921875 1.97064258,17.921875 L1.97064258,17.921875 Z" id="路径"></path>
                </g>
            </g>
        </g>
    </g>
</svg>