<?xml version="1.0" encoding="UTF-8"?>
<svg width="42px" height="42px" viewBox="0 0 42 42" version="1.1" xmlns="http://www.w3.org/2000/svg" xmlns:xlink="http://www.w3.org/1999/xlink">
    <title>客服</title>
    <g id="个人中心" stroke="none" stroke-width="1" fill="none" fill-rule="evenodd">
        <g id="编组-4" transform="translate(-120.000000, -30.000000)" fill="#999999" fill-rule="nonzero">
            <g id="编组-46" transform="translate(120.000000, 28.000000)">
                <g id="客服" transform="translate(0.000000, 2.000000)">
                    <rect id="矩形" opacity="0" x="0" y="0" width="42" height="42"></rect>
                    <path d="M21.1476562,31.5902344 C23.1328125,31.5902344 24.8923828,30.3064453 25.5035156,28.415625 C25.5445313,28.2884766 25.4871094,28.153125 25.3640625,28.0957031 C25.2410156,28.0423828 25.0974609,28.0875 25.0318359,28.2023437 C25.0236328,28.2146484 24.3263672,29.3425781 21.5988281,29.7117187 C21.2091797,29.7650391 20.8113281,29.79375 20.4175781,29.79375 C18.5103516,29.79375 17.6572266,29.071875 17.6490234,29.0677734 C17.5505859,28.9816406 17.4070312,28.9816406 17.3044922,29.0636719 C17.2060547,29.1457031 17.1814453,29.2933594 17.2511719,29.4041016 C18.0878906,30.7494141 19.5767578,31.5861328 21.1476562,31.5902344 L21.1476562,31.5902344 Z" id="路径"></path>
                    <path d="M33.1529297,16.3611328 C31.2785156,11.2875 26.4263672,7.66171875 20.7169922,7.66171875 C15.0322266,7.66171875 10.1923828,11.2546875 8.30566406,16.2955078 C8.20722656,16.1847656 8.1046875,16.078125 7.99394531,15.9837891 C9.06445312,9.83964844 14.3513672,5.16796875 20.7251953,5.16796875 C27.0703125,5.16796875 32.3408203,9.79453125 33.4482422,15.8935547 C33.3333984,16.0412109 33.2349609,16.1970703 33.1529297,16.3611328 Z M35.8025391,14.7 C35.7779297,14.7 35.7574219,14.7041016 35.7328125,14.7041016 C34.1373047,7.79296875 28.0341797,2.63730469 20.7210937,2.63730469 C13.2070312,2.63730469 6.96445312,8.08007812 5.58222656,15.2783203 C4.20820312,15.5326172 3.20742187,16.734375 3.21557494,18.1330078 L3.21557494,23.8546875 C3.21557494,25.4583984 4.50351562,26.7585937 6.09082031,26.7585937 C6.98496094,26.7585937 7.7765625,26.3361328 8.3015625,25.6880859 C9.57304687,29.0390625 12.140625,31.7460938 15.4300781,33.1816406 C15.4710937,33.0996094 15.5203125,33.0216797 15.5736328,32.9478516 C15.6269531,32.8822266 15.684375,32.8248047 15.7335937,32.8248047 C15.7828125,32.8248047 15.8320312,32.8412109 15.8730469,32.8699219 C15.1142578,32.3039063 12.3785156,29.4082031 11.7837891,25.3599609 C11.5253906,23.5798828 12.8583984,21.8285156 14.4128906,21.5414062 C16.9066406,21.0779297 19.3880859,20.5488281 21.8818359,20.0935547 C23.4691406,19.8064453 24.5519531,18.9328125 25.2123047,17.4849609 C25.3681641,17.1445312 25.59375,16.4595703 25.6962891,15.4751953 C25.7208984,15.3275391 25.8480469,15.2167969 25.9998047,15.2167969 C26.0982422,15.2167969 26.1884766,15.2660156 26.2458984,15.3439453 L26.315625,15.3029297 C27.3,16.7302734 29.2482422,19.8925781 29.5271484,23.2230469 C29.8470703,27.0333984 29.6707031,29.6419922 26.7544922,32.3121094 L26.7421875,32.3244141 C26.7011719,32.3695313 26.6765625,32.4269531 26.6765625,32.4884766 C26.6765625,32.5664062 26.7175781,32.6402344 26.7832031,32.68125 C26.8078125,32.6894531 26.8324219,32.7058594 26.8570312,32.7140625 C26.8775391,32.7181641 26.8939453,32.7222656 26.9144531,32.7263672 C26.9349609,32.7263672 26.9513672,32.7222656 26.9677734,32.7140625 C27.0087891,32.6935547 27.0498047,32.6689453 27.0908203,32.6443359 C30.0685547,30.9996094 32.3080078,28.2802734 33.3457031,25.0400391 C33.778981,25.6784038 34.444021,26.1227447 35.1996094,26.2787109 C33.9691406,31.89375 28.9570312,35.4128906 22.7513672,35.9419922 C22.3576172,34.9822266 21.4224609,34.3587891 20.3888672,34.3628906 C18.9861328,34.3628906 17.8458984,35.4744141 17.8458984,36.8443359 C17.8458984,38.2142578 18.9861328,39.3257992 20.3888672,39.3257992 C21.4798828,39.3298828 22.4519531,38.6326172 22.7964844,37.5990234 C29.9783203,37.0166016 35.7369141,32.746875 36.9386719,26.1146484 C38.0337891,25.6634766 38.7474989,24.5970703 38.7474989,23.4117187 L38.7474989,17.6326172 C38.7556641,16.0125 37.4349609,14.7 35.8025391,14.7 Z" id="形状"></path>
                </g>
            </g>
        </g>
    </g>
</svg>