<?xml version="1.0" encoding="UTF-8"?>
<svg width="24px" height="24px" viewBox="0 0 24 24" version="1.1" xmlns="http://www.w3.org/2000/svg" xmlns:xlink="http://www.w3.org/1999/xlink">
    <title>支付宝</title>
    <g id="会员中心" stroke="none" stroke-width="1" fill="none" fill-rule="evenodd">
        <g id="会员中心-点套餐充值" transform="translate(-805.000000, -526.000000)" fill="#009FE8" fill-rule="nonzero">
            <g id="编组" transform="translate(773.000000, 278.000000)">
                <g id="支付宝" transform="translate(32.000000, 248.000000)">
                    <rect id="矩形" opacity="0" x="0" y="0" width="24" height="24"></rect>
                    <path d="M5.40009375,13.5125625 C5.11680469,13.7405625 4.81314844,14.0734219 4.72497656,14.4965625 C4.60497656,15.0746719 4.69992188,15.7983047 5.25766406,16.3659609 C5.93332031,17.0541328 6.96009375,17.2424766 7.40360156,17.2748437 C8.60828906,17.3619609 9.89228906,16.7645625 10.8600938,16.0831875 C11.2394063,15.8155312 11.8889766,15.2781328 12.5098594,14.4491016 C11.118375,13.7306719 9.38149219,12.9360469 7.52463281,13.0137891 C6.57611719,13.0534453 5.89680469,13.2501328 5.40009375,13.5125625 L5.40009375,13.5125625 Z M23.0452266,16.6893984 C23.6592891,15.2478281 24,13.6633125 24,12 C24,5.3833125 18.6172266,0 12,0 C5.38277344,0 0,5.3833125 0,12 C0,18.6172266 5.38277344,24 12,24 C15.9933984,24 19.5349453,22.0377422 21.7179141,19.0283437 C19.6554844,18.0031406 16.2563437,16.3158281 14.1626016,15.2947734 C13.1634609,16.4337422 11.6864297,17.5753125 10.0179141,18.072 C8.96974219,18.3834844 8.02485937,18.5024297 7.0366875,18.3005156 C6.05842969,18.1001719 5.33791406,17.6420859 4.91791406,17.1829453 C4.704,16.9486875 4.45825781,16.6507734 4.28034375,16.2965391 C4.28918521,16.3205722 4.29857832,16.3443988 4.30851562,16.368 C4.30851562,16.368 4.20625781,16.1916562 4.128,15.9109687 C4.08673412,15.7724436 4.0604894,15.6298813 4.04971875,15.4857422 C4.04104048,15.3840615 4.03947417,15.2818989 4.04503125,15.18 C4.03617187,14.9994844 4.04348437,14.8100859 4.08417187,14.616 C4.18225781,14.1417422 4.3846875,13.5892031 4.90851562,13.0763438 C6.05842969,11.9504297 7.59860156,11.8899141 8.39634375,11.894625 C9.57808594,11.9013984 11.6316562,12.4184531 13.3606875,13.0299141 C13.8396562,12.0099141 14.1469453,10.9189453 14.3452266,10.1916328 L7.15565625,10.1916328 L7.15565625,9.41425781 L10.8474844,9.41425781 L10.8474844,7.85948438 L6.37825781,7.85948438 L6.37825781,7.08208594 L10.8474844,7.08208594 L10.8474844,5.52782813 C10.8474844,5.31442969 10.8897422,5.13914063 11.2361719,5.13914063 L12.9850547,5.13914063 L12.9850547,7.08208594 L17.8434844,7.08208594 L17.8434844,7.85948438 L12.9850547,7.85948438 L12.9850547,9.41425781 L16.8714609,9.41425781 C16.8714609,9.41425781 16.4812266,11.5899141 15.2608594,13.7342578 C17.9692266,14.7015703 21.7794844,16.1916563 23.0452266,16.6893984 L23.0452266,16.6893984 Z" id="形状"></path>
                </g>
            </g>
        </g>
    </g>
</svg>