<?xml version="1.0" encoding="UTF-8"?>
<svg width="72px" height="72px" viewBox="0 0 72 72" version="1.1" xmlns="http://www.w3.org/2000/svg" xmlns:xlink="http://www.w3.org/1999/xlink">
    <title>插件</title>
    <defs>
        <linearGradient x1="50%" y1="0%" x2="50%" y2="100%" id="linearGradient-1">
            <stop stop-color="#8AB4FF" offset="0%"></stop>
            <stop stop-color="#4B4AFF" offset="100%"></stop>
        </linearGradient>
        <linearGradient x1="50%" y1="0%" x2="50%" y2="100%" id="linearGradient-2">
            <stop stop-color="#83C1FE" offset="0%"></stop>
            <stop stop-color="#5287EE" offset="100%"></stop>
        </linearGradient>
    </defs>
    <g id="登录" stroke="none" stroke-width="1" fill="none" fill-rule="evenodd">
        <g id="登录1" transform="translate(-462.000000, -655.000000)" fill-rule="nonzero">
            <g id="编组-11" transform="translate(462.000000, 270.000000)">
                <g id="编组-9" transform="translate(0.000000, 38.000000)">
                    <g id="编组-4" transform="translate(0.000000, 103.000000)">
                        <g id="插件" transform="translate(0.000000, 244.000000)">
                            <rect id="矩形" fill="#000000" opacity="0" x="0" y="0" width="72" height="72"></rect>
                            <g id="编组-6" transform="translate(2.000000, 8.000000)">
                                <path d="M39.5930186,11.5807467 C41.2748738,11.5827682 42.8513064,12.4002874 43.8219202,13.7738048 C44.7925339,15.1473222 45.0367796,16.9062484 44.4771281,18.4922595 L51.6792466,18.4922595 C52.594589,18.4922595 53.4724407,18.8558805 54.1196819,19.503129 C54.766923,20.1503775 55.130534,21.0282334 55.1305236,21.9435758 L55.1305236,29.147934 C57.2808939,28.3804373 59.6802414,29.1096533 61.0398769,30.9439201 C62.3995124,32.778187 62.3995124,35.2858999 61.0398769,37.1201668 C59.6802414,38.9544336 57.2808939,39.6836496 55.1305236,38.9161529 L55.1305236,46.1205111 C55.1329036,47.0373978 54.7703389,47.9175469 54.1228408,48.5667258 C53.4753427,49.2159047 52.5961364,49.5807467 51.6792466,49.5807467 L44.4882871,49.5807467 C45.2508013,47.4312248 44.5194146,45.035831 42.6862572,43.6788466 C40.8530998,42.3218622 38.3485364,42.3218622 36.515379,43.6788466 C34.6822217,45.035831 33.950835,47.4312248 34.7133492,49.5807467 L27.508991,49.5807467 C26.5921011,49.5807467 25.7128949,49.2159047 25.0653968,48.5667258 C24.4178987,47.9175469 24.055334,47.0373978 24.0577023,46.1205111 L24.0577023,38.9496692 C26.2007514,39.6998571 28.5824953,38.9654081 29.9308706,37.138587 C31.2792458,35.311766 31.2792458,32.8193536 29.9308706,30.9925325 C28.5824953,29.1657114 26.2007514,28.4312624 24.0577023,29.1814503 L24.0577023,21.9770921 C24.0577023,20.0710045 25.6029033,18.5258151 27.508991,18.5258151 L34.7111095,18.5258151 C34.1514051,16.9396782 34.3968033,15.1805215 35.369218,13.8081116 C36.3416327,12.4357017 37.9199467,11.6209763 39.601938,11.6231824 L39.5952583,11.5807467 L39.5930186,11.5807467 Z" id="路径" fill="url(#linearGradient-1)" opacity="0.445988246" transform="translate(43.058653, 30.580747) rotate(28.000000) translate(-43.058653, -30.580747) "></path>
                                <path d="M20.440183,0 C22.6530397,0.00265970268 24.7271893,1.07828903 26.0042488,2.88545835 C27.2813082,4.69262766 27.6026681,7.00688844 26.8663213,9.09364075 L36.3423189,9.09364075 C37.5466565,9.09364075 38.7016669,9.57206555 39.5532573,10.4236657 C40.4048478,11.2752659 40.8832594,12.4302816 40.8832457,13.6346193 L40.8832457,23.1135636 C43.7125388,22.1037501 46.869417,23.0631969 48.6583216,25.4765851 C50.4472261,27.8899733 50.4472261,31.1894306 48.6583216,33.6028188 C46.869417,36.0162071 43.7125388,36.9756538 40.8832457,35.9658403 L40.8832457,45.4447847 C40.8863772,46.6511543 40.4093422,47.8091872 39.5574136,48.6633273 C38.705485,49.5174673 37.5486926,49.9974986 36.3423189,49.9974986 L26.8810035,49.9974986 C27.8842614,47.1693217 26.9219587,44.0176454 24.5100302,42.232229 C22.0981017,40.4468125 18.8027883,40.4468125 16.3908598,42.232229 C13.9789313,44.0176454 13.0166286,47.1693217 14.0198865,49.9974986 L4.54094215,49.9974986 C3.33456845,49.9974986 2.17777605,49.5174673 1.32584743,48.6633273 C0.473918818,47.8091872 -0.00311612038,46.6511543 0,45.4447847 L0,36.0099385 C2.81966027,36.9969785 5.95337712,36.0306466 7.72746632,33.6270549 C9.50155553,31.2234632 9.50155553,27.9441372 7.72746632,25.5405455 C5.95337712,23.1369538 2.81966027,22.1706219 0,23.1576618 L0,13.6787175 C0,11.1708329 2.03305751,9.13779066 4.54094215,9.13779066 L14.0169397,9.13779066 C13.2805235,7.0508728 13.6033997,4.73630876 14.8828287,2.93059658 C16.1622577,1.1248844 18.2388828,0.0529309678 20.4519184,0.0558336101 L20.4431298,0 L20.440183,0 Z" id="路径" fill="url(#linearGradient-2)"></path>
                            </g>
                        </g>
                    </g>
                </g>
            </g>
        </g>
    </g>
</svg>